<ttFont>
    <TTGlyph name=".notdef" xMin="150" yMin="0" xMax="744" yMax="1510">
      <contour>
        <pt x="150" y="0" on="1"/>
        <pt x="150" y="1510" on="1"/>
        <pt x="744" y="1510" on="1"/>
        <pt x="744" y="0" on="1"/>
      </contour>
      <contour>
        <pt x="268" y="1392" on="1"/>
        <pt x="268" y="118" on="1"/>
        <pt x="626" y="118" on="1"/>
        <pt x="626" y="1392" on="1"/>
      </contour>
    </TTGlyph>
    <TTGlyph name="A" xMin="200" yMin="-40" xMax="1210" yMax="1510">
      <contour>
        <pt x="200" y="-40" on="1"/>
        <pt x="200" y="1160" on="1"/>
        <pt x="200" y="1510" on="0"/>
        <pt x="550" y="1510" on="1"/>
        <pt x="860" y="1510" on="1"/>
        <pt x="1210" y="1510" on="0"/>
        <pt x="1210" y="1160" on="1"/>
        <pt x="1210" y="50" on="1"/>
        <pt x="1020" y="-40" on="1"/>
        <pt x="1010" y="-40" on="1"/>
        <pt x="1010" y="664" on="1"/>
        <pt x="400" y="664" on="1"/>
        <pt x="400" y="50" on="1"/>
        <pt x="210" y="-40" on="1"/>
      </contour>
      <contour>
        <pt x="400" y="846" on="1"/>
        <pt x="1010" y="846" on="1"/>
        <pt x="1010" y="1160" on="1"/>
        <pt x="1010" y="1330" on="0"/>
        <pt x="860" y="1330" on="1"/>
        <pt x="550" y="1330" on="1"/>
        <pt x="400" y="1330" on="0"/>
        <pt x="400" y="1160" on="1"/>
      </contour>
    </TTGlyph>
    <TTGlyph name="AE" xMin="200" yMin="-40" xMax="1917" yMax="1510">
      <contour>
        <pt x="1010" y="0" on="1"/>
        <pt x="1010" y="664" on="1"/>
        <pt x="400" y="664" on="1"/>
        <pt x="400" y="50" on="1"/>
        <pt x="210" y="-40" on="1"/>
        <pt x="200" y="-40" on="1"/>
        <pt x="200" y="1160" on="1"/>
        <pt x="200" y="1510" on="0"/>
        <pt x="550" y="1510" on="1"/>
        <pt x="860" y="1510" on="1"/>
        <pt x="987" y="1510" on="0"/>
        <pt x="1042" y="1454" on="1"/>
        <pt x="1116" y="1510" on="1"/>
        <pt x="1750" y="1510" on="1"/>
        <pt x="1750" y="1500" on="1"/>
        <pt x="1669" y="1328" on="1"/>
        <pt x="1210" y="1328" on="1"/>
        <pt x="1210" y="846" on="1"/>
        <pt x="1750" y="846" on="1"/>
        <pt x="1750" y="836" on="1"/>
        <pt x="1669" y="664" on="1"/>
        <pt x="1210" y="664" on="1"/>
        <pt x="1210" y="182" on="1"/>
        <pt x="1917" y="182" on="1"/>
        <pt x="1917" y="172" on="1"/>
        <pt x="1836" y="0" on="1"/>
      </contour>
      <contour>
        <pt x="400" y="846" on="1"/>
        <pt x="1010" y="846" on="1"/>
        <pt x="1010" y="1160" on="1"/>
        <pt x="1010" y="1330" on="0"/>
        <pt x="860" y="1330" on="1"/>
        <pt x="550" y="1330" on="1"/>
        <pt x="400" y="1330" on="0"/>
        <pt x="400" y="1160" on="1"/>
      </contour>
    </TTGlyph>
    <TTGlyph name="AEacute" xMin="200" yMin="-40" xMax="1917" yMax="1966">
      <contour>
        <pt x="1010" y="0" on="1"/>
        <pt x="1010" y="664" on="1"/>
        <pt x="400" y="664" on="1"/>
        <pt x="400" y="50" on="1"/>
        <pt x="210" y="-40" on="1"/>
        <pt x="200" y="-40" on="1"/>
        <pt x="200" y="1160" on="1"/>
        <pt x="200" y="1510" on="0"/>
        <pt x="550" y="1510" on="1"/>
        <pt x="860" y="1510" on="1"/>
        <pt x="987" y="1510" on="0"/>
        <pt x="1042" y="1454" on="1"/>
        <pt x="1116" y="1510" on="1"/>
        <pt x="1750" y="1510" on="1"/>
        <pt x="1750" y="1500" on="1"/>
        <pt x="1669" y="1328" on="1"/>
        <pt x="1210" y="1328" on="1"/>
        <pt x="1210" y="846" on="1"/>
        <pt x="1750" y="846" on="1"/>
        <pt x="1750" y="836" on="1"/>
        <pt x="1669" y="664" on="1"/>
        <pt x="1210" y="664" on="1"/>
        <pt x="1210" y="182" on="1"/>
        <pt x="1917" y="182" on="1"/>
        <pt x="1917" y="172" on="1"/>
        <pt x="1836" y="0" on="1"/>
      </contour>
      <contour>
        <pt x="400" y="846" on="1"/>
        <pt x="1010" y="846" on="1"/>
        <pt x="1010" y="1160" on="1"/>
        <pt x="1010" y="1330" on="0"/>
        <pt x="860" y="1330" on="1"/>
        <pt x="550" y="1330" on="1"/>
        <pt x="400" y="1330" on="0"/>
        <pt x="400" y="1160" on="1"/>
      </contour>
      <contour>
        <pt x="1075" y="1966" on="1"/>
        <pt x="1085" y="1966" on="1"/>
        <pt x="1261" y="1882" on="1"/>
        <pt x="1040" y="1566" on="1"/>
        <pt x="1030" y="1566" on="1"/>
        <pt x="913" y="1621" on="1"/>
      </contour>
    </TTGlyph>
    <TTGlyph name="Aacute" xMin="200" yMin="-40" xMax="1210" yMax="1966">
      <contour>
        <pt x="200" y="-40" on="1"/>
        <pt x="200" y="1160" on="1"/>
        <pt x="200" y="1510" on="0"/>
        <pt x="550" y="1510" on="1"/>
        <pt x="860" y="1510" on="1"/>
        <pt x="1210" y="1510" on="0"/>
        <pt x="1210" y="1160" on="1"/>
        <pt x="1210" y="50" on="1"/>
        <pt x="1020" y="-40" on="1"/>
        <pt x="1010" y="-40" on="1"/>
        <pt x="1010" y="664" on="1"/>
        <pt x="400" y="664" on="1"/>
        <pt x="400" y="50" on="1"/>
        <pt x="210" y="-40" on="1"/>
      </contour>
      <contour>
        <pt x="400" y="846" on="1"/>
        <pt x="1010" y="846" on="1"/>
        <pt x="1010" y="1160" on="1"/>
        <pt x="1010" y="1330" on="0"/>
        <pt x="860" y="1330" on="1"/>
        <pt x="550" y="1330" on="1"/>
        <pt x="400" y="1330" on="0"/>
        <pt x="400" y="1160" on="1"/>
      </contour>
      <contour>
        <pt x="817" y="1966" on="1"/>
        <pt x="827" y="1966" on="1"/>
        <pt x="1003" y="1882" on="1"/>
        <pt x="782" y="1566" on="1"/>
        <pt x="772" y="1566" on="1"/>
        <pt x="655" y="1621" on="1"/>
      </contour>
    </TTGlyph>
    <TTGlyph name="Abreve" xMin="200" yMin="-40" xMax="1210" yMax="1947">
      <contour>
        <pt x="200" y="-40" on="1"/>
        <pt x="200" y="1160" on="1"/>
        <pt x="200" y="1510" on="0"/>
        <pt x="550" y="1510" on="1"/>
        <pt x="860" y="1510" on="1"/>
        <pt x="1210" y="1510" on="0"/>
        <pt x="1210" y="1160" on="1"/>
        <pt x="1210" y="50" on="1"/>
        <pt x="1020" y="-40" on="1"/>
        <pt x="1010" y="-40" on="1"/>
        <pt x="1010" y="664" on="1"/>
        <pt x="400" y="664" on="1"/>
        <pt x="400" y="50" on="1"/>
        <pt x="210" y="-40" on="1"/>
      </contour>
      <contour>
        <pt x="400" y="846" on="1"/>
        <pt x="1010" y="846" on="1"/>
        <pt x="1010" y="1160" on="1"/>
        <pt x="1010" y="1330" on="0"/>
        <pt x="860" y="1330" on="1"/>
        <pt x="550" y="1330" on="1"/>
        <pt x="400" y="1330" on="0"/>
        <pt x="400" y="1160" on="1"/>
      </contour>
      <contour>
        <pt x="468" y="1788" on="1"/>
        <pt x="468" y="1798" on="1"/>
        <pt x="542" y="1947" on="1"/>
        <pt x="614" y="1813" on="0"/>
        <pt x="814" y="1813" on="0"/>
        <pt x="886" y="1947" on="1"/>
        <pt x="962" y="1798" on="1"/>
        <pt x="962" y="1788" on="1"/>
        <pt x="860" y="1638" on="0"/>
        <pt x="712" y="1638" on="1"/>
        <pt x="558" y="1638" on="0"/>
      </contour>
    </TTGlyph>
    <TTGlyph name="Acircumflex" xMin="200" yMin="-40" xMax="1210" yMax="1966">
      <contour>
        <pt x="200" y="-40" on="1"/>
        <pt x="200" y="1160" on="1"/>
        <pt x="200" y="1510" on="0"/>
        <pt x="550" y="1510" on="1"/>
        <pt x="860" y="1510" on="1"/>
        <pt x="1210" y="1510" on="0"/>
        <pt x="1210" y="1160" on="1"/>
        <pt x="1210" y="50" on="1"/>
        <pt x="1020" y="-40" on="1"/>
        <pt x="1010" y="-40" on="1"/>
        <pt x="1010" y="664" on="1"/>
        <pt x="400" y="664" on="1"/>
        <pt x="400" y="50" on="1"/>
        <pt x="210" y="-40" on="1"/>
      </contour>
      <contour>
        <pt x="400" y="846" on="1"/>
        <pt x="1010" y="846" on="1"/>
        <pt x="1010" y="1160" on="1"/>
        <pt x="1010" y="1330" on="0"/>
        <pt x="860" y="1330" on="1"/>
        <pt x="550" y="1330" on="1"/>
        <pt x="400" y="1330" on="0"/>
        <pt x="400" y="1160" on="1"/>
      </contour>
      <contour>
        <pt x="434" y="1621" on="1"/>
        <pt x="587" y="1882" on="1"/>
        <pt x="763" y="1966" on="1"/>
        <pt x="773" y="1966" on="1"/>
        <pt x="986" y="1621" on="1"/>
        <pt x="870" y="1566" on="1"/>
        <pt x="860" y="1566" on="1"/>
        <pt x="710" y="1774" on="1"/>
        <pt x="562" y="1566" on="1"/>
        <pt x="552" y="1566" on="1"/>
      </contour>
    </TTGlyph>
    <TTGlyph name="Adieresis" xMin="200" yMin="-40" xMax="1210" yMax="1925">
      <contour>
        <pt x="200" y="-40" on="1"/>
        <pt x="200" y="1160" on="1"/>
        <pt x="200" y="1510" on="0"/>
        <pt x="550" y="1510" on="1"/>
        <pt x="860" y="1510" on="1"/>
        <pt x="1210" y="1510" on="0"/>
        <pt x="1210" y="1160" on="1"/>
        <pt x="1210" y="50" on="1"/>
        <pt x="1020" y="-40" on="1"/>
        <pt x="1010" y="-40" on="1"/>
        <pt x="1010" y="664" on="1"/>
        <pt x="400" y="664" on="1"/>
        <pt x="400" y="50" on="1"/>
        <pt x="210" y="-40" on="1"/>
      </contour>
      <contour>
        <pt x="400" y="846" on="1"/>
        <pt x="1010" y="846" on="1"/>
        <pt x="1010" y="1160" on="1"/>
        <pt x="1010" y="1330" on="0"/>
        <pt x="860" y="1330" on="1"/>
        <pt x="550" y="1330" on="1"/>
        <pt x="400" y="1330" on="0"/>
        <pt x="400" y="1160" on="1"/>
      </contour>
      <contour>
        <pt x="742" y="1752" on="0"/>
        <pt x="742" y="1853" on="0"/>
        <pt x="812" y="1925" on="0"/>
        <pt x="912" y="1925" on="0"/>
        <pt x="982" y="1853" on="0"/>
        <pt x="982" y="1752" on="0"/>
        <pt x="912" y="1680" on="0"/>
        <pt x="812" y="1680" on="0"/>
      </contour>
      <contour>
        <pt x="442" y="1752" on="0"/>
        <pt x="442" y="1853" on="0"/>
        <pt x="512" y="1925" on="0"/>
        <pt x="612" y="1925" on="0"/>
        <pt x="682" y="1853" on="0"/>
        <pt x="682" y="1752" on="0"/>
        <pt x="612" y="1680" on="0"/>
        <pt x="512" y="1680" on="0"/>
      </contour>
    </TTGlyph>
    <TTGlyph name="Agrave" xMin="200" yMin="-40" xMax="1210" yMax="1966">
      <contour>
        <pt x="200" y="-40" on="1"/>
        <pt x="200" y="1160" on="1"/>
        <pt x="200" y="1510" on="0"/>
        <pt x="550" y="1510" on="1"/>
        <pt x="860" y="1510" on="1"/>
        <pt x="1210" y="1510" on="0"/>
        <pt x="1210" y="1160" on="1"/>
        <pt x="1210" y="50" on="1"/>
        <pt x="1020" y="-40" on="1"/>
        <pt x="1010" y="-40" on="1"/>
        <pt x="1010" y="664" on="1"/>
        <pt x="400" y="664" on="1"/>
        <pt x="400" y="50" on="1"/>
        <pt x="210" y="-40" on="1"/>
      </contour>
      <contour>
        <pt x="400" y="846" on="1"/>
        <pt x="1010" y="846" on="1"/>
        <pt x="1010" y="1160" on="1"/>
        <pt x="1010" y="1330" on="0"/>
        <pt x="860" y="1330" on="1"/>
        <pt x="550" y="1330" on="1"/>
        <pt x="400" y="1330" on="0"/>
        <pt x="400" y="1160" on="1"/>
      </contour>
      <contour>
        <pt x="596" y="1966" on="1"/>
        <pt x="606" y="1966" on="1"/>
        <pt x="768" y="1621" on="1"/>
        <pt x="651" y="1566" on="1"/>
        <pt x="641" y="1566" on="1"/>
        <pt x="420" y="1882" on="1"/>
      </contour>
    </TTGlyph>
    <TTGlyph name="Amacron" xMin="200" yMin="-40" xMax="1210" yMax="1820">
      <contour>
        <pt x="200" y="-40" on="1"/>
        <pt x="200" y="1160" on="1"/>
        <pt x="200" y="1510" on="0"/>
        <pt x="550" y="1510" on="1"/>
        <pt x="860" y="1510" on="1"/>
        <pt x="1210" y="1510" on="0"/>
        <pt x="1210" y="1160" on="1"/>
        <pt x="1210" y="50" on="1"/>
        <pt x="1020" y="-40" on="1"/>
        <pt x="1010" y="-40" on="1"/>
        <pt x="1010" y="664" on="1"/>
        <pt x="400" y="664" on="1"/>
        <pt x="400" y="50" on="1"/>
        <pt x="210" y="-40" on="1"/>
      </contour>
      <contour>
        <pt x="400" y="846" on="1"/>
        <pt x="1010" y="846" on="1"/>
        <pt x="1010" y="1160" on="1"/>
        <pt x="1010" y="1330" on="0"/>
        <pt x="860" y="1330" on="1"/>
        <pt x="550" y="1330" on="1"/>
        <pt x="400" y="1330" on="0"/>
        <pt x="400" y="1160" on="1"/>
      </contour>
      <contour>
        <pt x="467" y="1638" on="1"/>
        <pt x="467" y="1648" on="1"/>
        <pt x="548" y="1820" on="1"/>
        <pt x="1006" y="1820" on="1"/>
        <pt x="1006" y="1810" on="1"/>
        <pt x="925" y="1638" on="1"/>
      </contour>
    </TTGlyph>
    <TTGlyph name="Aogonek" xMin="200" yMin="-450" xMax="1210" yMax="1510">
      <contour>
        <pt x="200" y="-40" on="1"/>
        <pt x="200" y="1160" on="1"/>
        <pt x="200" y="1510" on="0"/>
        <pt x="550" y="1510" on="1"/>
        <pt x="860" y="1510" on="1"/>
        <pt x="1210" y="1510" on="0"/>
        <pt x="1210" y="1160" on="1"/>
        <pt x="1210" y="50" on="1"/>
        <pt x="1031" y="-35" on="1"/>
        <pt x="996" y="-95" on="0"/>
        <pt x="996" y="-152" on="1"/>
        <pt x="996" y="-273" on="0"/>
        <pt x="1130" y="-360" on="1"/>
        <pt x="940" y="-450" on="1"/>
        <pt x="930" y="-450" on="1"/>
        <pt x="821" y="-343" on="0"/>
        <pt x="821" y="-206" on="1"/>
        <pt x="821" y="-38" on="0"/>
        <pt x="1010" y="82" on="1"/>
        <pt x="1010" y="664" on="1"/>
        <pt x="400" y="664" on="1"/>
        <pt x="400" y="50" on="1"/>
        <pt x="210" y="-40" on="1"/>
      </contour>
      <contour>
        <pt x="400" y="846" on="1"/>
        <pt x="1010" y="846" on="1"/>
        <pt x="1010" y="1160" on="1"/>
        <pt x="1010" y="1330" on="0"/>
        <pt x="860" y="1330" on="1"/>
        <pt x="550" y="1330" on="1"/>
        <pt x="400" y="1330" on="0"/>
        <pt x="400" y="1160" on="1"/>
      </contour>
    </TTGlyph>
    <TTGlyph name="Aring" xMin="200" yMin="-40" xMax="1210" yMax="1966">
      <contour>
        <pt x="200" y="-40" on="1"/>
        <pt x="200" y="1160" on="1"/>
        <pt x="200" y="1510" on="0"/>
        <pt x="550" y="1510" on="1"/>
        <pt x="860" y="1510" on="1"/>
        <pt x="1210" y="1510" on="0"/>
        <pt x="1210" y="1160" on="1"/>
        <pt x="1210" y="50" on="1"/>
        <pt x="1020" y="-40" on="1"/>
        <pt x="1010" y="-40" on="1"/>
        <pt x="1010" y="664" on="1"/>
        <pt x="400" y="664" on="1"/>
        <pt x="400" y="50" on="1"/>
        <pt x="210" y="-40" on="1"/>
      </contour>
      <contour>
        <pt x="400" y="846" on="1"/>
        <pt x="1010" y="846" on="1"/>
        <pt x="1010" y="1160" on="1"/>
        <pt x="1010" y="1330" on="0"/>
        <pt x="860" y="1330" on="1"/>
        <pt x="550" y="1330" on="1"/>
        <pt x="400" y="1330" on="0"/>
        <pt x="400" y="1160" on="1"/>
      </contour>
      <contour>
        <pt x="785" y="1588" on="0"/>
        <pt x="625" y="1588" on="0"/>
        <pt x="570" y="1637" on="1"/>
        <pt x="508" y="1692" on="0"/>
        <pt x="508" y="1777" on="1"/>
        <pt x="508" y="1860" on="0"/>
        <pt x="570" y="1917" on="1"/>
        <pt x="623" y="1966" on="0"/>
        <pt x="705" y="1966" on="1"/>
        <pt x="785" y="1966" on="0"/>
        <pt x="840" y="1917" on="1"/>
        <pt x="902" y="1862" on="0"/>
        <pt x="902" y="1692" on="0"/>
        <pt x="840" y="1637" on="1"/>
      </contour>
      <contour>
        <pt x="705" y="1862" on="1"/>
        <pt x="671" y="1862" on="0"/>
        <pt x="631" y="1820" on="0"/>
        <pt x="631" y="1777" on="1"/>
        <pt x="631" y="1731" on="0"/>
        <pt x="652" y="1712" on="1"/>
        <pt x="674" y="1692" on="0"/>
        <pt x="704" y="1692" on="1"/>
        <pt x="735" y="1692" on="0"/>
        <pt x="757" y="1714" on="1"/>
        <pt x="777" y="1733" on="0"/>
        <pt x="777" y="1777" on="1"/>
        <pt x="777" y="1822" on="0"/>
        <pt x="755" y="1843" on="1"/>
        <pt x="735" y="1862" on="0"/>
      </contour>
    </TTGlyph>
    <TTGlyph name="Atilde" xMin="200" yMin="-40" xMax="1210" yMax="1924">
      <contour>
        <pt x="200" y="-40" on="1"/>
        <pt x="200" y="1160" on="1"/>
        <pt x="200" y="1510" on="0"/>
        <pt x="550" y="1510" on="1"/>
        <pt x="860" y="1510" on="1"/>
        <pt x="1210" y="1510" on="0"/>
        <pt x="1210" y="1160" on="1"/>
        <pt x="1210" y="50" on="1"/>
        <pt x="1020" y="-40" on="1"/>
        <pt x="1010" y="-40" on="1"/>
        <pt x="1010" y="664" on="1"/>
        <pt x="400" y="664" on="1"/>
        <pt x="400" y="50" on="1"/>
        <pt x="210" y="-40" on="1"/>
      </contour>
      <contour>
        <pt x="400" y="846" on="1"/>
        <pt x="1010" y="846" on="1"/>
        <pt x="1010" y="1160" on="1"/>
        <pt x="1010" y="1330" on="0"/>
        <pt x="860" y="1330" on="1"/>
        <pt x="550" y="1330" on="1"/>
        <pt x="400" y="1330" on="0"/>
        <pt x="400" y="1160" on="1"/>
      </contour>
      <contour>
        <pt x="471" y="1638" on="1"/>
        <pt x="471" y="1924" on="0"/>
        <pt x="612" y="1924" on="1"/>
        <pt x="676" y="1924" on="0"/>
        <pt x="749" y="1854" on="1"/>
        <pt x="800" y="1805" on="0"/>
        <pt x="824" y="1805" on="1"/>
        <pt x="858" y="1805" on="0"/>
        <pt x="858" y="1877" on="1"/>
        <pt x="968" y="1924" on="1"/>
        <pt x="974" y="1924" on="1"/>
        <pt x="974" y="1638" on="0"/>
        <pt x="833" y="1638" on="1"/>
        <pt x="769" y="1638" on="0"/>
        <pt x="696" y="1708" on="1"/>
        <pt x="645" y="1757" on="0"/>
        <pt x="621" y="1757" on="1"/>
        <pt x="587" y="1757" on="0"/>
        <pt x="587" y="1685" on="1"/>
        <pt x="477" y="1638" on="1"/>
      </contour>
    </TTGlyph>
    <TTGlyph name="B" xMin="200" yMin="0" xMax="1190" yMax="1510">
      <contour>
        <pt x="200" y="0" on="1"/>
        <pt x="200" y="1460" on="1"/>
        <pt x="306" y="1510" on="1"/>
        <pt x="800" y="1510" on="1"/>
        <pt x="1100" y="1510" on="0"/>
        <pt x="1100" y="1210" on="1"/>
        <pt x="1100" y="1046" on="1"/>
        <pt x="1100" y="936" on="0"/>
        <pt x="1042" y="871" on="1"/>
        <pt x="1190" y="787" on="0"/>
        <pt x="1190" y="576" on="1"/>
        <pt x="1190" y="350" on="1"/>
        <pt x="1190" y="0" on="0"/>
        <pt x="840" y="0" on="1"/>
      </contour>
      <contour>
        <pt x="400" y="180" on="1"/>
        <pt x="840" y="180" on="1"/>
        <pt x="990" y="180" on="0"/>
        <pt x="990" y="350" on="1"/>
        <pt x="990" y="576" on="1"/>
        <pt x="990" y="746" on="0"/>
        <pt x="840" y="746" on="1"/>
        <pt x="400" y="746" on="1"/>
      </contour>
      <contour>
        <pt x="400" y="926" on="1"/>
        <pt x="800" y="926" on="1"/>
        <pt x="900" y="926" on="0"/>
        <pt x="900" y="1046" on="1"/>
        <pt x="900" y="1210" on="1"/>
        <pt x="900" y="1330" on="0"/>
        <pt x="800" y="1330" on="1"/>
        <pt x="400" y="1330" on="1"/>
      </contour>
    </TTGlyph>
    <TTGlyph name="C" xMin="200" yMin="0" xMax="1210" yMax="1510">
      <contour>
        <pt x="550" y="0" on="1"/>
        <pt x="200" y="0" on="0"/>
        <pt x="200" y="350" on="1"/>
        <pt x="200" y="1160" on="1"/>
        <pt x="200" y="1510" on="0"/>
        <pt x="550" y="1510" on="1"/>
        <pt x="860" y="1510" on="1"/>
        <pt x="1210" y="1510" on="0"/>
        <pt x="1210" y="1160" on="1"/>
        <pt x="1210" y="1050" on="1"/>
        <pt x="1020" y="960" on="1"/>
        <pt x="1010" y="960" on="1"/>
        <pt x="1010" y="1160" on="1"/>
        <pt x="1010" y="1330" on="0"/>
        <pt x="860" y="1330" on="1"/>
        <pt x="550" y="1330" on="1"/>
        <pt x="400" y="1330" on="0"/>
        <pt x="400" y="1160" on="1"/>
        <pt x="400" y="350" on="1"/>
        <pt x="400" y="180" on="0"/>
        <pt x="550" y="180" on="1"/>
        <pt x="860" y="180" on="1"/>
        <pt x="1010" y="180" on="0"/>
        <pt x="1010" y="350" on="1"/>
        <pt x="1010" y="460" on="1"/>
        <pt x="1200" y="550" on="1"/>
        <pt x="1210" y="550" on="1"/>
        <pt x="1210" y="350" on="1"/>
        <pt x="1210" y="0" on="0"/>
        <pt x="860" y="0" on="1"/>
      </contour>
    </TTGlyph>
    <TTGlyph name="Cacute" xMin="200" yMin="0" xMax="1210" yMax="1966">
      <contour>
        <pt x="550" y="0" on="1"/>
        <pt x="200" y="0" on="0"/>
        <pt x="200" y="350" on="1"/>
        <pt x="200" y="1160" on="1"/>
        <pt x="200" y="1510" on="0"/>
        <pt x="550" y="1510" on="1"/>
        <pt x="860" y="1510" on="1"/>
        <pt x="1210" y="1510" on="0"/>
        <pt x="1210" y="1160" on="1"/>
        <pt x="1210" y="1050" on="1"/>
        <pt x="1020" y="960" on="1"/>
        <pt x="1010" y="960" on="1"/>
        <pt x="1010" y="1160" on="1"/>
        <pt x="1010" y="1330" on="0"/>
        <pt x="860" y="1330" on="1"/>
        <pt x="550" y="1330" on="1"/>
        <pt x="400" y="1330" on="0"/>
        <pt x="400" y="1160" on="1"/>
        <pt x="400" y="350" on="1"/>
        <pt x="400" y="180" on="0"/>
        <pt x="550" y="180" on="1"/>
        <pt x="860" y="180" on="1"/>
        <pt x="1010" y="180" on="0"/>
        <pt x="1010" y="350" on="1"/>
        <pt x="1010" y="460" on="1"/>
        <pt x="1200" y="550" on="1"/>
        <pt x="1210" y="550" on="1"/>
        <pt x="1210" y="350" on="1"/>
        <pt x="1210" y="0" on="0"/>
        <pt x="860" y="0" on="1"/>
      </contour>
      <contour>
        <pt x="817" y="1966" on="1"/>
        <pt x="827" y="1966" on="1"/>
        <pt x="1003" y="1882" on="1"/>
        <pt x="782" y="1566" on="1"/>
        <pt x="772" y="1566" on="1"/>
        <pt x="655" y="1621" on="1"/>
      </contour>
    </TTGlyph>
    <TTGlyph name="Ccaron" xMin="200" yMin="0" xMax="1210" yMax="1966">
      <contour>
        <pt x="550" y="0" on="1"/>
        <pt x="200" y="0" on="0"/>
        <pt x="200" y="350" on="1"/>
        <pt x="200" y="1160" on="1"/>
        <pt x="200" y="1510" on="0"/>
        <pt x="550" y="1510" on="1"/>
        <pt x="860" y="1510" on="1"/>
        <pt x="1210" y="1510" on="0"/>
        <pt x="1210" y="1160" on="1"/>
        <pt x="1210" y="1050" on="1"/>
        <pt x="1020" y="960" on="1"/>
        <pt x="1010" y="960" on="1"/>
        <pt x="1010" y="1160" on="1"/>
        <pt x="1010" y="1330" on="0"/>
        <pt x="860" y="1330" on="1"/>
        <pt x="550" y="1330" on="1"/>
        <pt x="400" y="1330" on="0"/>
        <pt x="400" y="1160" on="1"/>
        <pt x="400" y="350" on="1"/>
        <pt x="400" y="180" on="0"/>
        <pt x="550" y="180" on="1"/>
        <pt x="860" y="180" on="1"/>
        <pt x="1010" y="180" on="0"/>
        <pt x="1010" y="350" on="1"/>
        <pt x="1010" y="460" on="1"/>
        <pt x="1200" y="550" on="1"/>
        <pt x="1210" y="550" on="1"/>
        <pt x="1210" y="350" on="1"/>
        <pt x="1210" y="0" on="0"/>
        <pt x="860" y="0" on="1"/>
      </contour>
      <contour>
        <pt x="647" y="1566" on="1"/>
        <pt x="434" y="1911" on="1"/>
        <pt x="550" y="1966" on="1"/>
        <pt x="560" y="1966" on="1"/>
        <pt x="710" y="1758" on="1"/>
        <pt x="858" y="1966" on="1"/>
        <pt x="868" y="1966" on="1"/>
        <pt x="986" y="1911" on="1"/>
        <pt x="833" y="1650" on="1"/>
        <pt x="657" y="1566" on="1"/>
      </contour>
    </TTGlyph>
    <TTGlyph name="Ccedilla" xMin="200" yMin="-450" xMax="1210" yMax="1510">
      <contour>
        <pt x="550" y="0" on="1"/>
        <pt x="200" y="0" on="0"/>
        <pt x="200" y="350" on="1"/>
        <pt x="200" y="1160" on="1"/>
        <pt x="200" y="1510" on="0"/>
        <pt x="550" y="1510" on="1"/>
        <pt x="860" y="1510" on="1"/>
        <pt x="1210" y="1510" on="0"/>
        <pt x="1210" y="1160" on="1"/>
        <pt x="1210" y="1050" on="1"/>
        <pt x="1020" y="960" on="1"/>
        <pt x="1010" y="960" on="1"/>
        <pt x="1010" y="1160" on="1"/>
        <pt x="1010" y="1330" on="0"/>
        <pt x="860" y="1330" on="1"/>
        <pt x="550" y="1330" on="1"/>
        <pt x="400" y="1330" on="0"/>
        <pt x="400" y="1160" on="1"/>
        <pt x="400" y="350" on="1"/>
        <pt x="400" y="180" on="0"/>
        <pt x="550" y="180" on="1"/>
        <pt x="860" y="180" on="1"/>
        <pt x="1010" y="180" on="0"/>
        <pt x="1010" y="350" on="1"/>
        <pt x="1010" y="460" on="1"/>
        <pt x="1200" y="550" on="1"/>
        <pt x="1210" y="550" on="1"/>
        <pt x="1210" y="350" on="1"/>
        <pt x="1210" y="0" on="0"/>
        <pt x="860" y="0" on="1"/>
        <pt x="770" y="0" on="1"/>
        <pt x="849" y="-85" on="0"/>
        <pt x="849" y="-206" on="1"/>
        <pt x="849" y="-343" on="0"/>
        <pt x="740" y="-450" on="1"/>
        <pt x="730" y="-450" on="1"/>
        <pt x="540" y="-360" on="1"/>
        <pt x="674" y="-273" on="0"/>
        <pt x="674" y="-152" on="1"/>
        <pt x="674" y="-83" on="0"/>
        <pt x="621" y="0" on="1"/>
      </contour>
    </TTGlyph>
    <TTGlyph name="Ccircumflex" xMin="200" yMin="0" xMax="1210" yMax="1966">
      <contour>
        <pt x="550" y="0" on="1"/>
        <pt x="200" y="0" on="0"/>
        <pt x="200" y="350" on="1"/>
        <pt x="200" y="1160" on="1"/>
        <pt x="200" y="1510" on="0"/>
        <pt x="550" y="1510" on="1"/>
        <pt x="860" y="1510" on="1"/>
        <pt x="1210" y="1510" on="0"/>
        <pt x="1210" y="1160" on="1"/>
        <pt x="1210" y="1050" on="1"/>
        <pt x="1020" y="960" on="1"/>
        <pt x="1010" y="960" on="1"/>
        <pt x="1010" y="1160" on="1"/>
        <pt x="1010" y="1330" on="0"/>
        <pt x="860" y="1330" on="1"/>
        <pt x="550" y="1330" on="1"/>
        <pt x="400" y="1330" on="0"/>
        <pt x="400" y="1160" on="1"/>
        <pt x="400" y="350" on="1"/>
        <pt x="400" y="180" on="0"/>
        <pt x="550" y="180" on="1"/>
        <pt x="860" y="180" on="1"/>
        <pt x="1010" y="180" on="0"/>
        <pt x="1010" y="350" on="1"/>
        <pt x="1010" y="460" on="1"/>
        <pt x="1200" y="550" on="1"/>
        <pt x="1210" y="550" on="1"/>
        <pt x="1210" y="350" on="1"/>
        <pt x="1210" y="0" on="0"/>
        <pt x="860" y="0" on="1"/>
      </contour>
      <contour>
        <pt x="434" y="1621" on="1"/>
        <pt x="587" y="1882" on="1"/>
        <pt x="763" y="1966" on="1"/>
        <pt x="773" y="1966" on="1"/>
        <pt x="986" y="1621" on="1"/>
        <pt x="870" y="1566" on="1"/>
        <pt x="860" y="1566" on="1"/>
        <pt x="710" y="1774" on="1"/>
        <pt x="562" y="1566" on="1"/>
        <pt x="552" y="1566" on="1"/>
      </contour>
    </TTGlyph>
    <TTGlyph name="Cdotaccent" xMin="200" yMin="0" xMax="1210" yMax="1925">
      <contour>
        <pt x="550" y="0" on="1"/>
        <pt x="200" y="0" on="0"/>
        <pt x="200" y="350" on="1"/>
        <pt x="200" y="1160" on="1"/>
        <pt x="200" y="1510" on="0"/>
        <pt x="550" y="1510" on="1"/>
        <pt x="860" y="1510" on="1"/>
        <pt x="1210" y="1510" on="0"/>
        <pt x="1210" y="1160" on="1"/>
        <pt x="1210" y="1050" on="1"/>
        <pt x="1020" y="960" on="1"/>
        <pt x="1010" y="960" on="1"/>
        <pt x="1010" y="1160" on="1"/>
        <pt x="1010" y="1330" on="0"/>
        <pt x="860" y="1330" on="1"/>
        <pt x="550" y="1330" on="1"/>
        <pt x="400" y="1330" on="0"/>
        <pt x="400" y="1160" on="1"/>
        <pt x="400" y="350" on="1"/>
        <pt x="400" y="180" on="0"/>
        <pt x="550" y="180" on="1"/>
        <pt x="860" y="180" on="1"/>
        <pt x="1010" y="180" on="0"/>
        <pt x="1010" y="350" on="1"/>
        <pt x="1010" y="460" on="1"/>
        <pt x="1200" y="550" on="1"/>
        <pt x="1210" y="550" on="1"/>
        <pt x="1210" y="350" on="1"/>
        <pt x="1210" y="0" on="0"/>
        <pt x="860" y="0" on="1"/>
      </contour>
      <contour>
        <pt x="585" y="1752" on="0"/>
        <pt x="585" y="1853" on="0"/>
        <pt x="655" y="1925" on="0"/>
        <pt x="755" y="1925" on="0"/>
        <pt x="825" y="1853" on="0"/>
        <pt x="825" y="1752" on="0"/>
        <pt x="755" y="1680" on="0"/>
        <pt x="655" y="1680" on="0"/>
      </contour>
    </TTGlyph>
    <TTGlyph name="D" xMin="200" yMin="0" xMax="1190" yMax="1510">
      <contour>
        <pt x="400" y="180" on="1"/>
        <pt x="840" y="180" on="1"/>
        <pt x="990" y="180" on="0"/>
        <pt x="990" y="350" on="1"/>
        <pt x="990" y="1160" on="1"/>
        <pt x="990" y="1330" on="0"/>
        <pt x="840" y="1330" on="1"/>
        <pt x="400" y="1330" on="1"/>
      </contour>
      <contour>
        <pt x="200" y="0" on="1"/>
        <pt x="200" y="1460" on="1"/>
        <pt x="306" y="1510" on="1"/>
        <pt x="840" y="1510" on="1"/>
        <pt x="1190" y="1510" on="0"/>
        <pt x="1190" y="1160" on="1"/>
        <pt x="1190" y="350" on="1"/>
        <pt x="1190" y="0" on="0"/>
        <pt x="840" y="0" on="1"/>
      </contour>
    </TTGlyph>
    <TTGlyph name="Dcaron" xMin="200" yMin="0" xMax="1190" yMax="1966">
      <contour>
        <pt x="400" y="180" on="1"/>
        <pt x="840" y="180" on="1"/>
        <pt x="990" y="180" on="0"/>
        <pt x="990" y="350" on="1"/>
        <pt x="990" y="1160" on="1"/>
        <pt x="990" y="1330" on="0"/>
        <pt x="840" y="1330" on="1"/>
        <pt x="400" y="1330" on="1"/>
      </contour>
      <contour>
        <pt x="200" y="0" on="1"/>
        <pt x="200" y="1460" on="1"/>
        <pt x="306" y="1510" on="1"/>
        <pt x="840" y="1510" on="1"/>
        <pt x="1190" y="1510" on="0"/>
        <pt x="1190" y="1160" on="1"/>
        <pt x="1190" y="350" on="1"/>
        <pt x="1190" y="0" on="0"/>
        <pt x="840" y="0" on="1"/>
      </contour>
      <contour>
        <pt x="578" y="1566" on="1"/>
        <pt x="365" y="1911" on="1"/>
        <pt x="481" y="1966" on="1"/>
        <pt x="491" y="1966" on="1"/>
        <pt x="641" y="1758" on="1"/>
        <pt x="789" y="1966" on="1"/>
        <pt x="799" y="1966" on="1"/>
        <pt x="917" y="1911" on="1"/>
        <pt x="764" y="1650" on="1"/>
        <pt x="588" y="1566" on="1"/>
      </contour>
    </TTGlyph>
    <TTGlyph name="Dcroat" xMin="50" yMin="0" xMax="1190" yMax="1510">
      <contour>
        <pt x="200" y="0" on="1"/>
        <pt x="200" y="664" on="1"/>
        <pt x="50" y="664" on="1"/>
        <pt x="50" y="674" on="1"/>
        <pt x="131" y="846" on="1"/>
        <pt x="200" y="846" on="1"/>
        <pt x="200" y="1460" on="1"/>
        <pt x="306" y="1510" on="1"/>
        <pt x="840" y="1510" on="1"/>
        <pt x="1190" y="1510" on="0"/>
        <pt x="1190" y="1160" on="1"/>
        <pt x="1190" y="350" on="1"/>
        <pt x="1190" y="0" on="0"/>
        <pt x="840" y="0" on="1"/>
      </contour>
      <contour>
        <pt x="400" y="180" on="1"/>
        <pt x="840" y="180" on="1"/>
        <pt x="990" y="180" on="0"/>
        <pt x="990" y="350" on="1"/>
        <pt x="990" y="1160" on="1"/>
        <pt x="990" y="1330" on="0"/>
        <pt x="840" y="1330" on="1"/>
        <pt x="400" y="1330" on="1"/>
        <pt x="400" y="846" on="1"/>
        <pt x="815" y="846" on="1"/>
        <pt x="815" y="836" on="1"/>
        <pt x="734" y="664" on="1"/>
        <pt x="400" y="664" on="1"/>
      </contour>
    </TTGlyph>
    <TTGlyph name="Delta" xMin="5" yMin="0" xMax="1186" yMax="1550">
      <contour>
        <pt x="5" y="0" on="1"/>
        <pt x="493" y="1468" on="1"/>
        <pt x="666" y="1550" on="1"/>
        <pt x="676" y="1550" on="1"/>
        <pt x="1186" y="0" on="1"/>
      </contour>
      <contour>
        <pt x="275" y="182" on="1"/>
        <pt x="916" y="182" on="1"/>
        <pt x="598" y="1215" on="1"/>
      </contour>
    </TTGlyph>
    <TTGlyph name="E" xMin="200" yMin="0" xMax="1107" yMax="1510">
      <contour>
        <pt x="200" y="0" on="1"/>
        <pt x="200" y="1460" on="1"/>
        <pt x="306" y="1510" on="1"/>
        <pt x="940" y="1510" on="1"/>
        <pt x="940" y="1500" on="1"/>
        <pt x="859" y="1328" on="1"/>
        <pt x="400" y="1328" on="1"/>
        <pt x="400" y="846" on="1"/>
        <pt x="940" y="846" on="1"/>
        <pt x="940" y="836" on="1"/>
        <pt x="859" y="664" on="1"/>
        <pt x="400" y="664" on="1"/>
        <pt x="400" y="182" on="1"/>
        <pt x="1107" y="182" on="1"/>
        <pt x="1107" y="172" on="1"/>
        <pt x="1026" y="0" on="1"/>
      </contour>
    </TTGlyph>
    <TTGlyph name="Eacute" xMin="200" yMin="0" xMax="1107" yMax="1966">
      <contour>
        <pt x="684" y="1966" on="1"/>
        <pt x="694" y="1966" on="1"/>
        <pt x="870" y="1882" on="1"/>
        <pt x="649" y="1566" on="1"/>
        <pt x="639" y="1566" on="1"/>
        <pt x="522" y="1621" on="1"/>
      </contour>
      <contour>
        <pt x="200" y="0" on="1"/>
        <pt x="200" y="1460" on="1"/>
        <pt x="306" y="1510" on="1"/>
        <pt x="940" y="1510" on="1"/>
        <pt x="940" y="1500" on="1"/>
        <pt x="859" y="1328" on="1"/>
        <pt x="400" y="1328" on="1"/>
        <pt x="400" y="846" on="1"/>
        <pt x="940" y="846" on="1"/>
        <pt x="940" y="836" on="1"/>
        <pt x="859" y="664" on="1"/>
        <pt x="400" y="664" on="1"/>
        <pt x="400" y="182" on="1"/>
        <pt x="1107" y="182" on="1"/>
        <pt x="1107" y="172" on="1"/>
        <pt x="1026" y="0" on="1"/>
      </contour>
    </TTGlyph>
    <TTGlyph name="Ebreve" xMin="200" yMin="0" xMax="1107" yMax="1947">
      <contour>
        <pt x="338" y="1788" on="1"/>
        <pt x="338" y="1798" on="1"/>
        <pt x="412" y="1947" on="1"/>
        <pt x="484" y="1813" on="0"/>
        <pt x="684" y="1813" on="0"/>
        <pt x="756" y="1947" on="1"/>
        <pt x="832" y="1798" on="1"/>
        <pt x="832" y="1788" on="1"/>
        <pt x="730" y="1638" on="0"/>
        <pt x="582" y="1638" on="1"/>
        <pt x="428" y="1638" on="0"/>
      </contour>
      <contour>
        <pt x="200" y="0" on="1"/>
        <pt x="200" y="1460" on="1"/>
        <pt x="306" y="1510" on="1"/>
        <pt x="940" y="1510" on="1"/>
        <pt x="940" y="1500" on="1"/>
        <pt x="859" y="1328" on="1"/>
        <pt x="400" y="1328" on="1"/>
        <pt x="400" y="846" on="1"/>
        <pt x="940" y="846" on="1"/>
        <pt x="940" y="836" on="1"/>
        <pt x="859" y="664" on="1"/>
        <pt x="400" y="664" on="1"/>
        <pt x="400" y="182" on="1"/>
        <pt x="1107" y="182" on="1"/>
        <pt x="1107" y="172" on="1"/>
        <pt x="1026" y="0" on="1"/>
      </contour>
    </TTGlyph>
    <TTGlyph name="Ecaron" xMin="200" yMin="0" xMax="1107" yMax="1966">
      <contour>
        <pt x="533" y="1566" on="1"/>
        <pt x="320" y="1911" on="1"/>
        <pt x="436" y="1966" on="1"/>
        <pt x="446" y="1966" on="1"/>
        <pt x="596" y="1758" on="1"/>
        <pt x="744" y="1966" on="1"/>
        <pt x="754" y="1966" on="1"/>
        <pt x="872" y="1911" on="1"/>
        <pt x="719" y="1650" on="1"/>
        <pt x="543" y="1566" on="1"/>
      </contour>
      <contour>
        <pt x="200" y="0" on="1"/>
        <pt x="200" y="1460" on="1"/>
        <pt x="306" y="1510" on="1"/>
        <pt x="940" y="1510" on="1"/>
        <pt x="940" y="1500" on="1"/>
        <pt x="859" y="1328" on="1"/>
        <pt x="400" y="1328" on="1"/>
        <pt x="400" y="846" on="1"/>
        <pt x="940" y="846" on="1"/>
        <pt x="940" y="836" on="1"/>
        <pt x="859" y="664" on="1"/>
        <pt x="400" y="664" on="1"/>
        <pt x="400" y="182" on="1"/>
        <pt x="1107" y="182" on="1"/>
        <pt x="1107" y="172" on="1"/>
        <pt x="1026" y="0" on="1"/>
      </contour>
    </TTGlyph>
    <TTGlyph name="Ecircumflex" xMin="200" yMin="0" xMax="1107" yMax="1966">
      <contour>
        <pt x="313" y="1621" on="1"/>
        <pt x="466" y="1882" on="1"/>
        <pt x="642" y="1966" on="1"/>
        <pt x="652" y="1966" on="1"/>
        <pt x="865" y="1621" on="1"/>
        <pt x="749" y="1566" on="1"/>
        <pt x="739" y="1566" on="1"/>
        <pt x="589" y="1774" on="1"/>
        <pt x="441" y="1566" on="1"/>
        <pt x="431" y="1566" on="1"/>
      </contour>
      <contour>
        <pt x="200" y="0" on="1"/>
        <pt x="200" y="1460" on="1"/>
        <pt x="306" y="1510" on="1"/>
        <pt x="940" y="1510" on="1"/>
        <pt x="940" y="1500" on="1"/>
        <pt x="859" y="1328" on="1"/>
        <pt x="400" y="1328" on="1"/>
        <pt x="400" y="846" on="1"/>
        <pt x="940" y="846" on="1"/>
        <pt x="940" y="836" on="1"/>
        <pt x="859" y="664" on="1"/>
        <pt x="400" y="664" on="1"/>
        <pt x="400" y="182" on="1"/>
        <pt x="1107" y="182" on="1"/>
        <pt x="1107" y="172" on="1"/>
        <pt x="1026" y="0" on="1"/>
      </contour>
    </TTGlyph>
    <TTGlyph name="Edieresis" xMin="200" yMin="0" xMax="1107" yMax="1925">
      <contour>
        <pt x="617" y="1752" on="0"/>
        <pt x="617" y="1853" on="0"/>
        <pt x="687" y="1925" on="0"/>
        <pt x="787" y="1925" on="0"/>
        <pt x="857" y="1853" on="0"/>
        <pt x="857" y="1752" on="0"/>
        <pt x="787" y="1680" on="0"/>
        <pt x="687" y="1680" on="0"/>
      </contour>
      <contour>
        <pt x="317" y="1752" on="0"/>
        <pt x="317" y="1853" on="0"/>
        <pt x="387" y="1925" on="0"/>
        <pt x="487" y="1925" on="0"/>
        <pt x="557" y="1853" on="0"/>
        <pt x="557" y="1752" on="0"/>
        <pt x="487" y="1680" on="0"/>
        <pt x="387" y="1680" on="0"/>
      </contour>
      <contour>
        <pt x="200" y="0" on="1"/>
        <pt x="200" y="1460" on="1"/>
        <pt x="306" y="1510" on="1"/>
        <pt x="940" y="1510" on="1"/>
        <pt x="940" y="1500" on="1"/>
        <pt x="859" y="1328" on="1"/>
        <pt x="400" y="1328" on="1"/>
        <pt x="400" y="846" on="1"/>
        <pt x="940" y="846" on="1"/>
        <pt x="940" y="836" on="1"/>
        <pt x="859" y="664" on="1"/>
        <pt x="400" y="664" on="1"/>
        <pt x="400" y="182" on="1"/>
        <pt x="1107" y="182" on="1"/>
        <pt x="1107" y="172" on="1"/>
        <pt x="1026" y="0" on="1"/>
      </contour>
    </TTGlyph>
    <TTGlyph name="Edotaccent" xMin="200" yMin="0" xMax="1107" yMax="1925">
      <contour>
        <pt x="466" y="1752" on="0"/>
        <pt x="466" y="1853" on="0"/>
        <pt x="536" y="1925" on="0"/>
        <pt x="636" y="1925" on="0"/>
        <pt x="706" y="1853" on="0"/>
        <pt x="706" y="1752" on="0"/>
        <pt x="636" y="1680" on="0"/>
        <pt x="536" y="1680" on="0"/>
      </contour>
      <contour>
        <pt x="200" y="0" on="1"/>
        <pt x="200" y="1460" on="1"/>
        <pt x="306" y="1510" on="1"/>
        <pt x="940" y="1510" on="1"/>
        <pt x="940" y="1500" on="1"/>
        <pt x="859" y="1328" on="1"/>
        <pt x="400" y="1328" on="1"/>
        <pt x="400" y="846" on="1"/>
        <pt x="940" y="846" on="1"/>
        <pt x="940" y="836" on="1"/>
        <pt x="859" y="664" on="1"/>
        <pt x="400" y="664" on="1"/>
        <pt x="400" y="182" on="1"/>
        <pt x="1107" y="182" on="1"/>
        <pt x="1107" y="172" on="1"/>
        <pt x="1026" y="0" on="1"/>
      </contour>
    </TTGlyph>
    <TTGlyph name="Egrave" xMin="200" yMin="0" xMax="1107" yMax="1966">
      <contour>
        <pt x="506" y="1966" on="1"/>
        <pt x="516" y="1966" on="1"/>
        <pt x="678" y="1621" on="1"/>
        <pt x="561" y="1566" on="1"/>
        <pt x="551" y="1566" on="1"/>
        <pt x="330" y="1882" on="1"/>
      </contour>
      <contour>
        <pt x="200" y="0" on="1"/>
        <pt x="200" y="1460" on="1"/>
        <pt x="306" y="1510" on="1"/>
        <pt x="940" y="1510" on="1"/>
        <pt x="940" y="1500" on="1"/>
        <pt x="859" y="1328" on="1"/>
        <pt x="400" y="1328" on="1"/>
        <pt x="400" y="846" on="1"/>
        <pt x="940" y="846" on="1"/>
        <pt x="940" y="836" on="1"/>
        <pt x="859" y="664" on="1"/>
        <pt x="400" y="664" on="1"/>
        <pt x="400" y="182" on="1"/>
        <pt x="1107" y="182" on="1"/>
        <pt x="1107" y="172" on="1"/>
        <pt x="1026" y="0" on="1"/>
      </contour>
    </TTGlyph>
    <TTGlyph name="Emacron" xMin="200" yMin="0" xMax="1107" yMax="1820">
      <contour>
        <pt x="346" y="1638" on="1"/>
        <pt x="346" y="1648" on="1"/>
        <pt x="427" y="1820" on="1"/>
        <pt x="885" y="1820" on="1"/>
        <pt x="885" y="1810" on="1"/>
        <pt x="804" y="1638" on="1"/>
      </contour>
      <contour>
        <pt x="200" y="0" on="1"/>
        <pt x="200" y="1460" on="1"/>
        <pt x="306" y="1510" on="1"/>
        <pt x="940" y="1510" on="1"/>
        <pt x="940" y="1500" on="1"/>
        <pt x="859" y="1328" on="1"/>
        <pt x="400" y="1328" on="1"/>
        <pt x="400" y="846" on="1"/>
        <pt x="940" y="846" on="1"/>
        <pt x="940" y="836" on="1"/>
        <pt x="859" y="664" on="1"/>
        <pt x="400" y="664" on="1"/>
        <pt x="400" y="182" on="1"/>
        <pt x="1107" y="182" on="1"/>
        <pt x="1107" y="172" on="1"/>
        <pt x="1026" y="0" on="1"/>
      </contour>
    </TTGlyph>
    <TTGlyph name="Eng" xMin="200" yMin="-410" xMax="1210" yMax="1510">
      <contour>
        <pt x="200" y="-40" on="1"/>
        <pt x="200" y="1160" on="1"/>
        <pt x="200" y="1510" on="0"/>
        <pt x="550" y="1510" on="1"/>
        <pt x="860" y="1510" on="1"/>
        <pt x="1210" y="1510" on="0"/>
        <pt x="1210" y="1160" on="1"/>
        <pt x="1210" y="-110" on="1"/>
        <pt x="1210" y="-410" on="0"/>
        <pt x="910" y="-410" on="1"/>
        <pt x="810" y="-410" on="1"/>
        <pt x="810" y="-400" on="1"/>
        <pt x="890" y="-230" on="1"/>
        <pt x="910" y="-230" on="1"/>
        <pt x="1010" y="-230" on="0"/>
        <pt x="1010" y="-110" on="1"/>
        <pt x="1010" y="1160" on="1"/>
        <pt x="1010" y="1330" on="0"/>
        <pt x="860" y="1330" on="1"/>
        <pt x="550" y="1330" on="1"/>
        <pt x="400" y="1330" on="0"/>
        <pt x="400" y="1160" on="1"/>
        <pt x="400" y="50" on="1"/>
        <pt x="210" y="-40" on="1"/>
      </contour>
    </TTGlyph>
    <TTGlyph name="Eogonek" xMin="200" yMin="-450" xMax="1107" yMax="1510">
      <contour>
        <pt x="200" y="0" on="1"/>
        <pt x="200" y="1460" on="1"/>
        <pt x="306" y="1510" on="1"/>
        <pt x="940" y="1510" on="1"/>
        <pt x="940" y="1500" on="1"/>
        <pt x="859" y="1328" on="1"/>
        <pt x="400" y="1328" on="1"/>
        <pt x="400" y="846" on="1"/>
        <pt x="940" y="846" on="1"/>
        <pt x="940" y="836" on="1"/>
        <pt x="859" y="664" on="1"/>
        <pt x="400" y="664" on="1"/>
        <pt x="400" y="182" on="1"/>
        <pt x="1107" y="182" on="1"/>
        <pt x="1107" y="172" on="1"/>
        <pt x="1026" y="0" on="1"/>
        <pt x="995" y="0" on="1"/>
        <pt x="937" y="-80" on="0"/>
        <pt x="937" y="-152" on="1"/>
        <pt x="937" y="-273" on="0"/>
        <pt x="1071" y="-360" on="1"/>
        <pt x="881" y="-450" on="1"/>
        <pt x="871" y="-450" on="1"/>
        <pt x="762" y="-343" on="0"/>
        <pt x="762" y="-206" on="1"/>
        <pt x="762" y="-92" on="0"/>
        <pt x="849" y="0" on="1"/>
      </contour>
    </TTGlyph>
    <TTGlyph name="Eth" xMin="50" yMin="0" xMax="1190" yMax="1510">
      <contour>
        <pt x="200" y="0" on="1"/>
        <pt x="200" y="664" on="1"/>
        <pt x="50" y="664" on="1"/>
        <pt x="50" y="674" on="1"/>
        <pt x="131" y="846" on="1"/>
        <pt x="200" y="846" on="1"/>
        <pt x="200" y="1460" on="1"/>
        <pt x="306" y="1510" on="1"/>
        <pt x="840" y="1510" on="1"/>
        <pt x="1190" y="1510" on="0"/>
        <pt x="1190" y="1160" on="1"/>
        <pt x="1190" y="350" on="1"/>
        <pt x="1190" y="0" on="0"/>
        <pt x="840" y="0" on="1"/>
      </contour>
      <contour>
        <pt x="400" y="180" on="1"/>
        <pt x="840" y="180" on="1"/>
        <pt x="990" y="180" on="0"/>
        <pt x="990" y="350" on="1"/>
        <pt x="990" y="1160" on="1"/>
        <pt x="990" y="1330" on="0"/>
        <pt x="840" y="1330" on="1"/>
        <pt x="400" y="1330" on="1"/>
        <pt x="400" y="846" on="1"/>
        <pt x="815" y="846" on="1"/>
        <pt x="815" y="836" on="1"/>
        <pt x="734" y="664" on="1"/>
        <pt x="400" y="664" on="1"/>
      </contour>
    </TTGlyph>
    <TTGlyph name="Euro" xMin="150" yMin="0" xMax="1384" yMax="1510">
      <contour>
        <pt x="150" y="507" on="1"/>
        <pt x="150" y="517" on="1"/>
        <pt x="231" y="689" on="1"/>
        <pt x="374" y="689" on="1"/>
        <pt x="374" y="828" on="1"/>
        <pt x="150" y="828" on="1"/>
        <pt x="150" y="838" on="1"/>
        <pt x="231" y="1010" on="1"/>
        <pt x="374" y="1010" on="1"/>
        <pt x="374" y="1160" on="1"/>
        <pt x="374" y="1510" on="0"/>
        <pt x="724" y="1510" on="1"/>
        <pt x="1034" y="1510" on="1"/>
        <pt x="1384" y="1510" on="0"/>
        <pt x="1384" y="1160" on="1"/>
        <pt x="1384" y="1050" on="1"/>
        <pt x="1194" y="960" on="1"/>
        <pt x="1184" y="960" on="1"/>
        <pt x="1184" y="1160" on="1"/>
        <pt x="1184" y="1330" on="0"/>
        <pt x="1034" y="1330" on="1"/>
        <pt x="724" y="1330" on="1"/>
        <pt x="574" y="1330" on="0"/>
        <pt x="574" y="1160" on="1"/>
        <pt x="574" y="1010" on="1"/>
        <pt x="1064" y="1010" on="1"/>
        <pt x="1064" y="1000" on="1"/>
        <pt x="983" y="828" on="1"/>
        <pt x="574" y="828" on="1"/>
        <pt x="574" y="689" on="1"/>
        <pt x="1064" y="689" on="1"/>
        <pt x="1064" y="679" on="1"/>
        <pt x="983" y="507" on="1"/>
        <pt x="574" y="507" on="1"/>
        <pt x="574" y="350" on="1"/>
        <pt x="574" y="180" on="0"/>
        <pt x="724" y="180" on="1"/>
        <pt x="1034" y="180" on="1"/>
        <pt x="1184" y="180" on="0"/>
        <pt x="1184" y="350" on="1"/>
        <pt x="1184" y="460" on="1"/>
        <pt x="1374" y="550" on="1"/>
        <pt x="1384" y="550" on="1"/>
        <pt x="1384" y="350" on="1"/>
        <pt x="1384" y="0" on="0"/>
        <pt x="1034" y="0" on="1"/>
        <pt x="724" y="0" on="1"/>
        <pt x="374" y="0" on="0"/>
        <pt x="374" y="350" on="1"/>
        <pt x="374" y="507" on="1"/>
      </contour>
    </TTGlyph>
    <TTGlyph name="F" xMin="200" yMin="-40" xMax="940" yMax="1510">
      <contour>
        <pt x="200" y="-40" on="1"/>
        <pt x="200" y="1460" on="1"/>
        <pt x="306" y="1510" on="1"/>
        <pt x="940" y="1510" on="1"/>
        <pt x="940" y="1500" on="1"/>
        <pt x="859" y="1328" on="1"/>
        <pt x="400" y="1328" on="1"/>
        <pt x="400" y="846" on="1"/>
        <pt x="940" y="846" on="1"/>
        <pt x="940" y="836" on="1"/>
        <pt x="859" y="664" on="1"/>
        <pt x="400" y="664" on="1"/>
        <pt x="400" y="50" on="1"/>
        <pt x="210" y="-40" on="1"/>
      </contour>
    </TTGlyph>
    <TTGlyph name="G" xMin="200" yMin="0" xMax="1210" yMax="1510">
      <contour>
        <pt x="550" y="0" on="1"/>
        <pt x="200" y="0" on="0"/>
        <pt x="200" y="350" on="1"/>
        <pt x="200" y="1160" on="1"/>
        <pt x="200" y="1510" on="0"/>
        <pt x="550" y="1510" on="1"/>
        <pt x="860" y="1510" on="1"/>
        <pt x="1210" y="1510" on="0"/>
        <pt x="1210" y="1160" on="1"/>
        <pt x="1210" y="1050" on="1"/>
        <pt x="1020" y="960" on="1"/>
        <pt x="1010" y="960" on="1"/>
        <pt x="1010" y="1160" on="1"/>
        <pt x="1010" y="1330" on="0"/>
        <pt x="860" y="1330" on="1"/>
        <pt x="550" y="1330" on="1"/>
        <pt x="400" y="1330" on="0"/>
        <pt x="400" y="1160" on="1"/>
        <pt x="400" y="350" on="1"/>
        <pt x="400" y="180" on="0"/>
        <pt x="550" y="180" on="1"/>
        <pt x="860" y="180" on="1"/>
        <pt x="1010" y="180" on="0"/>
        <pt x="1010" y="350" on="1"/>
        <pt x="1010" y="664" on="1"/>
        <pt x="662" y="664" on="1"/>
        <pt x="662" y="674" on="1"/>
        <pt x="743" y="846" on="1"/>
        <pt x="1210" y="846" on="1"/>
        <pt x="1210" y="350" on="1"/>
        <pt x="1210" y="0" on="0"/>
        <pt x="860" y="0" on="1"/>
      </contour>
    </TTGlyph>
    <TTGlyph name="Gbreve" xMin="200" yMin="0" xMax="1210" yMax="1947">
      <contour>
        <pt x="550" y="0" on="1"/>
        <pt x="200" y="0" on="0"/>
        <pt x="200" y="350" on="1"/>
        <pt x="200" y="1160" on="1"/>
        <pt x="200" y="1510" on="0"/>
        <pt x="550" y="1510" on="1"/>
        <pt x="860" y="1510" on="1"/>
        <pt x="1210" y="1510" on="0"/>
        <pt x="1210" y="1160" on="1"/>
        <pt x="1210" y="1050" on="1"/>
        <pt x="1020" y="960" on="1"/>
        <pt x="1010" y="960" on="1"/>
        <pt x="1010" y="1160" on="1"/>
        <pt x="1010" y="1330" on="0"/>
        <pt x="860" y="1330" on="1"/>
        <pt x="550" y="1330" on="1"/>
        <pt x="400" y="1330" on="0"/>
        <pt x="400" y="1160" on="1"/>
        <pt x="400" y="350" on="1"/>
        <pt x="400" y="180" on="0"/>
        <pt x="550" y="180" on="1"/>
        <pt x="860" y="180" on="1"/>
        <pt x="1010" y="180" on="0"/>
        <pt x="1010" y="350" on="1"/>
        <pt x="1010" y="664" on="1"/>
        <pt x="662" y="664" on="1"/>
        <pt x="662" y="674" on="1"/>
        <pt x="743" y="846" on="1"/>
        <pt x="1210" y="846" on="1"/>
        <pt x="1210" y="350" on="1"/>
        <pt x="1210" y="0" on="0"/>
        <pt x="860" y="0" on="1"/>
      </contour>
      <contour>
        <pt x="468" y="1788" on="1"/>
        <pt x="468" y="1798" on="1"/>
        <pt x="542" y="1947" on="1"/>
        <pt x="614" y="1813" on="0"/>
        <pt x="814" y="1813" on="0"/>
        <pt x="886" y="1947" on="1"/>
        <pt x="962" y="1798" on="1"/>
        <pt x="962" y="1788" on="1"/>
        <pt x="860" y="1638" on="0"/>
        <pt x="712" y="1638" on="1"/>
        <pt x="558" y="1638" on="0"/>
      </contour>
    </TTGlyph>
    <TTGlyph name="Gcircumflex" xMin="200" yMin="0" xMax="1210" yMax="1966">
      <contour>
        <pt x="550" y="0" on="1"/>
        <pt x="200" y="0" on="0"/>
        <pt x="200" y="350" on="1"/>
        <pt x="200" y="1160" on="1"/>
        <pt x="200" y="1510" on="0"/>
        <pt x="550" y="1510" on="1"/>
        <pt x="860" y="1510" on="1"/>
        <pt x="1210" y="1510" on="0"/>
        <pt x="1210" y="1160" on="1"/>
        <pt x="1210" y="1050" on="1"/>
        <pt x="1020" y="960" on="1"/>
        <pt x="1010" y="960" on="1"/>
        <pt x="1010" y="1160" on="1"/>
        <pt x="1010" y="1330" on="0"/>
        <pt x="860" y="1330" on="1"/>
        <pt x="550" y="1330" on="1"/>
        <pt x="400" y="1330" on="0"/>
        <pt x="400" y="1160" on="1"/>
        <pt x="400" y="350" on="1"/>
        <pt x="400" y="180" on="0"/>
        <pt x="550" y="180" on="1"/>
        <pt x="860" y="180" on="1"/>
        <pt x="1010" y="180" on="0"/>
        <pt x="1010" y="350" on="1"/>
        <pt x="1010" y="664" on="1"/>
        <pt x="662" y="664" on="1"/>
        <pt x="662" y="674" on="1"/>
        <pt x="743" y="846" on="1"/>
        <pt x="1210" y="846" on="1"/>
        <pt x="1210" y="350" on="1"/>
        <pt x="1210" y="0" on="0"/>
        <pt x="860" y="0" on="1"/>
      </contour>
      <contour>
        <pt x="434" y="1621" on="1"/>
        <pt x="587" y="1882" on="1"/>
        <pt x="763" y="1966" on="1"/>
        <pt x="773" y="1966" on="1"/>
        <pt x="986" y="1621" on="1"/>
        <pt x="870" y="1566" on="1"/>
        <pt x="860" y="1566" on="1"/>
        <pt x="710" y="1774" on="1"/>
        <pt x="562" y="1566" on="1"/>
        <pt x="552" y="1566" on="1"/>
      </contour>
    </TTGlyph>
    <TTGlyph name="Gcommaaccent" xMin="200" yMin="-450" xMax="1210" yMax="1510">
      <contour>
        <pt x="550" y="0" on="1"/>
        <pt x="200" y="0" on="0"/>
        <pt x="200" y="350" on="1"/>
        <pt x="200" y="1160" on="1"/>
        <pt x="200" y="1510" on="0"/>
        <pt x="550" y="1510" on="1"/>
        <pt x="860" y="1510" on="1"/>
        <pt x="1210" y="1510" on="0"/>
        <pt x="1210" y="1160" on="1"/>
        <pt x="1210" y="1050" on="1"/>
        <pt x="1020" y="960" on="1"/>
        <pt x="1010" y="960" on="1"/>
        <pt x="1010" y="1160" on="1"/>
        <pt x="1010" y="1330" on="0"/>
        <pt x="860" y="1330" on="1"/>
        <pt x="550" y="1330" on="1"/>
        <pt x="400" y="1330" on="0"/>
        <pt x="400" y="1160" on="1"/>
        <pt x="400" y="350" on="1"/>
        <pt x="400" y="180" on="0"/>
        <pt x="550" y="180" on="1"/>
        <pt x="860" y="180" on="1"/>
        <pt x="1010" y="180" on="0"/>
        <pt x="1010" y="350" on="1"/>
        <pt x="1010" y="664" on="1"/>
        <pt x="662" y="664" on="1"/>
        <pt x="662" y="674" on="1"/>
        <pt x="743" y="846" on="1"/>
        <pt x="1210" y="846" on="1"/>
        <pt x="1210" y="350" on="1"/>
        <pt x="1210" y="0" on="0"/>
        <pt x="860" y="0" on="1"/>
      </contour>
      <contour>
        <pt x="596" y="-450" on="1"/>
        <pt x="586" y="-450" on="1"/>
        <pt x="410" y="-366" on="1"/>
        <pt x="631" y="-50" on="1"/>
        <pt x="641" y="-50" on="1"/>
        <pt x="758" y="-105" on="1"/>
      </contour>
    </TTGlyph>
    <TTGlyph name="Gdotaccent" xMin="200" yMin="0" xMax="1210" yMax="1925">
      <contour>
        <pt x="550" y="0" on="1"/>
        <pt x="200" y="0" on="0"/>
        <pt x="200" y="350" on="1"/>
        <pt x="200" y="1160" on="1"/>
        <pt x="200" y="1510" on="0"/>
        <pt x="550" y="1510" on="1"/>
        <pt x="860" y="1510" on="1"/>
        <pt x="1210" y="1510" on="0"/>
        <pt x="1210" y="1160" on="1"/>
        <pt x="1210" y="1050" on="1"/>
        <pt x="1020" y="960" on="1"/>
        <pt x="1010" y="960" on="1"/>
        <pt x="1010" y="1160" on="1"/>
        <pt x="1010" y="1330" on="0"/>
        <pt x="860" y="1330" on="1"/>
        <pt x="550" y="1330" on="1"/>
        <pt x="400" y="1330" on="0"/>
        <pt x="400" y="1160" on="1"/>
        <pt x="400" y="350" on="1"/>
        <pt x="400" y="180" on="0"/>
        <pt x="550" y="180" on="1"/>
        <pt x="860" y="180" on="1"/>
        <pt x="1010" y="180" on="0"/>
        <pt x="1010" y="350" on="1"/>
        <pt x="1010" y="664" on="1"/>
        <pt x="662" y="664" on="1"/>
        <pt x="662" y="674" on="1"/>
        <pt x="743" y="846" on="1"/>
        <pt x="1210" y="846" on="1"/>
        <pt x="1210" y="350" on="1"/>
        <pt x="1210" y="0" on="0"/>
        <pt x="860" y="0" on="1"/>
      </contour>
      <contour>
        <pt x="585" y="1752" on="0"/>
        <pt x="585" y="1853" on="0"/>
        <pt x="655" y="1925" on="0"/>
        <pt x="755" y="1925" on="0"/>
        <pt x="825" y="1853" on="0"/>
        <pt x="825" y="1752" on="0"/>
        <pt x="755" y="1680" on="0"/>
        <pt x="655" y="1680" on="0"/>
      </contour>
    </TTGlyph>
    <TTGlyph name="H" xMin="200" yMin="-40" xMax="1190" yMax="1550">
      <contour>
        <pt x="200" y="-40" on="1"/>
        <pt x="200" y="1460" on="1"/>
        <pt x="390" y="1550" on="1"/>
        <pt x="400" y="1550" on="1"/>
        <pt x="400" y="846" on="1"/>
        <pt x="990" y="846" on="1"/>
        <pt x="990" y="1460" on="1"/>
        <pt x="1180" y="1550" on="1"/>
        <pt x="1190" y="1550" on="1"/>
        <pt x="1190" y="50" on="1"/>
        <pt x="1000" y="-40" on="1"/>
        <pt x="990" y="-40" on="1"/>
        <pt x="990" y="664" on="1"/>
        <pt x="400" y="664" on="1"/>
        <pt x="400" y="50" on="1"/>
        <pt x="210" y="-40" on="1"/>
      </contour>
    </TTGlyph>
    <TTGlyph name="Hbar" xMin="50" yMin="-40" xMax="1340" yMax="1550">
      <contour>
        <pt x="200" y="-40" on="1"/>
        <pt x="200" y="1218" on="1"/>
        <pt x="50" y="1218" on="1"/>
        <pt x="50" y="1228" on="1"/>
        <pt x="131" y="1400" on="1"/>
        <pt x="200" y="1400" on="1"/>
        <pt x="200" y="1460" on="1"/>
        <pt x="390" y="1550" on="1"/>
        <pt x="400" y="1550" on="1"/>
        <pt x="400" y="1400" on="1"/>
        <pt x="990" y="1400" on="1"/>
        <pt x="990" y="1460" on="1"/>
        <pt x="1180" y="1550" on="1"/>
        <pt x="1190" y="1550" on="1"/>
        <pt x="1190" y="1400" on="1"/>
        <pt x="1340" y="1400" on="1"/>
        <pt x="1340" y="1390" on="1"/>
        <pt x="1259" y="1218" on="1"/>
        <pt x="1190" y="1218" on="1"/>
        <pt x="1190" y="50" on="1"/>
        <pt x="1000" y="-40" on="1"/>
        <pt x="990" y="-40" on="1"/>
        <pt x="990" y="664" on="1"/>
        <pt x="400" y="664" on="1"/>
        <pt x="400" y="50" on="1"/>
        <pt x="210" y="-40" on="1"/>
      </contour>
      <contour>
        <pt x="990" y="1218" on="1"/>
        <pt x="400" y="1218" on="1"/>
        <pt x="400" y="846" on="1"/>
        <pt x="990" y="846" on="1"/>
      </contour>
    </TTGlyph>
    <TTGlyph name="Hcircumflex" xMin="200" yMin="-40" xMax="1190" yMax="1966">
      <contour>
        <pt x="434" y="1621" on="1"/>
        <pt x="587" y="1882" on="1"/>
        <pt x="763" y="1966" on="1"/>
        <pt x="773" y="1966" on="1"/>
        <pt x="986" y="1621" on="1"/>
        <pt x="870" y="1566" on="1"/>
        <pt x="860" y="1566" on="1"/>
        <pt x="710" y="1774" on="1"/>
        <pt x="562" y="1566" on="1"/>
        <pt x="552" y="1566" on="1"/>
      </contour>
      <contour>
        <pt x="200" y="-40" on="1"/>
        <pt x="200" y="1460" on="1"/>
        <pt x="390" y="1550" on="1"/>
        <pt x="400" y="1550" on="1"/>
        <pt x="400" y="846" on="1"/>
        <pt x="990" y="846" on="1"/>
        <pt x="990" y="1460" on="1"/>
        <pt x="1180" y="1550" on="1"/>
        <pt x="1190" y="1550" on="1"/>
        <pt x="1190" y="50" on="1"/>
        <pt x="1000" y="-40" on="1"/>
        <pt x="990" y="-40" on="1"/>
        <pt x="990" y="664" on="1"/>
        <pt x="400" y="664" on="1"/>
        <pt x="400" y="50" on="1"/>
        <pt x="210" y="-40" on="1"/>
      </contour>
    </TTGlyph>
    <TTGlyph name="I" xMin="200" yMin="-40" xMax="400" yMax="1550">
      <contour>
        <pt x="200" y="-40" on="1"/>
        <pt x="200" y="1460" on="1"/>
        <pt x="390" y="1550" on="1"/>
        <pt x="400" y="1550" on="1"/>
        <pt x="400" y="50" on="1"/>
        <pt x="210" y="-40" on="1"/>
      </contour>
    </TTGlyph>
    <TTGlyph name="IJ" xMin="200" yMin="-40" xMax="1553" yMax="1550">
      <contour>
        <pt x="913" y="0" on="1"/>
        <pt x="563" y="0" on="0"/>
        <pt x="563" y="350" on="1"/>
        <pt x="563" y="460" on="1"/>
        <pt x="753" y="550" on="1"/>
        <pt x="763" y="550" on="1"/>
        <pt x="763" y="350" on="1"/>
        <pt x="763" y="180" on="0"/>
        <pt x="913" y="180" on="1"/>
        <pt x="1203" y="180" on="1"/>
        <pt x="1353" y="180" on="0"/>
        <pt x="1353" y="350" on="1"/>
        <pt x="1353" y="1328" on="1"/>
        <pt x="780" y="1328" on="1"/>
        <pt x="780" y="1338" on="1"/>
        <pt x="861" y="1510" on="1"/>
        <pt x="1553" y="1510" on="1"/>
        <pt x="1553" y="350" on="1"/>
        <pt x="1553" y="0" on="0"/>
        <pt x="1203" y="0" on="1"/>
      </contour>
      <contour>
        <pt x="200" y="-40" on="1"/>
        <pt x="200" y="1460" on="1"/>
        <pt x="390" y="1550" on="1"/>
        <pt x="400" y="1550" on="1"/>
        <pt x="400" y="50" on="1"/>
        <pt x="210" y="-40" on="1"/>
      </contour>
    </TTGlyph>
    <TTGlyph name="Iacute" xMin="186" yMin="-40" xMax="534" yMax="1966">
      <contour>
        <pt x="348" y="1966" on="1"/>
        <pt x="358" y="1966" on="1"/>
        <pt x="534" y="1882" on="1"/>
        <pt x="313" y="1566" on="1"/>
        <pt x="303" y="1566" on="1"/>
        <pt x="186" y="1621" on="1"/>
      </contour>
      <contour>
        <pt x="200" y="-40" on="1"/>
        <pt x="200" y="1460" on="1"/>
        <pt x="390" y="1550" on="1"/>
        <pt x="400" y="1550" on="1"/>
        <pt x="400" y="50" on="1"/>
        <pt x="210" y="-40" on="1"/>
      </contour>
    </TTGlyph>
    <TTGlyph name="Ibreve" xMin="53" yMin="-40" xMax="547" yMax="1947">
      <contour>
        <pt x="200" y="-40" on="1"/>
        <pt x="200" y="1460" on="1"/>
        <pt x="390" y="1550" on="1"/>
        <pt x="400" y="1550" on="1"/>
        <pt x="400" y="50" on="1"/>
        <pt x="210" y="-40" on="1"/>
      </contour>
      <contour>
        <pt x="53" y="1788" on="1"/>
        <pt x="53" y="1798" on="1"/>
        <pt x="127" y="1947" on="1"/>
        <pt x="199" y="1813" on="0"/>
        <pt x="399" y="1813" on="0"/>
        <pt x="471" y="1947" on="1"/>
        <pt x="547" y="1798" on="1"/>
        <pt x="547" y="1788" on="1"/>
        <pt x="445" y="1638" on="0"/>
        <pt x="297" y="1638" on="1"/>
        <pt x="143" y="1638" on="0"/>
      </contour>
    </TTGlyph>
    <TTGlyph name="Icircumflex" xMin="24" yMin="-40" xMax="576" yMax="1966">
      <contour>
        <pt x="200" y="-40" on="1"/>
        <pt x="200" y="1460" on="1"/>
        <pt x="390" y="1550" on="1"/>
        <pt x="400" y="1550" on="1"/>
        <pt x="400" y="50" on="1"/>
        <pt x="210" y="-40" on="1"/>
      </contour>
      <contour>
        <pt x="24" y="1621" on="1"/>
        <pt x="176" y="1882" on="1"/>
        <pt x="352" y="1966" on="1"/>
        <pt x="362" y="1966" on="1"/>
        <pt x="576" y="1621" on="1"/>
        <pt x="459" y="1566" on="1"/>
        <pt x="449" y="1566" on="1"/>
        <pt x="299" y="1774" on="1"/>
        <pt x="151" y="1566" on="1"/>
        <pt x="141" y="1566" on="1"/>
      </contour>
    </TTGlyph>
    <TTGlyph name="Idieresis" xMin="30" yMin="-40" xMax="570" yMax="1925">
      <contour>
        <pt x="200" y="-40" on="1"/>
        <pt x="200" y="1460" on="1"/>
        <pt x="390" y="1550" on="1"/>
        <pt x="400" y="1550" on="1"/>
        <pt x="400" y="50" on="1"/>
        <pt x="210" y="-40" on="1"/>
      </contour>
      <contour>
        <pt x="330" y="1752" on="0"/>
        <pt x="330" y="1853" on="0"/>
        <pt x="400" y="1925" on="0"/>
        <pt x="500" y="1925" on="0"/>
        <pt x="570" y="1853" on="0"/>
        <pt x="570" y="1752" on="0"/>
        <pt x="500" y="1680" on="0"/>
        <pt x="400" y="1680" on="0"/>
      </contour>
      <contour>
        <pt x="30" y="1752" on="0"/>
        <pt x="30" y="1853" on="0"/>
        <pt x="100" y="1925" on="0"/>
        <pt x="200" y="1925" on="0"/>
        <pt x="270" y="1853" on="0"/>
        <pt x="270" y="1752" on="0"/>
        <pt x="200" y="1680" on="0"/>
        <pt x="100" y="1680" on="0"/>
      </contour>
    </TTGlyph>
    <TTGlyph name="Idotaccent" xMin="180" yMin="-40" xMax="420" yMax="1925">
      <contour>
        <pt x="200" y="-40" on="1"/>
        <pt x="200" y="1460" on="1"/>
        <pt x="390" y="1550" on="1"/>
        <pt x="400" y="1550" on="1"/>
        <pt x="400" y="50" on="1"/>
        <pt x="210" y="-40" on="1"/>
      </contour>
      <contour>
        <pt x="180" y="1752" on="0"/>
        <pt x="180" y="1853" on="0"/>
        <pt x="250" y="1925" on="0"/>
        <pt x="350" y="1925" on="0"/>
        <pt x="420" y="1853" on="0"/>
        <pt x="420" y="1752" on="0"/>
        <pt x="350" y="1680" on="0"/>
        <pt x="250" y="1680" on="0"/>
      </contour>
    </TTGlyph>
    <TTGlyph name="Igrave" xMin="66" yMin="-40" xMax="414" yMax="1966">
      <contour>
        <pt x="242" y="1966" on="1"/>
        <pt x="252" y="1966" on="1"/>
        <pt x="414" y="1621" on="1"/>
        <pt x="297" y="1566" on="1"/>
        <pt x="287" y="1566" on="1"/>
        <pt x="66" y="1882" on="1"/>
      </contour>
      <contour>
        <pt x="200" y="-40" on="1"/>
        <pt x="200" y="1460" on="1"/>
        <pt x="390" y="1550" on="1"/>
        <pt x="400" y="1550" on="1"/>
        <pt x="400" y="50" on="1"/>
        <pt x="210" y="-40" on="1"/>
      </contour>
    </TTGlyph>
    <TTGlyph name="Imacron" xMin="30" yMin="-40" xMax="569" yMax="1820">
      <contour>
        <pt x="200" y="-40" on="1"/>
        <pt x="200" y="1460" on="1"/>
        <pt x="390" y="1550" on="1"/>
        <pt x="400" y="1550" on="1"/>
        <pt x="400" y="50" on="1"/>
        <pt x="210" y="-40" on="1"/>
      </contour>
      <contour>
        <pt x="30" y="1638" on="1"/>
        <pt x="30" y="1648" on="1"/>
        <pt x="111" y="1820" on="1"/>
        <pt x="569" y="1820" on="1"/>
        <pt x="569" y="1810" on="1"/>
        <pt x="488" y="1638" on="1"/>
      </contour>
    </TTGlyph>
    <TTGlyph name="Iogonek" xMin="103" yMin="-450" xMax="412" yMax="1550">
      <contour>
        <pt x="200" y="10" on="1"/>
        <pt x="200" y="1460" on="1"/>
        <pt x="390" y="1550" on="1"/>
        <pt x="400" y="1550" on="1"/>
        <pt x="400" y="50" on="1"/>
        <pt x="361" y="32" on="1"/>
        <pt x="278" y="-65" on="0"/>
        <pt x="278" y="-152" on="1"/>
        <pt x="278" y="-273" on="0"/>
        <pt x="412" y="-360" on="1"/>
        <pt x="222" y="-450" on="1"/>
        <pt x="212" y="-450" on="1"/>
        <pt x="103" y="-343" on="0"/>
        <pt x="103" y="-206" on="1"/>
        <pt x="103" y="-86" on="0"/>
      </contour>
    </TTGlyph>
    <TTGlyph name="Itilde" xMin="48" yMin="-40" xMax="551" yMax="1924">
      <contour>
        <pt x="200" y="-40" on="1"/>
        <pt x="200" y="1460" on="1"/>
        <pt x="390" y="1550" on="1"/>
        <pt x="400" y="1550" on="1"/>
        <pt x="400" y="50" on="1"/>
        <pt x="210" y="-40" on="1"/>
      </contour>
      <contour>
        <pt x="48" y="1638" on="1"/>
        <pt x="48" y="1924" on="0"/>
        <pt x="189" y="1924" on="1"/>
        <pt x="253" y="1924" on="0"/>
        <pt x="326" y="1854" on="1"/>
        <pt x="377" y="1805" on="0"/>
        <pt x="401" y="1805" on="1"/>
        <pt x="435" y="1805" on="0"/>
        <pt x="435" y="1877" on="1"/>
        <pt x="545" y="1924" on="1"/>
        <pt x="551" y="1924" on="1"/>
        <pt x="551" y="1638" on="0"/>
        <pt x="410" y="1638" on="1"/>
        <pt x="346" y="1638" on="0"/>
        <pt x="273" y="1708" on="1"/>
        <pt x="222" y="1757" on="0"/>
        <pt x="198" y="1757" on="1"/>
        <pt x="164" y="1757" on="0"/>
        <pt x="164" y="1685" on="1"/>
        <pt x="54" y="1638" on="1"/>
      </contour>
    </TTGlyph>
    <TTGlyph name="J" xMin="80" yMin="0" xMax="1070" yMax="1510">
      <contour>
        <pt x="430" y="0" on="1"/>
        <pt x="80" y="0" on="0"/>
        <pt x="80" y="350" on="1"/>
        <pt x="80" y="460" on="1"/>
        <pt x="270" y="550" on="1"/>
        <pt x="280" y="550" on="1"/>
        <pt x="280" y="350" on="1"/>
        <pt x="280" y="180" on="0"/>
        <pt x="430" y="180" on="1"/>
        <pt x="720" y="180" on="1"/>
        <pt x="870" y="180" on="0"/>
        <pt x="870" y="350" on="1"/>
        <pt x="870" y="1328" on="1"/>
        <pt x="297" y="1328" on="1"/>
        <pt x="297" y="1338" on="1"/>
        <pt x="378" y="1510" on="1"/>
        <pt x="1070" y="1510" on="1"/>
        <pt x="1070" y="350" on="1"/>
        <pt x="1070" y="0" on="0"/>
        <pt x="720" y="0" on="1"/>
      </contour>
    </TTGlyph>
    <TTGlyph name="Jcircumflex" xMin="80" yMin="0" xMax="1070" yMax="1966">
      <contour>
        <pt x="430" y="0" on="1"/>
        <pt x="80" y="0" on="0"/>
        <pt x="80" y="350" on="1"/>
        <pt x="80" y="460" on="1"/>
        <pt x="270" y="550" on="1"/>
        <pt x="280" y="550" on="1"/>
        <pt x="280" y="350" on="1"/>
        <pt x="280" y="180" on="0"/>
        <pt x="430" y="180" on="1"/>
        <pt x="720" y="180" on="1"/>
        <pt x="870" y="180" on="0"/>
        <pt x="870" y="350" on="1"/>
        <pt x="870" y="1328" on="1"/>
        <pt x="297" y="1328" on="1"/>
        <pt x="297" y="1338" on="1"/>
        <pt x="378" y="1510" on="1"/>
        <pt x="1070" y="1510" on="1"/>
        <pt x="1070" y="350" on="1"/>
        <pt x="1070" y="0" on="0"/>
        <pt x="720" y="0" on="1"/>
      </contour>
      <contour>
        <pt x="468" y="1621" on="1"/>
        <pt x="621" y="1882" on="1"/>
        <pt x="797" y="1966" on="1"/>
        <pt x="807" y="1966" on="1"/>
        <pt x="1020" y="1621" on="1"/>
        <pt x="904" y="1566" on="1"/>
        <pt x="894" y="1566" on="1"/>
        <pt x="744" y="1774" on="1"/>
        <pt x="596" y="1566" on="1"/>
        <pt x="586" y="1566" on="1"/>
      </contour>
    </TTGlyph>
    <TTGlyph name="K" xMin="200" yMin="-40" xMax="1180" yMax="1550">
      <contour>
        <pt x="200" y="-40" on="1"/>
        <pt x="200" y="523" on="1"/>
        <pt x="200" y="1460" on="1"/>
        <pt x="390" y="1550" on="1"/>
        <pt x="400" y="1550" on="1"/>
        <pt x="400" y="852" on="1"/>
        <pt x="423" y="860" on="0"/>
        <pt x="449" y="864" on="1"/>
        <pt x="943" y="1550" on="1"/>
        <pt x="953" y="1550" on="1"/>
        <pt x="1129" y="1467" on="1"/>
        <pt x="683" y="873" on="1"/>
        <pt x="830" y="873" on="1"/>
        <pt x="1180" y="873" on="0"/>
        <pt x="1180" y="523" on="1"/>
        <pt x="1180" y="50" on="1"/>
        <pt x="990" y="-40" on="1"/>
        <pt x="980" y="-40" on="1"/>
        <pt x="980" y="523" on="1"/>
        <pt x="980" y="693" on="0"/>
        <pt x="830" y="693" on="1"/>
        <pt x="550" y="693" on="1"/>
        <pt x="400" y="693" on="0"/>
        <pt x="400" y="523" on="1"/>
        <pt x="400" y="50" on="1"/>
        <pt x="210" y="-40" on="1"/>
      </contour>
    </TTGlyph>
    <TTGlyph name="Kcommaaccent" xMin="200" yMin="-450" xMax="1180" yMax="1550">
      <contour>
        <pt x="200" y="-40" on="1"/>
        <pt x="200" y="523" on="1"/>
        <pt x="200" y="1460" on="1"/>
        <pt x="390" y="1550" on="1"/>
        <pt x="400" y="1550" on="1"/>
        <pt x="400" y="852" on="1"/>
        <pt x="423" y="860" on="0"/>
        <pt x="449" y="864" on="1"/>
        <pt x="943" y="1550" on="1"/>
        <pt x="953" y="1550" on="1"/>
        <pt x="1129" y="1467" on="1"/>
        <pt x="683" y="873" on="1"/>
        <pt x="830" y="873" on="1"/>
        <pt x="1180" y="873" on="0"/>
        <pt x="1180" y="523" on="1"/>
        <pt x="1180" y="50" on="1"/>
        <pt x="990" y="-40" on="1"/>
        <pt x="980" y="-40" on="1"/>
        <pt x="980" y="523" on="1"/>
        <pt x="980" y="693" on="0"/>
        <pt x="830" y="693" on="1"/>
        <pt x="550" y="693" on="1"/>
        <pt x="400" y="693" on="0"/>
        <pt x="400" y="523" on="1"/>
        <pt x="400" y="50" on="1"/>
        <pt x="210" y="-40" on="1"/>
      </contour>
      <contour>
        <pt x="596" y="-450" on="1"/>
        <pt x="586" y="-450" on="1"/>
        <pt x="410" y="-366" on="1"/>
        <pt x="631" y="-50" on="1"/>
        <pt x="641" y="-50" on="1"/>
        <pt x="758" y="-105" on="1"/>
      </contour>
    </TTGlyph>
    <TTGlyph name="L" xMin="200" yMin="0" xMax="1085" yMax="1550">
      <contour>
        <pt x="200" y="0" on="1"/>
        <pt x="200" y="1460" on="1"/>
        <pt x="390" y="1550" on="1"/>
        <pt x="400" y="1550" on="1"/>
        <pt x="400" y="182" on="1"/>
        <pt x="1085" y="182" on="1"/>
        <pt x="1085" y="172" on="1"/>
        <pt x="1004" y="0" on="1"/>
      </contour>
    </TTGlyph>
    <TTGlyph name="Lacute" xMin="186" yMin="0" xMax="1085" yMax="1966">
      <contour>
        <pt x="348" y="1966" on="1"/>
        <pt x="358" y="1966" on="1"/>
        <pt x="534" y="1882" on="1"/>
        <pt x="313" y="1566" on="1"/>
        <pt x="303" y="1566" on="1"/>
        <pt x="186" y="1621" on="1"/>
      </contour>
      <contour>
        <pt x="200" y="0" on="1"/>
        <pt x="200" y="1460" on="1"/>
        <pt x="390" y="1550" on="1"/>
        <pt x="400" y="1550" on="1"/>
        <pt x="400" y="182" on="1"/>
        <pt x="1085" y="182" on="1"/>
        <pt x="1085" y="172" on="1"/>
        <pt x="1004" y="0" on="1"/>
      </contour>
    </TTGlyph>
    <TTGlyph name="Lcaron" xMin="200" yMin="0" xMax="1085" yMax="1566">
      <contour>
        <pt x="594" y="1566" on="1"/>
        <pt x="604" y="1566" on="1"/>
        <pt x="780" y="1482" on="1"/>
        <pt x="559" y="1166" on="1"/>
        <pt x="549" y="1166" on="1"/>
        <pt x="432" y="1221" on="1"/>
      </contour>
      <contour>
        <pt x="200" y="0" on="1"/>
        <pt x="200" y="1460" on="1"/>
        <pt x="390" y="1550" on="1"/>
        <pt x="400" y="1550" on="1"/>
        <pt x="400" y="182" on="1"/>
        <pt x="1085" y="182" on="1"/>
        <pt x="1085" y="172" on="1"/>
        <pt x="1004" y="0" on="1"/>
      </contour>
    </TTGlyph>
    <TTGlyph name="Lcommaaccent" xMin="200" yMin="-450" xMax="1085" yMax="1550">
      <contour>
        <pt x="548" y="-450" on="1"/>
        <pt x="538" y="-450" on="1"/>
        <pt x="362" y="-366" on="1"/>
        <pt x="583" y="-50" on="1"/>
        <pt x="593" y="-50" on="1"/>
        <pt x="710" y="-105" on="1"/>
      </contour>
      <contour>
        <pt x="200" y="0" on="1"/>
        <pt x="200" y="1460" on="1"/>
        <pt x="390" y="1550" on="1"/>
        <pt x="400" y="1550" on="1"/>
        <pt x="400" y="182" on="1"/>
        <pt x="1085" y="182" on="1"/>
        <pt x="1085" y="172" on="1"/>
        <pt x="1004" y="0" on="1"/>
      </contour>
    </TTGlyph>
    <TTGlyph name="Ldot" xMin="200" yMin="0" xMax="1085" yMax="1550">
      <contour>
        <pt x="505" y="947" on="0"/>
        <pt x="505" y="1048" on="0"/>
        <pt x="575" y="1120" on="0"/>
        <pt x="675" y="1120" on="0"/>
        <pt x="745" y="1048" on="0"/>
        <pt x="745" y="947" on="0"/>
        <pt x="675" y="875" on="0"/>
        <pt x="575" y="875" on="0"/>
      </contour>
      <contour>
        <pt x="200" y="0" on="1"/>
        <pt x="200" y="1460" on="1"/>
        <pt x="390" y="1550" on="1"/>
        <pt x="400" y="1550" on="1"/>
        <pt x="400" y="182" on="1"/>
        <pt x="1085" y="182" on="1"/>
        <pt x="1085" y="172" on="1"/>
        <pt x="1004" y="0" on="1"/>
      </contour>
    </TTGlyph>
    <TTGlyph name="Lslash" xMin="200" yMin="0" xMax="1085" yMax="1550">
      <contour>
        <pt x="200" y="0" on="1"/>
        <pt x="200" y="1460" on="1"/>
        <pt x="390" y="1550" on="1"/>
        <pt x="400" y="1550" on="1"/>
        <pt x="400" y="717" on="1"/>
        <pt x="717" y="1140" on="1"/>
        <pt x="727" y="1140" on="1"/>
        <pt x="885" y="1060" on="1"/>
        <pt x="400" y="458" on="1"/>
        <pt x="400" y="182" on="1"/>
        <pt x="1085" y="182" on="1"/>
        <pt x="1085" y="172" on="1"/>
        <pt x="1004" y="0" on="1"/>
      </contour>
    </TTGlyph>
    <TTGlyph name="M" xMin="200" yMin="-40" xMax="2020" yMax="1510">
      <contour>
        <pt x="200" y="-40" on="1"/>
        <pt x="200" y="1160" on="1"/>
        <pt x="200" y="1510" on="0"/>
        <pt x="550" y="1510" on="1"/>
        <pt x="860" y="1510" on="1"/>
        <pt x="1040" y="1510" on="0"/>
        <pt x="1110" y="1414" on="1"/>
        <pt x="1190" y="1510" on="0"/>
        <pt x="1360" y="1510" on="1"/>
        <pt x="1670" y="1510" on="1"/>
        <pt x="2020" y="1510" on="0"/>
        <pt x="2020" y="1160" on="1"/>
        <pt x="2020" y="50" on="1"/>
        <pt x="1830" y="-40" on="1"/>
        <pt x="1820" y="-40" on="1"/>
        <pt x="1820" y="1160" on="1"/>
        <pt x="1820" y="1330" on="0"/>
        <pt x="1670" y="1330" on="1"/>
        <pt x="1360" y="1330" on="1"/>
        <pt x="1210" y="1330" on="0"/>
        <pt x="1210" y="1160" on="1"/>
        <pt x="1210" y="50" on="1"/>
        <pt x="1020" y="-40" on="1"/>
        <pt x="1010" y="-40" on="1"/>
        <pt x="1010" y="1160" on="1"/>
        <pt x="1010" y="1330" on="0"/>
        <pt x="860" y="1330" on="1"/>
        <pt x="550" y="1330" on="1"/>
        <pt x="400" y="1330" on="0"/>
        <pt x="400" y="1160" on="1"/>
        <pt x="400" y="50" on="1"/>
        <pt x="210" y="-40" on="1"/>
      </contour>
    </TTGlyph>
    <TTGlyph name="N" xMin="200" yMin="-40" xMax="1210" yMax="1510">
      <contour>
        <pt x="200" y="-40" on="1"/>
        <pt x="200" y="1160" on="1"/>
        <pt x="200" y="1510" on="0"/>
        <pt x="550" y="1510" on="1"/>
        <pt x="860" y="1510" on="1"/>
        <pt x="1210" y="1510" on="0"/>
        <pt x="1210" y="1160" on="1"/>
        <pt x="1210" y="50" on="1"/>
        <pt x="1020" y="-40" on="1"/>
        <pt x="1010" y="-40" on="1"/>
        <pt x="1010" y="1160" on="1"/>
        <pt x="1010" y="1330" on="0"/>
        <pt x="860" y="1330" on="1"/>
        <pt x="550" y="1330" on="1"/>
        <pt x="400" y="1330" on="0"/>
        <pt x="400" y="1160" on="1"/>
        <pt x="400" y="50" on="1"/>
        <pt x="210" y="-40" on="1"/>
      </contour>
    </TTGlyph>
    <TTGlyph name="Nacute" xMin="200" yMin="-40" xMax="1210" yMax="1966">
      <contour>
        <pt x="200" y="-40" on="1"/>
        <pt x="200" y="1160" on="1"/>
        <pt x="200" y="1510" on="0"/>
        <pt x="550" y="1510" on="1"/>
        <pt x="860" y="1510" on="1"/>
        <pt x="1210" y="1510" on="0"/>
        <pt x="1210" y="1160" on="1"/>
        <pt x="1210" y="50" on="1"/>
        <pt x="1020" y="-40" on="1"/>
        <pt x="1010" y="-40" on="1"/>
        <pt x="1010" y="1160" on="1"/>
        <pt x="1010" y="1330" on="0"/>
        <pt x="860" y="1330" on="1"/>
        <pt x="550" y="1330" on="1"/>
        <pt x="400" y="1330" on="0"/>
        <pt x="400" y="1160" on="1"/>
        <pt x="400" y="50" on="1"/>
        <pt x="210" y="-40" on="1"/>
      </contour>
      <contour>
        <pt x="817" y="1966" on="1"/>
        <pt x="827" y="1966" on="1"/>
        <pt x="1003" y="1882" on="1"/>
        <pt x="782" y="1566" on="1"/>
        <pt x="772" y="1566" on="1"/>
        <pt x="655" y="1621" on="1"/>
      </contour>
    </TTGlyph>
    <TTGlyph name="Ncaron" xMin="200" yMin="-40" xMax="1210" yMax="1966">
      <contour>
        <pt x="200" y="-40" on="1"/>
        <pt x="200" y="1160" on="1"/>
        <pt x="200" y="1510" on="0"/>
        <pt x="550" y="1510" on="1"/>
        <pt x="860" y="1510" on="1"/>
        <pt x="1210" y="1510" on="0"/>
        <pt x="1210" y="1160" on="1"/>
        <pt x="1210" y="50" on="1"/>
        <pt x="1020" y="-40" on="1"/>
        <pt x="1010" y="-40" on="1"/>
        <pt x="1010" y="1160" on="1"/>
        <pt x="1010" y="1330" on="0"/>
        <pt x="860" y="1330" on="1"/>
        <pt x="550" y="1330" on="1"/>
        <pt x="400" y="1330" on="0"/>
        <pt x="400" y="1160" on="1"/>
        <pt x="400" y="50" on="1"/>
        <pt x="210" y="-40" on="1"/>
      </contour>
      <contour>
        <pt x="647" y="1566" on="1"/>
        <pt x="434" y="1911" on="1"/>
        <pt x="550" y="1966" on="1"/>
        <pt x="560" y="1966" on="1"/>
        <pt x="710" y="1758" on="1"/>
        <pt x="858" y="1966" on="1"/>
        <pt x="868" y="1966" on="1"/>
        <pt x="986" y="1911" on="1"/>
        <pt x="833" y="1650" on="1"/>
        <pt x="657" y="1566" on="1"/>
      </contour>
    </TTGlyph>
    <TTGlyph name="Ncommaaccent" xMin="200" yMin="-450" xMax="1210" yMax="1510">
      <contour>
        <pt x="200" y="-40" on="1"/>
        <pt x="200" y="1160" on="1"/>
        <pt x="200" y="1510" on="0"/>
        <pt x="550" y="1510" on="1"/>
        <pt x="860" y="1510" on="1"/>
        <pt x="1210" y="1510" on="0"/>
        <pt x="1210" y="1160" on="1"/>
        <pt x="1210" y="50" on="1"/>
        <pt x="1020" y="-40" on="1"/>
        <pt x="1010" y="-40" on="1"/>
        <pt x="1010" y="1160" on="1"/>
        <pt x="1010" y="1330" on="0"/>
        <pt x="860" y="1330" on="1"/>
        <pt x="550" y="1330" on="1"/>
        <pt x="400" y="1330" on="0"/>
        <pt x="400" y="1160" on="1"/>
        <pt x="400" y="50" on="1"/>
        <pt x="210" y="-40" on="1"/>
      </contour>
      <contour>
        <pt x="596" y="-450" on="1"/>
        <pt x="586" y="-450" on="1"/>
        <pt x="410" y="-366" on="1"/>
        <pt x="631" y="-50" on="1"/>
        <pt x="641" y="-50" on="1"/>
        <pt x="758" y="-105" on="1"/>
      </contour>
    </TTGlyph>
    <TTGlyph name="Ntilde" xMin="200" yMin="-40" xMax="1210" yMax="1924">
      <contour>
        <pt x="200" y="-40" on="1"/>
        <pt x="200" y="1160" on="1"/>
        <pt x="200" y="1510" on="0"/>
        <pt x="550" y="1510" on="1"/>
        <pt x="860" y="1510" on="1"/>
        <pt x="1210" y="1510" on="0"/>
        <pt x="1210" y="1160" on="1"/>
        <pt x="1210" y="50" on="1"/>
        <pt x="1020" y="-40" on="1"/>
        <pt x="1010" y="-40" on="1"/>
        <pt x="1010" y="1160" on="1"/>
        <pt x="1010" y="1330" on="0"/>
        <pt x="860" y="1330" on="1"/>
        <pt x="550" y="1330" on="1"/>
        <pt x="400" y="1330" on="0"/>
        <pt x="400" y="1160" on="1"/>
        <pt x="400" y="50" on="1"/>
        <pt x="210" y="-40" on="1"/>
      </contour>
      <contour>
        <pt x="471" y="1638" on="1"/>
        <pt x="471" y="1924" on="0"/>
        <pt x="612" y="1924" on="1"/>
        <pt x="676" y="1924" on="0"/>
        <pt x="749" y="1854" on="1"/>
        <pt x="800" y="1805" on="0"/>
        <pt x="824" y="1805" on="1"/>
        <pt x="858" y="1805" on="0"/>
        <pt x="858" y="1877" on="1"/>
        <pt x="968" y="1924" on="1"/>
        <pt x="974" y="1924" on="1"/>
        <pt x="974" y="1638" on="0"/>
        <pt x="833" y="1638" on="1"/>
        <pt x="769" y="1638" on="0"/>
        <pt x="696" y="1708" on="1"/>
        <pt x="645" y="1757" on="0"/>
        <pt x="621" y="1757" on="1"/>
        <pt x="587" y="1757" on="0"/>
        <pt x="587" y="1685" on="1"/>
        <pt x="477" y="1638" on="1"/>
      </contour>
    </TTGlyph>
    <TTGlyph name="O" xMin="200" yMin="0" xMax="1210" yMax="1510">
      <contour>
        <pt x="550" y="180" on="1"/>
        <pt x="860" y="180" on="1"/>
        <pt x="1010" y="180" on="0"/>
        <pt x="1010" y="350" on="1"/>
        <pt x="1010" y="1160" on="1"/>
        <pt x="1010" y="1330" on="0"/>
        <pt x="860" y="1330" on="1"/>
        <pt x="550" y="1330" on="1"/>
        <pt x="400" y="1330" on="0"/>
        <pt x="400" y="1160" on="1"/>
        <pt x="400" y="350" on="1"/>
        <pt x="400" y="180" on="0"/>
      </contour>
      <contour>
        <pt x="550" y="0" on="1"/>
        <pt x="200" y="0" on="0"/>
        <pt x="200" y="350" on="1"/>
        <pt x="200" y="1160" on="1"/>
        <pt x="200" y="1510" on="0"/>
        <pt x="550" y="1510" on="1"/>
        <pt x="860" y="1510" on="1"/>
        <pt x="1210" y="1510" on="0"/>
        <pt x="1210" y="1160" on="1"/>
        <pt x="1210" y="350" on="1"/>
        <pt x="1210" y="0" on="0"/>
        <pt x="860" y="0" on="1"/>
      </contour>
    </TTGlyph>
    <TTGlyph name="OE" xMin="200" yMin="0" xMax="1917" yMax="1510">
      <contour>
        <pt x="550" y="0" on="1"/>
        <pt x="200" y="0" on="0"/>
        <pt x="200" y="350" on="1"/>
        <pt x="200" y="1160" on="1"/>
        <pt x="200" y="1510" on="0"/>
        <pt x="550" y="1510" on="1"/>
        <pt x="860" y="1510" on="1"/>
        <pt x="990" y="1510" on="0"/>
        <pt x="1044" y="1456" on="1"/>
        <pt x="1116" y="1510" on="1"/>
        <pt x="1750" y="1510" on="1"/>
        <pt x="1750" y="1500" on="1"/>
        <pt x="1669" y="1328" on="1"/>
        <pt x="1210" y="1328" on="1"/>
        <pt x="1210" y="846" on="1"/>
        <pt x="1750" y="846" on="1"/>
        <pt x="1750" y="836" on="1"/>
        <pt x="1669" y="664" on="1"/>
        <pt x="1210" y="664" on="1"/>
        <pt x="1210" y="182" on="1"/>
        <pt x="1917" y="182" on="1"/>
        <pt x="1917" y="172" on="1"/>
        <pt x="1836" y="0" on="1"/>
        <pt x="1010" y="0" on="1"/>
        <pt x="1010" y="40" on="1"/>
        <pt x="948" y="0" on="0"/>
        <pt x="860" y="0" on="1"/>
      </contour>
      <contour>
        <pt x="550" y="180" on="1"/>
        <pt x="860" y="180" on="1"/>
        <pt x="1010" y="180" on="0"/>
        <pt x="1010" y="350" on="1"/>
        <pt x="1010" y="1160" on="1"/>
        <pt x="1010" y="1330" on="0"/>
        <pt x="860" y="1330" on="1"/>
        <pt x="550" y="1330" on="1"/>
        <pt x="400" y="1330" on="0"/>
        <pt x="400" y="1160" on="1"/>
        <pt x="400" y="350" on="1"/>
        <pt x="400" y="180" on="0"/>
      </contour>
    </TTGlyph>
    <TTGlyph name="Oacute" xMin="200" yMin="0" xMax="1210" yMax="1966">
      <contour>
        <pt x="550" y="180" on="1"/>
        <pt x="860" y="180" on="1"/>
        <pt x="1010" y="180" on="0"/>
        <pt x="1010" y="350" on="1"/>
        <pt x="1010" y="1160" on="1"/>
        <pt x="1010" y="1330" on="0"/>
        <pt x="860" y="1330" on="1"/>
        <pt x="550" y="1330" on="1"/>
        <pt x="400" y="1330" on="0"/>
        <pt x="400" y="1160" on="1"/>
        <pt x="400" y="350" on="1"/>
        <pt x="400" y="180" on="0"/>
      </contour>
      <contour>
        <pt x="550" y="0" on="1"/>
        <pt x="200" y="0" on="0"/>
        <pt x="200" y="350" on="1"/>
        <pt x="200" y="1160" on="1"/>
        <pt x="200" y="1510" on="0"/>
        <pt x="550" y="1510" on="1"/>
        <pt x="860" y="1510" on="1"/>
        <pt x="1210" y="1510" on="0"/>
        <pt x="1210" y="1160" on="1"/>
        <pt x="1210" y="350" on="1"/>
        <pt x="1210" y="0" on="0"/>
        <pt x="860" y="0" on="1"/>
      </contour>
      <contour>
        <pt x="817" y="1966" on="1"/>
        <pt x="827" y="1966" on="1"/>
        <pt x="1003" y="1882" on="1"/>
        <pt x="782" y="1566" on="1"/>
        <pt x="772" y="1566" on="1"/>
        <pt x="655" y="1621" on="1"/>
      </contour>
    </TTGlyph>
    <TTGlyph name="Obreve" xMin="200" yMin="0" xMax="1210" yMax="1947">
      <contour>
        <pt x="550" y="180" on="1"/>
        <pt x="860" y="180" on="1"/>
        <pt x="1010" y="180" on="0"/>
        <pt x="1010" y="350" on="1"/>
        <pt x="1010" y="1160" on="1"/>
        <pt x="1010" y="1330" on="0"/>
        <pt x="860" y="1330" on="1"/>
        <pt x="550" y="1330" on="1"/>
        <pt x="400" y="1330" on="0"/>
        <pt x="400" y="1160" on="1"/>
        <pt x="400" y="350" on="1"/>
        <pt x="400" y="180" on="0"/>
      </contour>
      <contour>
        <pt x="550" y="0" on="1"/>
        <pt x="200" y="0" on="0"/>
        <pt x="200" y="350" on="1"/>
        <pt x="200" y="1160" on="1"/>
        <pt x="200" y="1510" on="0"/>
        <pt x="550" y="1510" on="1"/>
        <pt x="860" y="1510" on="1"/>
        <pt x="1210" y="1510" on="0"/>
        <pt x="1210" y="1160" on="1"/>
        <pt x="1210" y="350" on="1"/>
        <pt x="1210" y="0" on="0"/>
        <pt x="860" y="0" on="1"/>
      </contour>
      <contour>
        <pt x="468" y="1788" on="1"/>
        <pt x="468" y="1798" on="1"/>
        <pt x="542" y="1947" on="1"/>
        <pt x="614" y="1813" on="0"/>
        <pt x="814" y="1813" on="0"/>
        <pt x="886" y="1947" on="1"/>
        <pt x="962" y="1798" on="1"/>
        <pt x="962" y="1788" on="1"/>
        <pt x="860" y="1638" on="0"/>
        <pt x="712" y="1638" on="1"/>
        <pt x="558" y="1638" on="0"/>
      </contour>
    </TTGlyph>
    <TTGlyph name="Ocircumflex" xMin="200" yMin="0" xMax="1210" yMax="1966">
      <contour>
        <pt x="550" y="180" on="1"/>
        <pt x="860" y="180" on="1"/>
        <pt x="1010" y="180" on="0"/>
        <pt x="1010" y="350" on="1"/>
        <pt x="1010" y="1160" on="1"/>
        <pt x="1010" y="1330" on="0"/>
        <pt x="860" y="1330" on="1"/>
        <pt x="550" y="1330" on="1"/>
        <pt x="400" y="1330" on="0"/>
        <pt x="400" y="1160" on="1"/>
        <pt x="400" y="350" on="1"/>
        <pt x="400" y="180" on="0"/>
      </contour>
      <contour>
        <pt x="550" y="0" on="1"/>
        <pt x="200" y="0" on="0"/>
        <pt x="200" y="350" on="1"/>
        <pt x="200" y="1160" on="1"/>
        <pt x="200" y="1510" on="0"/>
        <pt x="550" y="1510" on="1"/>
        <pt x="860" y="1510" on="1"/>
        <pt x="1210" y="1510" on="0"/>
        <pt x="1210" y="1160" on="1"/>
        <pt x="1210" y="350" on="1"/>
        <pt x="1210" y="0" on="0"/>
        <pt x="860" y="0" on="1"/>
      </contour>
      <contour>
        <pt x="434" y="1621" on="1"/>
        <pt x="587" y="1882" on="1"/>
        <pt x="763" y="1966" on="1"/>
        <pt x="773" y="1966" on="1"/>
        <pt x="986" y="1621" on="1"/>
        <pt x="870" y="1566" on="1"/>
        <pt x="860" y="1566" on="1"/>
        <pt x="710" y="1774" on="1"/>
        <pt x="562" y="1566" on="1"/>
        <pt x="552" y="1566" on="1"/>
      </contour>
    </TTGlyph>
    <TTGlyph name="Odieresis" xMin="200" yMin="0" xMax="1210" yMax="1925">
      <contour>
        <pt x="550" y="180" on="1"/>
        <pt x="860" y="180" on="1"/>
        <pt x="1010" y="180" on="0"/>
        <pt x="1010" y="350" on="1"/>
        <pt x="1010" y="1160" on="1"/>
        <pt x="1010" y="1330" on="0"/>
        <pt x="860" y="1330" on="1"/>
        <pt x="550" y="1330" on="1"/>
        <pt x="400" y="1330" on="0"/>
        <pt x="400" y="1160" on="1"/>
        <pt x="400" y="350" on="1"/>
        <pt x="400" y="180" on="0"/>
      </contour>
      <contour>
        <pt x="550" y="0" on="1"/>
        <pt x="200" y="0" on="0"/>
        <pt x="200" y="350" on="1"/>
        <pt x="200" y="1160" on="1"/>
        <pt x="200" y="1510" on="0"/>
        <pt x="550" y="1510" on="1"/>
        <pt x="860" y="1510" on="1"/>
        <pt x="1210" y="1510" on="0"/>
        <pt x="1210" y="1160" on="1"/>
        <pt x="1210" y="350" on="1"/>
        <pt x="1210" y="0" on="0"/>
        <pt x="860" y="0" on="1"/>
      </contour>
      <contour>
        <pt x="742" y="1752" on="0"/>
        <pt x="742" y="1853" on="0"/>
        <pt x="812" y="1925" on="0"/>
        <pt x="912" y="1925" on="0"/>
        <pt x="982" y="1853" on="0"/>
        <pt x="982" y="1752" on="0"/>
        <pt x="912" y="1680" on="0"/>
        <pt x="812" y="1680" on="0"/>
      </contour>
      <contour>
        <pt x="442" y="1752" on="0"/>
        <pt x="442" y="1853" on="0"/>
        <pt x="512" y="1925" on="0"/>
        <pt x="612" y="1925" on="0"/>
        <pt x="682" y="1853" on="0"/>
        <pt x="682" y="1752" on="0"/>
        <pt x="612" y="1680" on="0"/>
        <pt x="512" y="1680" on="0"/>
      </contour>
    </TTGlyph>
    <TTGlyph name="Ograve" xMin="200" yMin="0" xMax="1210" yMax="1966">
      <contour>
        <pt x="550" y="180" on="1"/>
        <pt x="860" y="180" on="1"/>
        <pt x="1010" y="180" on="0"/>
        <pt x="1010" y="350" on="1"/>
        <pt x="1010" y="1160" on="1"/>
        <pt x="1010" y="1330" on="0"/>
        <pt x="860" y="1330" on="1"/>
        <pt x="550" y="1330" on="1"/>
        <pt x="400" y="1330" on="0"/>
        <pt x="400" y="1160" on="1"/>
        <pt x="400" y="350" on="1"/>
        <pt x="400" y="180" on="0"/>
      </contour>
      <contour>
        <pt x="550" y="0" on="1"/>
        <pt x="200" y="0" on="0"/>
        <pt x="200" y="350" on="1"/>
        <pt x="200" y="1160" on="1"/>
        <pt x="200" y="1510" on="0"/>
        <pt x="550" y="1510" on="1"/>
        <pt x="860" y="1510" on="1"/>
        <pt x="1210" y="1510" on="0"/>
        <pt x="1210" y="1160" on="1"/>
        <pt x="1210" y="350" on="1"/>
        <pt x="1210" y="0" on="0"/>
        <pt x="860" y="0" on="1"/>
      </contour>
      <contour>
        <pt x="596" y="1966" on="1"/>
        <pt x="606" y="1966" on="1"/>
        <pt x="768" y="1621" on="1"/>
        <pt x="651" y="1566" on="1"/>
        <pt x="641" y="1566" on="1"/>
        <pt x="420" y="1882" on="1"/>
      </contour>
    </TTGlyph>
    <TTGlyph name="Ohungarumlaut" xMin="200" yMin="0" xMax="1210" yMax="1966">
      <contour>
        <pt x="550" y="180" on="1"/>
        <pt x="860" y="180" on="1"/>
        <pt x="1010" y="180" on="0"/>
        <pt x="1010" y="350" on="1"/>
        <pt x="1010" y="1160" on="1"/>
        <pt x="1010" y="1330" on="0"/>
        <pt x="860" y="1330" on="1"/>
        <pt x="550" y="1330" on="1"/>
        <pt x="400" y="1330" on="0"/>
        <pt x="400" y="1160" on="1"/>
        <pt x="400" y="350" on="1"/>
        <pt x="400" y="180" on="0"/>
      </contour>
      <contour>
        <pt x="550" y="0" on="1"/>
        <pt x="200" y="0" on="0"/>
        <pt x="200" y="350" on="1"/>
        <pt x="200" y="1160" on="1"/>
        <pt x="200" y="1510" on="0"/>
        <pt x="550" y="1510" on="1"/>
        <pt x="860" y="1510" on="1"/>
        <pt x="1210" y="1510" on="0"/>
        <pt x="1210" y="1160" on="1"/>
        <pt x="1210" y="350" on="1"/>
        <pt x="1210" y="0" on="0"/>
        <pt x="860" y="0" on="1"/>
      </contour>
      <contour>
        <pt x="933" y="1966" on="1"/>
        <pt x="943" y="1966" on="1"/>
        <pt x="1119" y="1882" on="1"/>
        <pt x="898" y="1566" on="1"/>
        <pt x="888" y="1566" on="1"/>
        <pt x="771" y="1621" on="1"/>
      </contour>
      <contour>
        <pt x="656" y="1966" on="1"/>
        <pt x="666" y="1966" on="1"/>
        <pt x="842" y="1882" on="1"/>
        <pt x="621" y="1566" on="1"/>
        <pt x="611" y="1566" on="1"/>
        <pt x="494" y="1621" on="1"/>
      </contour>
    </TTGlyph>
    <TTGlyph name="Omacron" xMin="200" yMin="0" xMax="1210" yMax="1820">
      <contour>
        <pt x="550" y="180" on="1"/>
        <pt x="860" y="180" on="1"/>
        <pt x="1010" y="180" on="0"/>
        <pt x="1010" y="350" on="1"/>
        <pt x="1010" y="1160" on="1"/>
        <pt x="1010" y="1330" on="0"/>
        <pt x="860" y="1330" on="1"/>
        <pt x="550" y="1330" on="1"/>
        <pt x="400" y="1330" on="0"/>
        <pt x="400" y="1160" on="1"/>
        <pt x="400" y="350" on="1"/>
        <pt x="400" y="180" on="0"/>
      </contour>
      <contour>
        <pt x="550" y="0" on="1"/>
        <pt x="200" y="0" on="0"/>
        <pt x="200" y="350" on="1"/>
        <pt x="200" y="1160" on="1"/>
        <pt x="200" y="1510" on="0"/>
        <pt x="550" y="1510" on="1"/>
        <pt x="860" y="1510" on="1"/>
        <pt x="1210" y="1510" on="0"/>
        <pt x="1210" y="1160" on="1"/>
        <pt x="1210" y="350" on="1"/>
        <pt x="1210" y="0" on="0"/>
        <pt x="860" y="0" on="1"/>
      </contour>
      <contour>
        <pt x="467" y="1638" on="1"/>
        <pt x="467" y="1648" on="1"/>
        <pt x="548" y="1820" on="1"/>
        <pt x="1006" y="1820" on="1"/>
        <pt x="1006" y="1810" on="1"/>
        <pt x="925" y="1638" on="1"/>
      </contour>
    </TTGlyph>
    <TTGlyph name="Omega" xMin="150" yMin="0" xMax="1260" yMax="1510">
      <contour>
        <pt x="150" y="0" on="1"/>
        <pt x="150" y="10" on="1"/>
        <pt x="231" y="182" on="1"/>
        <pt x="446" y="182" on="1"/>
        <pt x="446" y="270" on="1"/>
        <pt x="200" y="317" on="0"/>
        <pt x="200" y="592" on="1"/>
        <pt x="200" y="1160" on="1"/>
        <pt x="200" y="1510" on="0"/>
        <pt x="550" y="1510" on="1"/>
        <pt x="860" y="1510" on="1"/>
        <pt x="1210" y="1510" on="0"/>
        <pt x="1210" y="1160" on="1"/>
        <pt x="1210" y="592" on="1"/>
        <pt x="1210" y="317" on="0"/>
        <pt x="964" y="270" on="1"/>
        <pt x="964" y="182" on="1"/>
        <pt x="1260" y="182" on="1"/>
        <pt x="1260" y="172" on="1"/>
        <pt x="1179" y="0" on="1"/>
        <pt x="802" y="0" on="1"/>
        <pt x="802" y="422" on="1"/>
        <pt x="860" y="422" on="1"/>
        <pt x="1010" y="422" on="0"/>
        <pt x="1010" y="592" on="1"/>
        <pt x="1010" y="1160" on="1"/>
        <pt x="1010" y="1330" on="0"/>
        <pt x="860" y="1330" on="1"/>
        <pt x="550" y="1330" on="1"/>
        <pt x="400" y="1330" on="0"/>
        <pt x="400" y="1160" on="1"/>
        <pt x="400" y="592" on="1"/>
        <pt x="400" y="422" on="0"/>
        <pt x="550" y="422" on="1"/>
        <pt x="608" y="422" on="1"/>
        <pt x="608" y="0" on="1"/>
      </contour>
    </TTGlyph>
    <TTGlyph name="Oslash" xMin="200" yMin="-40" xMax="1210" yMax="1550">
      <contour>
        <pt x="550" y="0" on="1"/>
        <pt x="483" y="0" on="0"/>
        <pt x="429" y="13" on="1"/>
        <pt x="404" y="-40" on="1"/>
        <pt x="394" y="-40" on="1"/>
        <pt x="290" y="10" on="1"/>
        <pt x="315" y="64" on="1"/>
        <pt x="200" y="149" on="0"/>
        <pt x="200" y="350" on="1"/>
        <pt x="200" y="1160" on="1"/>
        <pt x="200" y="1510" on="0"/>
        <pt x="550" y="1510" on="1"/>
        <pt x="860" y="1510" on="1"/>
        <pt x="927" y="1510" on="0"/>
        <pt x="981" y="1497" on="1"/>
        <pt x="1006" y="1550" on="1"/>
        <pt x="1016" y="1550" on="1"/>
        <pt x="1120" y="1499" on="1"/>
        <pt x="1095" y="1446" on="1"/>
        <pt x="1210" y="1360" on="0"/>
        <pt x="1210" y="1160" on="1"/>
        <pt x="1210" y="350" on="1"/>
        <pt x="1210" y="0" on="0"/>
        <pt x="860" y="0" on="1"/>
      </contour>
      <contour>
        <pt x="550" y="180" on="1"/>
        <pt x="860" y="180" on="1"/>
        <pt x="1010" y="180" on="0"/>
        <pt x="1010" y="350" on="1"/>
        <pt x="1010" y="1160" on="1"/>
        <pt x="1010" y="1206" on="0"/>
        <pt x="999" y="1239" on="1"/>
        <pt x="508" y="184" on="1"/>
        <pt x="527" y="180" on="0"/>
      </contour>
      <contour>
        <pt x="411" y="270" on="1"/>
        <pt x="902" y="1326" on="1"/>
        <pt x="883" y="1330" on="0"/>
        <pt x="860" y="1330" on="1"/>
        <pt x="550" y="1330" on="1"/>
        <pt x="400" y="1330" on="0"/>
        <pt x="400" y="1160" on="1"/>
        <pt x="400" y="350" on="1"/>
        <pt x="400" y="304" on="0"/>
      </contour>
    </TTGlyph>
    <TTGlyph name="Oslashacute" xMin="200" yMin="-40" xMax="1210" yMax="1966">
      <contour>
        <pt x="550" y="0" on="1"/>
        <pt x="483" y="0" on="0"/>
        <pt x="429" y="13" on="1"/>
        <pt x="404" y="-40" on="1"/>
        <pt x="394" y="-40" on="1"/>
        <pt x="290" y="10" on="1"/>
        <pt x="315" y="64" on="1"/>
        <pt x="200" y="149" on="0"/>
        <pt x="200" y="350" on="1"/>
        <pt x="200" y="1160" on="1"/>
        <pt x="200" y="1510" on="0"/>
        <pt x="550" y="1510" on="1"/>
        <pt x="860" y="1510" on="1"/>
        <pt x="927" y="1510" on="0"/>
        <pt x="981" y="1497" on="1"/>
        <pt x="1006" y="1550" on="1"/>
        <pt x="1016" y="1550" on="1"/>
        <pt x="1120" y="1499" on="1"/>
        <pt x="1095" y="1446" on="1"/>
        <pt x="1210" y="1360" on="0"/>
        <pt x="1210" y="1160" on="1"/>
        <pt x="1210" y="350" on="1"/>
        <pt x="1210" y="0" on="0"/>
        <pt x="860" y="0" on="1"/>
      </contour>
      <contour>
        <pt x="550" y="180" on="1"/>
        <pt x="860" y="180" on="1"/>
        <pt x="1010" y="180" on="0"/>
        <pt x="1010" y="350" on="1"/>
        <pt x="1010" y="1160" on="1"/>
        <pt x="1010" y="1206" on="0"/>
        <pt x="999" y="1239" on="1"/>
        <pt x="508" y="184" on="1"/>
        <pt x="527" y="180" on="0"/>
      </contour>
      <contour>
        <pt x="411" y="270" on="1"/>
        <pt x="902" y="1326" on="1"/>
        <pt x="883" y="1330" on="0"/>
        <pt x="860" y="1330" on="1"/>
        <pt x="550" y="1330" on="1"/>
        <pt x="400" y="1330" on="0"/>
        <pt x="400" y="1160" on="1"/>
        <pt x="400" y="350" on="1"/>
        <pt x="400" y="304" on="0"/>
      </contour>
      <contour>
        <pt x="817" y="1966" on="1"/>
        <pt x="827" y="1966" on="1"/>
        <pt x="1003" y="1882" on="1"/>
        <pt x="782" y="1566" on="1"/>
        <pt x="772" y="1566" on="1"/>
        <pt x="655" y="1621" on="1"/>
      </contour>
    </TTGlyph>
    <TTGlyph name="Otilde" xMin="200" yMin="0" xMax="1210" yMax="1924">
      <contour>
        <pt x="550" y="180" on="1"/>
        <pt x="860" y="180" on="1"/>
        <pt x="1010" y="180" on="0"/>
        <pt x="1010" y="350" on="1"/>
        <pt x="1010" y="1160" on="1"/>
        <pt x="1010" y="1330" on="0"/>
        <pt x="860" y="1330" on="1"/>
        <pt x="550" y="1330" on="1"/>
        <pt x="400" y="1330" on="0"/>
        <pt x="400" y="1160" on="1"/>
        <pt x="400" y="350" on="1"/>
        <pt x="400" y="180" on="0"/>
      </contour>
      <contour>
        <pt x="550" y="0" on="1"/>
        <pt x="200" y="0" on="0"/>
        <pt x="200" y="350" on="1"/>
        <pt x="200" y="1160" on="1"/>
        <pt x="200" y="1510" on="0"/>
        <pt x="550" y="1510" on="1"/>
        <pt x="860" y="1510" on="1"/>
        <pt x="1210" y="1510" on="0"/>
        <pt x="1210" y="1160" on="1"/>
        <pt x="1210" y="350" on="1"/>
        <pt x="1210" y="0" on="0"/>
        <pt x="860" y="0" on="1"/>
      </contour>
      <contour>
        <pt x="471" y="1638" on="1"/>
        <pt x="471" y="1924" on="0"/>
        <pt x="612" y="1924" on="1"/>
        <pt x="676" y="1924" on="0"/>
        <pt x="749" y="1854" on="1"/>
        <pt x="800" y="1805" on="0"/>
        <pt x="824" y="1805" on="1"/>
        <pt x="858" y="1805" on="0"/>
        <pt x="858" y="1877" on="1"/>
        <pt x="968" y="1924" on="1"/>
        <pt x="974" y="1924" on="1"/>
        <pt x="974" y="1638" on="0"/>
        <pt x="833" y="1638" on="1"/>
        <pt x="769" y="1638" on="0"/>
        <pt x="696" y="1708" on="1"/>
        <pt x="645" y="1757" on="0"/>
        <pt x="621" y="1757" on="1"/>
        <pt x="587" y="1757" on="0"/>
        <pt x="587" y="1685" on="1"/>
        <pt x="477" y="1638" on="1"/>
      </contour>
    </TTGlyph>
    <TTGlyph name="P" xMin="200" yMin="-40" xMax="1190" yMax="1510">
      <contour>
        <pt x="200" y="-40" on="1"/>
        <pt x="200" y="1460" on="1"/>
        <pt x="306" y="1510" on="1"/>
        <pt x="840" y="1510" on="1"/>
        <pt x="1190" y="1510" on="0"/>
        <pt x="1190" y="1160" on="1"/>
        <pt x="1190" y="860" on="1"/>
        <pt x="1190" y="510" on="0"/>
        <pt x="840" y="510" on="1"/>
        <pt x="400" y="510" on="1"/>
        <pt x="400" y="50" on="1"/>
        <pt x="210" y="-40" on="1"/>
      </contour>
      <contour>
        <pt x="400" y="1330" on="1"/>
        <pt x="400" y="690" on="1"/>
        <pt x="840" y="690" on="1"/>
        <pt x="990" y="690" on="0"/>
        <pt x="990" y="860" on="1"/>
        <pt x="990" y="1160" on="1"/>
        <pt x="990" y="1330" on="0"/>
        <pt x="840" y="1330" on="1"/>
      </contour>
    </TTGlyph>
    <TTGlyph name="Pi" xMin="200" yMin="-40" xMax="1190" yMax="1510">
      <contour>
        <pt x="210" y="-40" on="1"/>
        <pt x="200" y="-40" on="1"/>
        <pt x="200" y="1460" on="1"/>
        <pt x="306" y="1510" on="1"/>
        <pt x="1190" y="1510" on="1"/>
        <pt x="1190" y="50" on="1"/>
        <pt x="1000" y="-40" on="1"/>
        <pt x="990" y="-40" on="1"/>
        <pt x="990" y="1328" on="1"/>
        <pt x="400" y="1328" on="1"/>
        <pt x="400" y="50" on="1"/>
      </contour>
    </TTGlyph>
    <TTGlyph name="Q" xMin="200" yMin="-40" xMax="1210" yMax="1510">
      <contour>
        <pt x="631" y="455" on="1"/>
        <pt x="807" y="538" on="1"/>
        <pt x="817" y="538" on="1"/>
        <pt x="1001" y="275" on="1"/>
        <pt x="1010" y="307" on="0"/>
        <pt x="1010" y="350" on="1"/>
        <pt x="1010" y="1160" on="1"/>
        <pt x="1010" y="1330" on="0"/>
        <pt x="860" y="1330" on="1"/>
        <pt x="550" y="1330" on="1"/>
        <pt x="400" y="1330" on="0"/>
        <pt x="400" y="1160" on="1"/>
        <pt x="400" y="350" on="1"/>
        <pt x="400" y="180" on="0"/>
        <pt x="550" y="180" on="1"/>
        <pt x="823" y="180" on="1"/>
      </contour>
      <contour>
        <pt x="550" y="0" on="1"/>
        <pt x="200" y="0" on="0"/>
        <pt x="200" y="350" on="1"/>
        <pt x="200" y="1160" on="1"/>
        <pt x="200" y="1510" on="0"/>
        <pt x="550" y="1510" on="1"/>
        <pt x="860" y="1510" on="1"/>
        <pt x="1210" y="1510" on="0"/>
        <pt x="1210" y="1160" on="1"/>
        <pt x="1210" y="350" on="1"/>
        <pt x="1210" y="181" on="0"/>
        <pt x="1128" y="93" on="1"/>
        <pt x="1163" y="43" on="1"/>
        <pt x="987" y="-40" on="1"/>
        <pt x="977" y="-40" on="1"/>
        <pt x="945" y="6" on="1"/>
        <pt x="905" y="0" on="0"/>
        <pt x="860" y="0" on="1"/>
      </contour>
    </TTGlyph>
    <TTGlyph name="R" xMin="200" yMin="-40" xMax="1214" yMax="1510">
      <contour>
        <pt x="400" y="1330" on="1"/>
        <pt x="400" y="690" on="1"/>
        <pt x="840" y="690" on="1"/>
        <pt x="990" y="690" on="0"/>
        <pt x="990" y="860" on="1"/>
        <pt x="990" y="1160" on="1"/>
        <pt x="990" y="1330" on="0"/>
        <pt x="840" y="1330" on="1"/>
      </contour>
      <contour>
        <pt x="200" y="-40" on="1"/>
        <pt x="200" y="1460" on="1"/>
        <pt x="306" y="1510" on="1"/>
        <pt x="840" y="1510" on="1"/>
        <pt x="1190" y="1510" on="0"/>
        <pt x="1190" y="1160" on="1"/>
        <pt x="1190" y="860" on="1"/>
        <pt x="1190" y="534" on="0"/>
        <pt x="887" y="512" on="1"/>
        <pt x="1214" y="43" on="1"/>
        <pt x="1038" y="-40" on="1"/>
        <pt x="1028" y="-40" on="1"/>
        <pt x="643" y="510" on="1"/>
        <pt x="400" y="510" on="1"/>
        <pt x="400" y="50" on="1"/>
        <pt x="210" y="-40" on="1"/>
      </contour>
    </TTGlyph>
    <TTGlyph name="Racute" xMin="200" yMin="-40" xMax="1214" yMax="1966">
      <contour>
        <pt x="400" y="1330" on="1"/>
        <pt x="400" y="690" on="1"/>
        <pt x="840" y="690" on="1"/>
        <pt x="990" y="690" on="0"/>
        <pt x="990" y="860" on="1"/>
        <pt x="990" y="1160" on="1"/>
        <pt x="990" y="1330" on="0"/>
        <pt x="840" y="1330" on="1"/>
      </contour>
      <contour>
        <pt x="200" y="-40" on="1"/>
        <pt x="200" y="1460" on="1"/>
        <pt x="306" y="1510" on="1"/>
        <pt x="840" y="1510" on="1"/>
        <pt x="1190" y="1510" on="0"/>
        <pt x="1190" y="1160" on="1"/>
        <pt x="1190" y="860" on="1"/>
        <pt x="1190" y="534" on="0"/>
        <pt x="887" y="512" on="1"/>
        <pt x="1214" y="43" on="1"/>
        <pt x="1038" y="-40" on="1"/>
        <pt x="1028" y="-40" on="1"/>
        <pt x="643" y="510" on="1"/>
        <pt x="400" y="510" on="1"/>
        <pt x="400" y="50" on="1"/>
        <pt x="210" y="-40" on="1"/>
      </contour>
      <contour>
        <pt x="700" y="1966" on="1"/>
        <pt x="710" y="1966" on="1"/>
        <pt x="886" y="1882" on="1"/>
        <pt x="665" y="1566" on="1"/>
        <pt x="655" y="1566" on="1"/>
        <pt x="538" y="1621" on="1"/>
      </contour>
    </TTGlyph>
    <TTGlyph name="Rcaron" xMin="200" yMin="-40" xMax="1214" yMax="1966">
      <contour>
        <pt x="400" y="1330" on="1"/>
        <pt x="400" y="690" on="1"/>
        <pt x="840" y="690" on="1"/>
        <pt x="990" y="690" on="0"/>
        <pt x="990" y="860" on="1"/>
        <pt x="990" y="1160" on="1"/>
        <pt x="990" y="1330" on="0"/>
        <pt x="840" y="1330" on="1"/>
      </contour>
      <contour>
        <pt x="200" y="-40" on="1"/>
        <pt x="200" y="1460" on="1"/>
        <pt x="306" y="1510" on="1"/>
        <pt x="840" y="1510" on="1"/>
        <pt x="1190" y="1510" on="0"/>
        <pt x="1190" y="1160" on="1"/>
        <pt x="1190" y="860" on="1"/>
        <pt x="1190" y="534" on="0"/>
        <pt x="887" y="512" on="1"/>
        <pt x="1214" y="43" on="1"/>
        <pt x="1038" y="-40" on="1"/>
        <pt x="1028" y="-40" on="1"/>
        <pt x="643" y="510" on="1"/>
        <pt x="400" y="510" on="1"/>
        <pt x="400" y="50" on="1"/>
        <pt x="210" y="-40" on="1"/>
      </contour>
      <contour>
        <pt x="587" y="1566" on="1"/>
        <pt x="374" y="1911" on="1"/>
        <pt x="490" y="1966" on="1"/>
        <pt x="500" y="1966" on="1"/>
        <pt x="650" y="1758" on="1"/>
        <pt x="798" y="1966" on="1"/>
        <pt x="808" y="1966" on="1"/>
        <pt x="926" y="1911" on="1"/>
        <pt x="773" y="1650" on="1"/>
        <pt x="597" y="1566" on="1"/>
      </contour>
    </TTGlyph>
    <TTGlyph name="Rcommaaccent" xMin="200" yMin="-450" xMax="1214" yMax="1510">
      <contour>
        <pt x="400" y="1330" on="1"/>
        <pt x="400" y="690" on="1"/>
        <pt x="840" y="690" on="1"/>
        <pt x="990" y="690" on="0"/>
        <pt x="990" y="860" on="1"/>
        <pt x="990" y="1160" on="1"/>
        <pt x="990" y="1330" on="0"/>
        <pt x="840" y="1330" on="1"/>
      </contour>
      <contour>
        <pt x="200" y="-40" on="1"/>
        <pt x="200" y="1460" on="1"/>
        <pt x="306" y="1510" on="1"/>
        <pt x="840" y="1510" on="1"/>
        <pt x="1190" y="1510" on="0"/>
        <pt x="1190" y="1160" on="1"/>
        <pt x="1190" y="860" on="1"/>
        <pt x="1190" y="534" on="0"/>
        <pt x="887" y="512" on="1"/>
        <pt x="1214" y="43" on="1"/>
        <pt x="1038" y="-40" on="1"/>
        <pt x="1028" y="-40" on="1"/>
        <pt x="643" y="510" on="1"/>
        <pt x="400" y="510" on="1"/>
        <pt x="400" y="50" on="1"/>
        <pt x="210" y="-40" on="1"/>
      </contour>
      <contour>
        <pt x="596" y="-450" on="1"/>
        <pt x="586" y="-450" on="1"/>
        <pt x="410" y="-366" on="1"/>
        <pt x="631" y="-50" on="1"/>
        <pt x="641" y="-50" on="1"/>
        <pt x="758" y="-105" on="1"/>
      </contour>
    </TTGlyph>
    <TTGlyph name="S" xMin="160" yMin="0" xMax="1170" yMax="1510">
      <contour>
        <pt x="510" y="0" on="1"/>
        <pt x="160" y="0" on="0"/>
        <pt x="160" y="350" on="1"/>
        <pt x="160" y="460" on="1"/>
        <pt x="350" y="550" on="1"/>
        <pt x="360" y="550" on="1"/>
        <pt x="360" y="350" on="1"/>
        <pt x="360" y="180" on="0"/>
        <pt x="510" y="180" on="1"/>
        <pt x="820" y="180" on="1"/>
        <pt x="970" y="180" on="0"/>
        <pt x="970" y="350" on="1"/>
        <pt x="970" y="560" on="1"/>
        <pt x="970" y="730" on="0"/>
        <pt x="820" y="730" on="1"/>
        <pt x="550" y="730" on="1"/>
        <pt x="250" y="730" on="0"/>
        <pt x="250" y="1030" on="1"/>
        <pt x="250" y="1210" on="1"/>
        <pt x="250" y="1510" on="0"/>
        <pt x="550" y="1510" on="1"/>
        <pt x="780" y="1510" on="1"/>
        <pt x="1080" y="1510" on="0"/>
        <pt x="1080" y="1210" on="1"/>
        <pt x="1080" y="1157" on="1"/>
        <pt x="890" y="1067" on="1"/>
        <pt x="880" y="1067" on="1"/>
        <pt x="880" y="1210" on="1"/>
        <pt x="880" y="1330" on="0"/>
        <pt x="780" y="1330" on="1"/>
        <pt x="550" y="1330" on="1"/>
        <pt x="450" y="1330" on="0"/>
        <pt x="450" y="1210" on="1"/>
        <pt x="450" y="1030" on="1"/>
        <pt x="450" y="910" on="0"/>
        <pt x="550" y="910" on="1"/>
        <pt x="820" y="910" on="1"/>
        <pt x="1170" y="910" on="0"/>
        <pt x="1170" y="560" on="1"/>
        <pt x="1170" y="350" on="1"/>
        <pt x="1170" y="0" on="0"/>
        <pt x="820" y="0" on="1"/>
      </contour>
    </TTGlyph>
    <TTGlyph name="Sacute" xMin="160" yMin="0" xMax="1170" yMax="1966">
      <contour>
        <pt x="510" y="0" on="1"/>
        <pt x="160" y="0" on="0"/>
        <pt x="160" y="350" on="1"/>
        <pt x="160" y="460" on="1"/>
        <pt x="350" y="550" on="1"/>
        <pt x="360" y="550" on="1"/>
        <pt x="360" y="350" on="1"/>
        <pt x="360" y="180" on="0"/>
        <pt x="510" y="180" on="1"/>
        <pt x="820" y="180" on="1"/>
        <pt x="970" y="180" on="0"/>
        <pt x="970" y="350" on="1"/>
        <pt x="970" y="560" on="1"/>
        <pt x="970" y="730" on="0"/>
        <pt x="820" y="730" on="1"/>
        <pt x="550" y="730" on="1"/>
        <pt x="250" y="730" on="0"/>
        <pt x="250" y="1030" on="1"/>
        <pt x="250" y="1210" on="1"/>
        <pt x="250" y="1510" on="0"/>
        <pt x="550" y="1510" on="1"/>
        <pt x="780" y="1510" on="1"/>
        <pt x="1080" y="1510" on="0"/>
        <pt x="1080" y="1210" on="1"/>
        <pt x="1080" y="1157" on="1"/>
        <pt x="890" y="1067" on="1"/>
        <pt x="880" y="1067" on="1"/>
        <pt x="880" y="1210" on="1"/>
        <pt x="880" y="1330" on="0"/>
        <pt x="780" y="1330" on="1"/>
        <pt x="550" y="1330" on="1"/>
        <pt x="450" y="1330" on="0"/>
        <pt x="450" y="1210" on="1"/>
        <pt x="450" y="1030" on="1"/>
        <pt x="450" y="910" on="0"/>
        <pt x="550" y="910" on="1"/>
        <pt x="820" y="910" on="1"/>
        <pt x="1170" y="910" on="0"/>
        <pt x="1170" y="560" on="1"/>
        <pt x="1170" y="350" on="1"/>
        <pt x="1170" y="0" on="0"/>
        <pt x="820" y="0" on="1"/>
      </contour>
      <contour>
        <pt x="781" y="1966" on="1"/>
        <pt x="791" y="1966" on="1"/>
        <pt x="967" y="1882" on="1"/>
        <pt x="746" y="1566" on="1"/>
        <pt x="736" y="1566" on="1"/>
        <pt x="619" y="1621" on="1"/>
      </contour>
    </TTGlyph>
    <TTGlyph name="Scaron" xMin="160" yMin="0" xMax="1170" yMax="1966">
      <contour>
        <pt x="510" y="0" on="1"/>
        <pt x="160" y="0" on="0"/>
        <pt x="160" y="350" on="1"/>
        <pt x="160" y="460" on="1"/>
        <pt x="350" y="550" on="1"/>
        <pt x="360" y="550" on="1"/>
        <pt x="360" y="350" on="1"/>
        <pt x="360" y="180" on="0"/>
        <pt x="510" y="180" on="1"/>
        <pt x="820" y="180" on="1"/>
        <pt x="970" y="180" on="0"/>
        <pt x="970" y="350" on="1"/>
        <pt x="970" y="560" on="1"/>
        <pt x="970" y="730" on="0"/>
        <pt x="820" y="730" on="1"/>
        <pt x="550" y="730" on="1"/>
        <pt x="250" y="730" on="0"/>
        <pt x="250" y="1030" on="1"/>
        <pt x="250" y="1210" on="1"/>
        <pt x="250" y="1510" on="0"/>
        <pt x="550" y="1510" on="1"/>
        <pt x="780" y="1510" on="1"/>
        <pt x="1080" y="1510" on="0"/>
        <pt x="1080" y="1210" on="1"/>
        <pt x="1080" y="1157" on="1"/>
        <pt x="890" y="1067" on="1"/>
        <pt x="880" y="1067" on="1"/>
        <pt x="880" y="1210" on="1"/>
        <pt x="880" y="1330" on="0"/>
        <pt x="780" y="1330" on="1"/>
        <pt x="550" y="1330" on="1"/>
        <pt x="450" y="1330" on="0"/>
        <pt x="450" y="1210" on="1"/>
        <pt x="450" y="1030" on="1"/>
        <pt x="450" y="910" on="0"/>
        <pt x="550" y="910" on="1"/>
        <pt x="820" y="910" on="1"/>
        <pt x="1170" y="910" on="0"/>
        <pt x="1170" y="560" on="1"/>
        <pt x="1170" y="350" on="1"/>
        <pt x="1170" y="0" on="0"/>
        <pt x="820" y="0" on="1"/>
      </contour>
      <contour>
        <pt x="568" y="1566" on="1"/>
        <pt x="355" y="1911" on="1"/>
        <pt x="471" y="1966" on="1"/>
        <pt x="481" y="1966" on="1"/>
        <pt x="631" y="1758" on="1"/>
        <pt x="779" y="1966" on="1"/>
        <pt x="789" y="1966" on="1"/>
        <pt x="907" y="1911" on="1"/>
        <pt x="754" y="1650" on="1"/>
        <pt x="578" y="1566" on="1"/>
      </contour>
    </TTGlyph>
    <TTGlyph name="Scedilla" xMin="160" yMin="-450" xMax="1170" yMax="1510">
      <contour>
        <pt x="510" y="0" on="1"/>
        <pt x="160" y="0" on="0"/>
        <pt x="160" y="350" on="1"/>
        <pt x="160" y="460" on="1"/>
        <pt x="350" y="550" on="1"/>
        <pt x="360" y="550" on="1"/>
        <pt x="360" y="350" on="1"/>
        <pt x="360" y="180" on="0"/>
        <pt x="510" y="180" on="1"/>
        <pt x="820" y="180" on="1"/>
        <pt x="970" y="180" on="0"/>
        <pt x="970" y="350" on="1"/>
        <pt x="970" y="560" on="1"/>
        <pt x="970" y="730" on="0"/>
        <pt x="820" y="730" on="1"/>
        <pt x="550" y="730" on="1"/>
        <pt x="250" y="730" on="0"/>
        <pt x="250" y="1030" on="1"/>
        <pt x="250" y="1210" on="1"/>
        <pt x="250" y="1510" on="0"/>
        <pt x="550" y="1510" on="1"/>
        <pt x="780" y="1510" on="1"/>
        <pt x="1080" y="1510" on="0"/>
        <pt x="1080" y="1210" on="1"/>
        <pt x="1080" y="1157" on="1"/>
        <pt x="890" y="1067" on="1"/>
        <pt x="880" y="1067" on="1"/>
        <pt x="880" y="1210" on="1"/>
        <pt x="880" y="1330" on="0"/>
        <pt x="780" y="1330" on="1"/>
        <pt x="550" y="1330" on="1"/>
        <pt x="450" y="1330" on="0"/>
        <pt x="450" y="1210" on="1"/>
        <pt x="450" y="1030" on="1"/>
        <pt x="450" y="910" on="0"/>
        <pt x="550" y="910" on="1"/>
        <pt x="820" y="910" on="1"/>
        <pt x="1170" y="910" on="0"/>
        <pt x="1170" y="560" on="1"/>
        <pt x="1170" y="350" on="1"/>
        <pt x="1170" y="0" on="0"/>
        <pt x="820" y="0" on="1"/>
        <pt x="732" y="0" on="1"/>
        <pt x="806" y="-85" on="0"/>
        <pt x="806" y="-206" on="1"/>
        <pt x="806" y="-343" on="0"/>
        <pt x="697" y="-450" on="1"/>
        <pt x="687" y="-450" on="1"/>
        <pt x="497" y="-360" on="1"/>
        <pt x="631" y="-273" on="0"/>
        <pt x="631" y="-152" on="1"/>
        <pt x="631" y="-75" on="0"/>
        <pt x="583" y="0" on="1"/>
      </contour>
    </TTGlyph>
    <TTGlyph name="Scircumflex" xMin="160" yMin="0" xMax="1170" yMax="1966">
      <contour>
        <pt x="510" y="0" on="1"/>
        <pt x="160" y="0" on="0"/>
        <pt x="160" y="350" on="1"/>
        <pt x="160" y="460" on="1"/>
        <pt x="350" y="550" on="1"/>
        <pt x="360" y="550" on="1"/>
        <pt x="360" y="350" on="1"/>
        <pt x="360" y="180" on="0"/>
        <pt x="510" y="180" on="1"/>
        <pt x="820" y="180" on="1"/>
        <pt x="970" y="180" on="0"/>
        <pt x="970" y="350" on="1"/>
        <pt x="970" y="560" on="1"/>
        <pt x="970" y="730" on="0"/>
        <pt x="820" y="730" on="1"/>
        <pt x="550" y="730" on="1"/>
        <pt x="250" y="730" on="0"/>
        <pt x="250" y="1030" on="1"/>
        <pt x="250" y="1210" on="1"/>
        <pt x="250" y="1510" on="0"/>
        <pt x="550" y="1510" on="1"/>
        <pt x="780" y="1510" on="1"/>
        <pt x="1080" y="1510" on="0"/>
        <pt x="1080" y="1210" on="1"/>
        <pt x="1080" y="1157" on="1"/>
        <pt x="890" y="1067" on="1"/>
        <pt x="880" y="1067" on="1"/>
        <pt x="880" y="1210" on="1"/>
        <pt x="880" y="1330" on="0"/>
        <pt x="780" y="1330" on="1"/>
        <pt x="550" y="1330" on="1"/>
        <pt x="450" y="1330" on="0"/>
        <pt x="450" y="1210" on="1"/>
        <pt x="450" y="1030" on="1"/>
        <pt x="450" y="910" on="0"/>
        <pt x="550" y="910" on="1"/>
        <pt x="820" y="910" on="1"/>
        <pt x="1170" y="910" on="0"/>
        <pt x="1170" y="560" on="1"/>
        <pt x="1170" y="350" on="1"/>
        <pt x="1170" y="0" on="0"/>
        <pt x="820" y="0" on="1"/>
      </contour>
      <contour>
        <pt x="390" y="1621" on="1"/>
        <pt x="543" y="1882" on="1"/>
        <pt x="719" y="1966" on="1"/>
        <pt x="729" y="1966" on="1"/>
        <pt x="942" y="1621" on="1"/>
        <pt x="826" y="1566" on="1"/>
        <pt x="816" y="1566" on="1"/>
        <pt x="666" y="1774" on="1"/>
        <pt x="518" y="1566" on="1"/>
        <pt x="508" y="1566" on="1"/>
      </contour>
    </TTGlyph>
    <TTGlyph name="Scommaaccent" xMin="160" yMin="-450" xMax="1170" yMax="1510">
      <contour>
        <pt x="510" y="0" on="1"/>
        <pt x="160" y="0" on="0"/>
        <pt x="160" y="350" on="1"/>
        <pt x="160" y="460" on="1"/>
        <pt x="350" y="550" on="1"/>
        <pt x="360" y="550" on="1"/>
        <pt x="360" y="350" on="1"/>
        <pt x="360" y="180" on="0"/>
        <pt x="510" y="180" on="1"/>
        <pt x="820" y="180" on="1"/>
        <pt x="970" y="180" on="0"/>
        <pt x="970" y="350" on="1"/>
        <pt x="970" y="560" on="1"/>
        <pt x="970" y="730" on="0"/>
        <pt x="820" y="730" on="1"/>
        <pt x="550" y="730" on="1"/>
        <pt x="250" y="730" on="0"/>
        <pt x="250" y="1030" on="1"/>
        <pt x="250" y="1210" on="1"/>
        <pt x="250" y="1510" on="0"/>
        <pt x="550" y="1510" on="1"/>
        <pt x="780" y="1510" on="1"/>
        <pt x="1080" y="1510" on="0"/>
        <pt x="1080" y="1210" on="1"/>
        <pt x="1080" y="1157" on="1"/>
        <pt x="890" y="1067" on="1"/>
        <pt x="880" y="1067" on="1"/>
        <pt x="880" y="1210" on="1"/>
        <pt x="880" y="1330" on="0"/>
        <pt x="780" y="1330" on="1"/>
        <pt x="550" y="1330" on="1"/>
        <pt x="450" y="1330" on="0"/>
        <pt x="450" y="1210" on="1"/>
        <pt x="450" y="1030" on="1"/>
        <pt x="450" y="910" on="0"/>
        <pt x="550" y="910" on="1"/>
        <pt x="820" y="910" on="1"/>
        <pt x="1170" y="910" on="0"/>
        <pt x="1170" y="560" on="1"/>
        <pt x="1170" y="350" on="1"/>
        <pt x="1170" y="0" on="0"/>
        <pt x="820" y="0" on="1"/>
      </contour>
      <contour>
        <pt x="561" y="-450" on="1"/>
        <pt x="551" y="-450" on="1"/>
        <pt x="375" y="-366" on="1"/>
        <pt x="596" y="-50" on="1"/>
        <pt x="606" y="-50" on="1"/>
        <pt x="723" y="-105" on="1"/>
      </contour>
    </TTGlyph>
    <TTGlyph name="Sigma" xMin="100" yMin="0" xMax="1053" yMax="1510">
      <contour>
        <pt x="100" y="0" on="1"/>
        <pt x="605" y="774" on="1"/>
        <pt x="101" y="1460" on="1"/>
        <pt x="207" y="1510" on="1"/>
        <pt x="962" y="1510" on="1"/>
        <pt x="962" y="1500" on="1"/>
        <pt x="881" y="1328" on="1"/>
        <pt x="416" y="1328" on="1"/>
        <pt x="837" y="774" on="1"/>
        <pt x="430" y="182" on="1"/>
        <pt x="1053" y="182" on="1"/>
        <pt x="1053" y="172" on="1"/>
        <pt x="972" y="0" on="1"/>
      </contour>
    </TTGlyph>
    <TTGlyph name="T" xMin="5" yMin="-40" xMax="1061" yMax="1510">
      <contour>
        <pt x="433" y="-40" on="1"/>
        <pt x="433" y="1328" on="1"/>
        <pt x="5" y="1328" on="1"/>
        <pt x="5" y="1338" on="1"/>
        <pt x="86" y="1510" on="1"/>
        <pt x="1061" y="1510" on="1"/>
        <pt x="1061" y="1500" on="1"/>
        <pt x="980" y="1328" on="1"/>
        <pt x="633" y="1328" on="1"/>
        <pt x="633" y="50" on="1"/>
        <pt x="443" y="-40" on="1"/>
      </contour>
    </TTGlyph>
    <TTGlyph name="Tbar" xMin="5" yMin="-40" xMax="1061" yMax="1510">
      <contour>
        <pt x="433" y="-40" on="1"/>
        <pt x="433" y="664" on="1"/>
        <pt x="227" y="664" on="1"/>
        <pt x="227" y="674" on="1"/>
        <pt x="308" y="846" on="1"/>
        <pt x="433" y="846" on="1"/>
        <pt x="433" y="1328" on="1"/>
        <pt x="5" y="1328" on="1"/>
        <pt x="5" y="1338" on="1"/>
        <pt x="86" y="1510" on="1"/>
        <pt x="1061" y="1510" on="1"/>
        <pt x="1061" y="1500" on="1"/>
        <pt x="980" y="1328" on="1"/>
        <pt x="633" y="1328" on="1"/>
        <pt x="633" y="846" on="1"/>
        <pt x="839" y="846" on="1"/>
        <pt x="839" y="836" on="1"/>
        <pt x="758" y="664" on="1"/>
        <pt x="633" y="664" on="1"/>
        <pt x="633" y="50" on="1"/>
        <pt x="443" y="-40" on="1"/>
      </contour>
    </TTGlyph>
    <TTGlyph name="Tcaron" xMin="5" yMin="-40" xMax="1061" yMax="1966">
      <contour>
        <pt x="448" y="1566" on="1"/>
        <pt x="235" y="1911" on="1"/>
        <pt x="351" y="1966" on="1"/>
        <pt x="361" y="1966" on="1"/>
        <pt x="511" y="1758" on="1"/>
        <pt x="659" y="1966" on="1"/>
        <pt x="669" y="1966" on="1"/>
        <pt x="787" y="1911" on="1"/>
        <pt x="634" y="1650" on="1"/>
        <pt x="458" y="1566" on="1"/>
      </contour>
      <contour>
        <pt x="433" y="-40" on="1"/>
        <pt x="433" y="1328" on="1"/>
        <pt x="5" y="1328" on="1"/>
        <pt x="5" y="1338" on="1"/>
        <pt x="86" y="1510" on="1"/>
        <pt x="1061" y="1510" on="1"/>
        <pt x="1061" y="1500" on="1"/>
        <pt x="980" y="1328" on="1"/>
        <pt x="633" y="1328" on="1"/>
        <pt x="633" y="50" on="1"/>
        <pt x="443" y="-40" on="1"/>
      </contour>
    </TTGlyph>
    <TTGlyph name="Tcommaaccent" xMin="5" yMin="-450" xMax="1061" yMax="1510">
      <contour>
        <pt x="433" y="-40" on="1"/>
        <pt x="433" y="1328" on="1"/>
        <pt x="5" y="1328" on="1"/>
        <pt x="5" y="1338" on="1"/>
        <pt x="86" y="1510" on="1"/>
        <pt x="1061" y="1510" on="1"/>
        <pt x="1061" y="1500" on="1"/>
        <pt x="980" y="1328" on="1"/>
        <pt x="633" y="1328" on="1"/>
        <pt x="633" y="52" on="1"/>
        <pt x="779" y="-59" on="0"/>
        <pt x="779" y="-206" on="1"/>
        <pt x="779" y="-343" on="0"/>
        <pt x="670" y="-450" on="1"/>
        <pt x="660" y="-450" on="1"/>
        <pt x="470" y="-360" on="1"/>
        <pt x="604" y="-273" on="0"/>
        <pt x="604" y="-152" on="1"/>
        <pt x="604" y="-77" on="0"/>
        <pt x="541" y="6" on="1"/>
        <pt x="443" y="-40" on="1"/>
      </contour>
    </TTGlyph>
    <TTGlyph name="Thorn" xMin="200" yMin="-40" xMax="1190" yMax="1550">
      <contour>
        <pt x="200" y="-40" on="1"/>
        <pt x="200" y="1460" on="1"/>
        <pt x="390" y="1550" on="1"/>
        <pt x="400" y="1550" on="1"/>
        <pt x="400" y="1270" on="1"/>
        <pt x="840" y="1270" on="1"/>
        <pt x="1190" y="1270" on="0"/>
        <pt x="1190" y="920" on="1"/>
        <pt x="1190" y="620" on="1"/>
        <pt x="1190" y="270" on="0"/>
        <pt x="840" y="270" on="1"/>
        <pt x="400" y="270" on="1"/>
        <pt x="400" y="50" on="1"/>
        <pt x="210" y="-40" on="1"/>
      </contour>
      <contour>
        <pt x="400" y="450" on="1"/>
        <pt x="840" y="450" on="1"/>
        <pt x="990" y="450" on="0"/>
        <pt x="990" y="620" on="1"/>
        <pt x="990" y="920" on="1"/>
        <pt x="990" y="1090" on="0"/>
        <pt x="840" y="1090" on="1"/>
        <pt x="400" y="1090" on="1"/>
      </contour>
    </TTGlyph>
    <TTGlyph name="U" xMin="200" yMin="0" xMax="1210" yMax="1550">
      <contour>
        <pt x="550" y="0" on="1"/>
        <pt x="200" y="0" on="0"/>
        <pt x="200" y="350" on="1"/>
        <pt x="200" y="1460" on="1"/>
        <pt x="390" y="1550" on="1"/>
        <pt x="400" y="1550" on="1"/>
        <pt x="400" y="350" on="1"/>
        <pt x="400" y="180" on="0"/>
        <pt x="550" y="180" on="1"/>
        <pt x="860" y="180" on="1"/>
        <pt x="1010" y="180" on="0"/>
        <pt x="1010" y="350" on="1"/>
        <pt x="1010" y="1460" on="1"/>
        <pt x="1200" y="1550" on="1"/>
        <pt x="1210" y="1550" on="1"/>
        <pt x="1210" y="350" on="1"/>
        <pt x="1210" y="0" on="0"/>
        <pt x="860" y="0" on="1"/>
      </contour>
    </TTGlyph>
    <TTGlyph name="Uacute" xMin="200" yMin="0" xMax="1210" yMax="1966">
      <contour>
        <pt x="550" y="0" on="1"/>
        <pt x="200" y="0" on="0"/>
        <pt x="200" y="350" on="1"/>
        <pt x="200" y="1460" on="1"/>
        <pt x="390" y="1550" on="1"/>
        <pt x="400" y="1550" on="1"/>
        <pt x="400" y="350" on="1"/>
        <pt x="400" y="180" on="0"/>
        <pt x="550" y="180" on="1"/>
        <pt x="860" y="180" on="1"/>
        <pt x="1010" y="180" on="0"/>
        <pt x="1010" y="350" on="1"/>
        <pt x="1010" y="1460" on="1"/>
        <pt x="1200" y="1550" on="1"/>
        <pt x="1210" y="1550" on="1"/>
        <pt x="1210" y="350" on="1"/>
        <pt x="1210" y="0" on="0"/>
        <pt x="860" y="0" on="1"/>
      </contour>
      <contour>
        <pt x="817" y="1966" on="1"/>
        <pt x="827" y="1966" on="1"/>
        <pt x="1003" y="1882" on="1"/>
        <pt x="782" y="1566" on="1"/>
        <pt x="772" y="1566" on="1"/>
        <pt x="655" y="1621" on="1"/>
      </contour>
    </TTGlyph>
    <TTGlyph name="Ubreve" xMin="200" yMin="0" xMax="1210" yMax="1947">
      <contour>
        <pt x="550" y="0" on="1"/>
        <pt x="200" y="0" on="0"/>
        <pt x="200" y="350" on="1"/>
        <pt x="200" y="1460" on="1"/>
        <pt x="390" y="1550" on="1"/>
        <pt x="400" y="1550" on="1"/>
        <pt x="400" y="350" on="1"/>
        <pt x="400" y="180" on="0"/>
        <pt x="550" y="180" on="1"/>
        <pt x="860" y="180" on="1"/>
        <pt x="1010" y="180" on="0"/>
        <pt x="1010" y="350" on="1"/>
        <pt x="1010" y="1460" on="1"/>
        <pt x="1200" y="1550" on="1"/>
        <pt x="1210" y="1550" on="1"/>
        <pt x="1210" y="350" on="1"/>
        <pt x="1210" y="0" on="0"/>
        <pt x="860" y="0" on="1"/>
      </contour>
      <contour>
        <pt x="468" y="1788" on="1"/>
        <pt x="468" y="1798" on="1"/>
        <pt x="542" y="1947" on="1"/>
        <pt x="614" y="1813" on="0"/>
        <pt x="814" y="1813" on="0"/>
        <pt x="886" y="1947" on="1"/>
        <pt x="962" y="1798" on="1"/>
        <pt x="962" y="1788" on="1"/>
        <pt x="860" y="1638" on="0"/>
        <pt x="712" y="1638" on="1"/>
        <pt x="558" y="1638" on="0"/>
      </contour>
    </TTGlyph>
    <TTGlyph name="Ucircumflex" xMin="200" yMin="0" xMax="1210" yMax="1966">
      <contour>
        <pt x="550" y="0" on="1"/>
        <pt x="200" y="0" on="0"/>
        <pt x="200" y="350" on="1"/>
        <pt x="200" y="1460" on="1"/>
        <pt x="390" y="1550" on="1"/>
        <pt x="400" y="1550" on="1"/>
        <pt x="400" y="350" on="1"/>
        <pt x="400" y="180" on="0"/>
        <pt x="550" y="180" on="1"/>
        <pt x="860" y="180" on="1"/>
        <pt x="1010" y="180" on="0"/>
        <pt x="1010" y="350" on="1"/>
        <pt x="1010" y="1460" on="1"/>
        <pt x="1200" y="1550" on="1"/>
        <pt x="1210" y="1550" on="1"/>
        <pt x="1210" y="350" on="1"/>
        <pt x="1210" y="0" on="0"/>
        <pt x="860" y="0" on="1"/>
      </contour>
      <contour>
        <pt x="434" y="1621" on="1"/>
        <pt x="587" y="1882" on="1"/>
        <pt x="763" y="1966" on="1"/>
        <pt x="773" y="1966" on="1"/>
        <pt x="986" y="1621" on="1"/>
        <pt x="870" y="1566" on="1"/>
        <pt x="860" y="1566" on="1"/>
        <pt x="710" y="1774" on="1"/>
        <pt x="562" y="1566" on="1"/>
        <pt x="552" y="1566" on="1"/>
      </contour>
    </TTGlyph>
    <TTGlyph name="Udieresis" xMin="200" yMin="0" xMax="1210" yMax="1925">
      <contour>
        <pt x="550" y="0" on="1"/>
        <pt x="200" y="0" on="0"/>
        <pt x="200" y="350" on="1"/>
        <pt x="200" y="1460" on="1"/>
        <pt x="390" y="1550" on="1"/>
        <pt x="400" y="1550" on="1"/>
        <pt x="400" y="350" on="1"/>
        <pt x="400" y="180" on="0"/>
        <pt x="550" y="180" on="1"/>
        <pt x="860" y="180" on="1"/>
        <pt x="1010" y="180" on="0"/>
        <pt x="1010" y="350" on="1"/>
        <pt x="1010" y="1460" on="1"/>
        <pt x="1200" y="1550" on="1"/>
        <pt x="1210" y="1550" on="1"/>
        <pt x="1210" y="350" on="1"/>
        <pt x="1210" y="0" on="0"/>
        <pt x="860" y="0" on="1"/>
      </contour>
      <contour>
        <pt x="742" y="1752" on="0"/>
        <pt x="742" y="1853" on="0"/>
        <pt x="812" y="1925" on="0"/>
        <pt x="912" y="1925" on="0"/>
        <pt x="982" y="1853" on="0"/>
        <pt x="982" y="1752" on="0"/>
        <pt x="912" y="1680" on="0"/>
        <pt x="812" y="1680" on="0"/>
      </contour>
      <contour>
        <pt x="442" y="1752" on="0"/>
        <pt x="442" y="1853" on="0"/>
        <pt x="512" y="1925" on="0"/>
        <pt x="612" y="1925" on="0"/>
        <pt x="682" y="1853" on="0"/>
        <pt x="682" y="1752" on="0"/>
        <pt x="612" y="1680" on="0"/>
        <pt x="512" y="1680" on="0"/>
      </contour>
    </TTGlyph>
    <TTGlyph name="Ugrave" xMin="200" yMin="0" xMax="1210" yMax="1966">
      <contour>
        <pt x="550" y="0" on="1"/>
        <pt x="200" y="0" on="0"/>
        <pt x="200" y="350" on="1"/>
        <pt x="200" y="1460" on="1"/>
        <pt x="390" y="1550" on="1"/>
        <pt x="400" y="1550" on="1"/>
        <pt x="400" y="350" on="1"/>
        <pt x="400" y="180" on="0"/>
        <pt x="550" y="180" on="1"/>
        <pt x="860" y="180" on="1"/>
        <pt x="1010" y="180" on="0"/>
        <pt x="1010" y="350" on="1"/>
        <pt x="1010" y="1460" on="1"/>
        <pt x="1200" y="1550" on="1"/>
        <pt x="1210" y="1550" on="1"/>
        <pt x="1210" y="350" on="1"/>
        <pt x="1210" y="0" on="0"/>
        <pt x="860" y="0" on="1"/>
      </contour>
      <contour>
        <pt x="596" y="1966" on="1"/>
        <pt x="606" y="1966" on="1"/>
        <pt x="768" y="1621" on="1"/>
        <pt x="651" y="1566" on="1"/>
        <pt x="641" y="1566" on="1"/>
        <pt x="420" y="1882" on="1"/>
      </contour>
    </TTGlyph>
    <TTGlyph name="Uhungarumlaut" xMin="200" yMin="0" xMax="1210" yMax="1966">
      <contour>
        <pt x="550" y="0" on="1"/>
        <pt x="200" y="0" on="0"/>
        <pt x="200" y="350" on="1"/>
        <pt x="200" y="1460" on="1"/>
        <pt x="390" y="1550" on="1"/>
        <pt x="400" y="1550" on="1"/>
        <pt x="400" y="350" on="1"/>
        <pt x="400" y="180" on="0"/>
        <pt x="550" y="180" on="1"/>
        <pt x="860" y="180" on="1"/>
        <pt x="1010" y="180" on="0"/>
        <pt x="1010" y="350" on="1"/>
        <pt x="1010" y="1460" on="1"/>
        <pt x="1200" y="1550" on="1"/>
        <pt x="1210" y="1550" on="1"/>
        <pt x="1210" y="350" on="1"/>
        <pt x="1210" y="0" on="0"/>
        <pt x="860" y="0" on="1"/>
      </contour>
      <contour>
        <pt x="933" y="1966" on="1"/>
        <pt x="943" y="1966" on="1"/>
        <pt x="1119" y="1882" on="1"/>
        <pt x="898" y="1566" on="1"/>
        <pt x="888" y="1566" on="1"/>
        <pt x="771" y="1621" on="1"/>
      </contour>
      <contour>
        <pt x="656" y="1966" on="1"/>
        <pt x="666" y="1966" on="1"/>
        <pt x="842" y="1882" on="1"/>
        <pt x="621" y="1566" on="1"/>
        <pt x="611" y="1566" on="1"/>
        <pt x="494" y="1621" on="1"/>
      </contour>
    </TTGlyph>
    <TTGlyph name="Umacron" xMin="200" yMin="0" xMax="1210" yMax="1820">
      <contour>
        <pt x="550" y="0" on="1"/>
        <pt x="200" y="0" on="0"/>
        <pt x="200" y="350" on="1"/>
        <pt x="200" y="1460" on="1"/>
        <pt x="390" y="1550" on="1"/>
        <pt x="400" y="1550" on="1"/>
        <pt x="400" y="350" on="1"/>
        <pt x="400" y="180" on="0"/>
        <pt x="550" y="180" on="1"/>
        <pt x="860" y="180" on="1"/>
        <pt x="1010" y="180" on="0"/>
        <pt x="1010" y="350" on="1"/>
        <pt x="1010" y="1460" on="1"/>
        <pt x="1200" y="1550" on="1"/>
        <pt x="1210" y="1550" on="1"/>
        <pt x="1210" y="350" on="1"/>
        <pt x="1210" y="0" on="0"/>
        <pt x="860" y="0" on="1"/>
      </contour>
      <contour>
        <pt x="467" y="1638" on="1"/>
        <pt x="467" y="1648" on="1"/>
        <pt x="548" y="1820" on="1"/>
        <pt x="1006" y="1820" on="1"/>
        <pt x="1006" y="1810" on="1"/>
        <pt x="925" y="1638" on="1"/>
      </contour>
    </TTGlyph>
    <TTGlyph name="Uogonek" xMin="200" yMin="-450" xMax="1210" yMax="1550">
      <contour>
        <pt x="550" y="0" on="1"/>
        <pt x="200" y="0" on="0"/>
        <pt x="200" y="350" on="1"/>
        <pt x="200" y="1460" on="1"/>
        <pt x="390" y="1550" on="1"/>
        <pt x="400" y="1550" on="1"/>
        <pt x="400" y="350" on="1"/>
        <pt x="400" y="180" on="0"/>
        <pt x="550" y="180" on="1"/>
        <pt x="860" y="180" on="1"/>
        <pt x="1010" y="180" on="0"/>
        <pt x="1010" y="350" on="1"/>
        <pt x="1010" y="1460" on="1"/>
        <pt x="1200" y="1550" on="1"/>
        <pt x="1210" y="1550" on="1"/>
        <pt x="1210" y="350" on="1"/>
        <pt x="1210" y="51" on="0"/>
        <pt x="954" y="7" on="1"/>
        <pt x="888" y="-60" on="0"/>
        <pt x="888" y="-152" on="1"/>
        <pt x="888" y="-273" on="0"/>
        <pt x="1022" y="-360" on="1"/>
        <pt x="832" y="-450" on="1"/>
        <pt x="822" y="-450" on="1"/>
        <pt x="713" y="-343" on="0"/>
        <pt x="713" y="-206" on="1"/>
        <pt x="713" y="-86" on="0"/>
        <pt x="786" y="0" on="1"/>
      </contour>
    </TTGlyph>
    <TTGlyph name="Uring" xMin="200" yMin="0" xMax="1210" yMax="1966">
      <contour>
        <pt x="550" y="0" on="1"/>
        <pt x="200" y="0" on="0"/>
        <pt x="200" y="350" on="1"/>
        <pt x="200" y="1460" on="1"/>
        <pt x="390" y="1550" on="1"/>
        <pt x="400" y="1550" on="1"/>
        <pt x="400" y="350" on="1"/>
        <pt x="400" y="180" on="0"/>
        <pt x="550" y="180" on="1"/>
        <pt x="860" y="180" on="1"/>
        <pt x="1010" y="180" on="0"/>
        <pt x="1010" y="350" on="1"/>
        <pt x="1010" y="1460" on="1"/>
        <pt x="1200" y="1550" on="1"/>
        <pt x="1210" y="1550" on="1"/>
        <pt x="1210" y="350" on="1"/>
        <pt x="1210" y="0" on="0"/>
        <pt x="860" y="0" on="1"/>
      </contour>
      <contour>
        <pt x="785" y="1588" on="0"/>
        <pt x="625" y="1588" on="0"/>
        <pt x="570" y="1637" on="1"/>
        <pt x="508" y="1692" on="0"/>
        <pt x="508" y="1777" on="1"/>
        <pt x="508" y="1860" on="0"/>
        <pt x="570" y="1917" on="1"/>
        <pt x="623" y="1966" on="0"/>
        <pt x="705" y="1966" on="1"/>
        <pt x="785" y="1966" on="0"/>
        <pt x="840" y="1917" on="1"/>
        <pt x="902" y="1862" on="0"/>
        <pt x="902" y="1692" on="0"/>
        <pt x="840" y="1637" on="1"/>
      </contour>
      <contour>
        <pt x="705" y="1862" on="1"/>
        <pt x="671" y="1862" on="0"/>
        <pt x="631" y="1820" on="0"/>
        <pt x="631" y="1777" on="1"/>
        <pt x="631" y="1731" on="0"/>
        <pt x="652" y="1712" on="1"/>
        <pt x="674" y="1692" on="0"/>
        <pt x="704" y="1692" on="1"/>
        <pt x="735" y="1692" on="0"/>
        <pt x="757" y="1714" on="1"/>
        <pt x="777" y="1733" on="0"/>
        <pt x="777" y="1777" on="1"/>
        <pt x="777" y="1822" on="0"/>
        <pt x="755" y="1843" on="1"/>
        <pt x="735" y="1862" on="0"/>
      </contour>
    </TTGlyph>
    <TTGlyph name="Utilde" xMin="200" yMin="0" xMax="1210" yMax="1924">
      <contour>
        <pt x="550" y="0" on="1"/>
        <pt x="200" y="0" on="0"/>
        <pt x="200" y="350" on="1"/>
        <pt x="200" y="1460" on="1"/>
        <pt x="390" y="1550" on="1"/>
        <pt x="400" y="1550" on="1"/>
        <pt x="400" y="350" on="1"/>
        <pt x="400" y="180" on="0"/>
        <pt x="550" y="180" on="1"/>
        <pt x="860" y="180" on="1"/>
        <pt x="1010" y="180" on="0"/>
        <pt x="1010" y="350" on="1"/>
        <pt x="1010" y="1460" on="1"/>
        <pt x="1200" y="1550" on="1"/>
        <pt x="1210" y="1550" on="1"/>
        <pt x="1210" y="350" on="1"/>
        <pt x="1210" y="0" on="0"/>
        <pt x="860" y="0" on="1"/>
      </contour>
      <contour>
        <pt x="471" y="1638" on="1"/>
        <pt x="471" y="1924" on="0"/>
        <pt x="612" y="1924" on="1"/>
        <pt x="676" y="1924" on="0"/>
        <pt x="749" y="1854" on="1"/>
        <pt x="800" y="1805" on="0"/>
        <pt x="824" y="1805" on="1"/>
        <pt x="858" y="1805" on="0"/>
        <pt x="858" y="1877" on="1"/>
        <pt x="968" y="1924" on="1"/>
        <pt x="974" y="1924" on="1"/>
        <pt x="974" y="1638" on="0"/>
        <pt x="833" y="1638" on="1"/>
        <pt x="769" y="1638" on="0"/>
        <pt x="696" y="1708" on="1"/>
        <pt x="645" y="1757" on="0"/>
        <pt x="621" y="1757" on="1"/>
        <pt x="587" y="1757" on="0"/>
        <pt x="587" y="1685" on="1"/>
        <pt x="477" y="1638" on="1"/>
      </contour>
    </TTGlyph>
    <TTGlyph name="V" xMin="5" yMin="-40" xMax="1176" yMax="1550">
      <contour>
        <pt x="515" y="-40" on="1"/>
        <pt x="5" y="1468" on="1"/>
        <pt x="178" y="1550" on="1"/>
        <pt x="188" y="1550" on="1"/>
        <pt x="602" y="294" on="1"/>
        <pt x="993" y="1550" on="1"/>
        <pt x="1003" y="1550" on="1"/>
        <pt x="1176" y="1468" on="1"/>
        <pt x="698" y="42" on="1"/>
        <pt x="525" y="-40" on="1"/>
      </contour>
    </TTGlyph>
    <TTGlyph name="W" xMin="200" yMin="0" xMax="2020" yMax="1550">
      <contour>
        <pt x="550" y="0" on="1"/>
        <pt x="200" y="0" on="0"/>
        <pt x="200" y="350" on="1"/>
        <pt x="200" y="1460" on="1"/>
        <pt x="390" y="1550" on="1"/>
        <pt x="400" y="1550" on="1"/>
        <pt x="400" y="350" on="1"/>
        <pt x="400" y="180" on="0"/>
        <pt x="550" y="180" on="1"/>
        <pt x="860" y="180" on="1"/>
        <pt x="1010" y="180" on="0"/>
        <pt x="1010" y="350" on="1"/>
        <pt x="1010" y="1460" on="1"/>
        <pt x="1200" y="1550" on="1"/>
        <pt x="1210" y="1550" on="1"/>
        <pt x="1210" y="350" on="1"/>
        <pt x="1210" y="180" on="0"/>
        <pt x="1360" y="180" on="1"/>
        <pt x="1670" y="180" on="1"/>
        <pt x="1820" y="180" on="0"/>
        <pt x="1820" y="350" on="1"/>
        <pt x="1820" y="1460" on="1"/>
        <pt x="2010" y="1550" on="1"/>
        <pt x="2020" y="1550" on="1"/>
        <pt x="2020" y="350" on="1"/>
        <pt x="2020" y="0" on="0"/>
        <pt x="1670" y="0" on="1"/>
        <pt x="1360" y="0" on="1"/>
        <pt x="1180" y="0" on="0"/>
        <pt x="1110" y="96" on="1"/>
        <pt x="1030" y="0" on="0"/>
        <pt x="860" y="0" on="1"/>
      </contour>
    </TTGlyph>
    <TTGlyph name="Wacute" xMin="200" yMin="0" xMax="2020" yMax="1966">
      <contour>
        <pt x="550" y="0" on="1"/>
        <pt x="200" y="0" on="0"/>
        <pt x="200" y="350" on="1"/>
        <pt x="200" y="1460" on="1"/>
        <pt x="390" y="1550" on="1"/>
        <pt x="400" y="1550" on="1"/>
        <pt x="400" y="350" on="1"/>
        <pt x="400" y="180" on="0"/>
        <pt x="550" y="180" on="1"/>
        <pt x="860" y="180" on="1"/>
        <pt x="1010" y="180" on="0"/>
        <pt x="1010" y="350" on="1"/>
        <pt x="1010" y="1460" on="1"/>
        <pt x="1200" y="1550" on="1"/>
        <pt x="1210" y="1550" on="1"/>
        <pt x="1210" y="350" on="1"/>
        <pt x="1210" y="180" on="0"/>
        <pt x="1360" y="180" on="1"/>
        <pt x="1670" y="180" on="1"/>
        <pt x="1820" y="180" on="0"/>
        <pt x="1820" y="350" on="1"/>
        <pt x="1820" y="1460" on="1"/>
        <pt x="2010" y="1550" on="1"/>
        <pt x="2020" y="1550" on="1"/>
        <pt x="2020" y="350" on="1"/>
        <pt x="2020" y="0" on="0"/>
        <pt x="1670" y="0" on="1"/>
        <pt x="1360" y="0" on="1"/>
        <pt x="1180" y="0" on="0"/>
        <pt x="1110" y="96" on="1"/>
        <pt x="1030" y="0" on="0"/>
        <pt x="860" y="0" on="1"/>
      </contour>
      <contour>
        <pt x="1153" y="1966" on="1"/>
        <pt x="1163" y="1966" on="1"/>
        <pt x="1339" y="1882" on="1"/>
        <pt x="1118" y="1566" on="1"/>
        <pt x="1108" y="1566" on="1"/>
        <pt x="991" y="1621" on="1"/>
      </contour>
    </TTGlyph>
    <TTGlyph name="Wcircumflex" xMin="200" yMin="0" xMax="2020" yMax="1966">
      <contour>
        <pt x="550" y="0" on="1"/>
        <pt x="200" y="0" on="0"/>
        <pt x="200" y="350" on="1"/>
        <pt x="200" y="1460" on="1"/>
        <pt x="390" y="1550" on="1"/>
        <pt x="400" y="1550" on="1"/>
        <pt x="400" y="350" on="1"/>
        <pt x="400" y="180" on="0"/>
        <pt x="550" y="180" on="1"/>
        <pt x="860" y="180" on="1"/>
        <pt x="1010" y="180" on="0"/>
        <pt x="1010" y="350" on="1"/>
        <pt x="1010" y="1460" on="1"/>
        <pt x="1200" y="1550" on="1"/>
        <pt x="1210" y="1550" on="1"/>
        <pt x="1210" y="350" on="1"/>
        <pt x="1210" y="180" on="0"/>
        <pt x="1360" y="180" on="1"/>
        <pt x="1670" y="180" on="1"/>
        <pt x="1820" y="180" on="0"/>
        <pt x="1820" y="350" on="1"/>
        <pt x="1820" y="1460" on="1"/>
        <pt x="2010" y="1550" on="1"/>
        <pt x="2020" y="1550" on="1"/>
        <pt x="2020" y="350" on="1"/>
        <pt x="2020" y="0" on="0"/>
        <pt x="1670" y="0" on="1"/>
        <pt x="1360" y="0" on="1"/>
        <pt x="1180" y="0" on="0"/>
        <pt x="1110" y="96" on="1"/>
        <pt x="1030" y="0" on="0"/>
        <pt x="860" y="0" on="1"/>
      </contour>
      <contour>
        <pt x="823" y="1621" on="1"/>
        <pt x="976" y="1882" on="1"/>
        <pt x="1152" y="1966" on="1"/>
        <pt x="1162" y="1966" on="1"/>
        <pt x="1375" y="1621" on="1"/>
        <pt x="1259" y="1566" on="1"/>
        <pt x="1249" y="1566" on="1"/>
        <pt x="1099" y="1774" on="1"/>
        <pt x="951" y="1566" on="1"/>
        <pt x="941" y="1566" on="1"/>
      </contour>
    </TTGlyph>
    <TTGlyph name="Wdieresis" xMin="200" yMin="0" xMax="2020" yMax="1925">
      <contour>
        <pt x="550" y="0" on="1"/>
        <pt x="200" y="0" on="0"/>
        <pt x="200" y="350" on="1"/>
        <pt x="200" y="1460" on="1"/>
        <pt x="390" y="1550" on="1"/>
        <pt x="400" y="1550" on="1"/>
        <pt x="400" y="350" on="1"/>
        <pt x="400" y="180" on="0"/>
        <pt x="550" y="180" on="1"/>
        <pt x="860" y="180" on="1"/>
        <pt x="1010" y="180" on="0"/>
        <pt x="1010" y="350" on="1"/>
        <pt x="1010" y="1460" on="1"/>
        <pt x="1200" y="1550" on="1"/>
        <pt x="1210" y="1550" on="1"/>
        <pt x="1210" y="350" on="1"/>
        <pt x="1210" y="180" on="0"/>
        <pt x="1360" y="180" on="1"/>
        <pt x="1670" y="180" on="1"/>
        <pt x="1820" y="180" on="0"/>
        <pt x="1820" y="350" on="1"/>
        <pt x="1820" y="1460" on="1"/>
        <pt x="2010" y="1550" on="1"/>
        <pt x="2020" y="1550" on="1"/>
        <pt x="2020" y="350" on="1"/>
        <pt x="2020" y="0" on="0"/>
        <pt x="1670" y="0" on="1"/>
        <pt x="1360" y="0" on="1"/>
        <pt x="1180" y="0" on="0"/>
        <pt x="1110" y="96" on="1"/>
        <pt x="1030" y="0" on="0"/>
        <pt x="860" y="0" on="1"/>
      </contour>
      <contour>
        <pt x="1128" y="1752" on="0"/>
        <pt x="1128" y="1853" on="0"/>
        <pt x="1198" y="1925" on="0"/>
        <pt x="1298" y="1925" on="0"/>
        <pt x="1368" y="1853" on="0"/>
        <pt x="1368" y="1752" on="0"/>
        <pt x="1298" y="1680" on="0"/>
        <pt x="1198" y="1680" on="0"/>
      </contour>
      <contour>
        <pt x="828" y="1752" on="0"/>
        <pt x="828" y="1853" on="0"/>
        <pt x="898" y="1925" on="0"/>
        <pt x="998" y="1925" on="0"/>
        <pt x="1068" y="1853" on="0"/>
        <pt x="1068" y="1752" on="0"/>
        <pt x="998" y="1680" on="0"/>
        <pt x="898" y="1680" on="0"/>
      </contour>
    </TTGlyph>
    <TTGlyph name="Wgrave" xMin="200" yMin="0" xMax="2020" yMax="1966">
      <contour>
        <pt x="550" y="0" on="1"/>
        <pt x="200" y="0" on="0"/>
        <pt x="200" y="350" on="1"/>
        <pt x="200" y="1460" on="1"/>
        <pt x="390" y="1550" on="1"/>
        <pt x="400" y="1550" on="1"/>
        <pt x="400" y="350" on="1"/>
        <pt x="400" y="180" on="0"/>
        <pt x="550" y="180" on="1"/>
        <pt x="860" y="180" on="1"/>
        <pt x="1010" y="180" on="0"/>
        <pt x="1010" y="350" on="1"/>
        <pt x="1010" y="1460" on="1"/>
        <pt x="1200" y="1550" on="1"/>
        <pt x="1210" y="1550" on="1"/>
        <pt x="1210" y="350" on="1"/>
        <pt x="1210" y="180" on="0"/>
        <pt x="1360" y="180" on="1"/>
        <pt x="1670" y="180" on="1"/>
        <pt x="1820" y="180" on="0"/>
        <pt x="1820" y="350" on="1"/>
        <pt x="1820" y="1460" on="1"/>
        <pt x="2010" y="1550" on="1"/>
        <pt x="2020" y="1550" on="1"/>
        <pt x="2020" y="350" on="1"/>
        <pt x="2020" y="0" on="0"/>
        <pt x="1670" y="0" on="1"/>
        <pt x="1360" y="0" on="1"/>
        <pt x="1180" y="0" on="0"/>
        <pt x="1110" y="96" on="1"/>
        <pt x="1030" y="0" on="0"/>
        <pt x="860" y="0" on="1"/>
      </contour>
      <contour>
        <pt x="1051" y="1966" on="1"/>
        <pt x="1061" y="1966" on="1"/>
        <pt x="1223" y="1621" on="1"/>
        <pt x="1106" y="1566" on="1"/>
        <pt x="1096" y="1566" on="1"/>
        <pt x="875" y="1882" on="1"/>
      </contour>
    </TTGlyph>
    <TTGlyph name="X" xMin="100" yMin="-40" xMax="1178" yMax="1550">
      <contour>
        <pt x="274" y="-40" on="1"/>
        <pt x="100" y="42" on="1"/>
        <pt x="522" y="755" on="1"/>
        <pt x="100" y="1467" on="1"/>
        <pt x="275" y="1550" on="1"/>
        <pt x="285" y="1550" on="1"/>
        <pt x="639" y="932" on="1"/>
        <pt x="993" y="1550" on="1"/>
        <pt x="1003" y="1550" on="1"/>
        <pt x="1178" y="1467" on="1"/>
        <pt x="756" y="755" on="1"/>
        <pt x="1178" y="42" on="1"/>
        <pt x="1004" y="-40" on="1"/>
        <pt x="994" y="-40" on="1"/>
        <pt x="639" y="578" on="1"/>
        <pt x="284" y="-40" on="1"/>
      </contour>
    </TTGlyph>
    <TTGlyph name="Y" xMin="150" yMin="-40" xMax="1160" yMax="1550">
      <contour>
        <pt x="555" y="-40" on="1"/>
        <pt x="555" y="482" on="1"/>
        <pt x="500" y="482" on="1"/>
        <pt x="150" y="482" on="0"/>
        <pt x="150" y="832" on="1"/>
        <pt x="150" y="1460" on="1"/>
        <pt x="340" y="1550" on="1"/>
        <pt x="350" y="1550" on="1"/>
        <pt x="350" y="832" on="1"/>
        <pt x="350" y="662" on="0"/>
        <pt x="500" y="662" on="1"/>
        <pt x="810" y="662" on="1"/>
        <pt x="960" y="662" on="0"/>
        <pt x="960" y="832" on="1"/>
        <pt x="960" y="1460" on="1"/>
        <pt x="1150" y="1550" on="1"/>
        <pt x="1160" y="1550" on="1"/>
        <pt x="1160" y="832" on="1"/>
        <pt x="1160" y="482" on="0"/>
        <pt x="810" y="482" on="1"/>
        <pt x="755" y="482" on="1"/>
        <pt x="755" y="50" on="1"/>
        <pt x="565" y="-40" on="1"/>
      </contour>
    </TTGlyph>
    <TTGlyph name="Yacute" xMin="150" yMin="-40" xMax="1160" yMax="1966">
      <contour>
        <pt x="555" y="-40" on="1"/>
        <pt x="555" y="482" on="1"/>
        <pt x="500" y="482" on="1"/>
        <pt x="150" y="482" on="0"/>
        <pt x="150" y="832" on="1"/>
        <pt x="150" y="1460" on="1"/>
        <pt x="340" y="1550" on="1"/>
        <pt x="350" y="1550" on="1"/>
        <pt x="350" y="832" on="1"/>
        <pt x="350" y="662" on="0"/>
        <pt x="500" y="662" on="1"/>
        <pt x="810" y="662" on="1"/>
        <pt x="960" y="662" on="0"/>
        <pt x="960" y="832" on="1"/>
        <pt x="960" y="1460" on="1"/>
        <pt x="1150" y="1550" on="1"/>
        <pt x="1160" y="1550" on="1"/>
        <pt x="1160" y="832" on="1"/>
        <pt x="1160" y="482" on="0"/>
        <pt x="810" y="482" on="1"/>
        <pt x="755" y="482" on="1"/>
        <pt x="755" y="50" on="1"/>
        <pt x="565" y="-40" on="1"/>
      </contour>
      <contour>
        <pt x="817" y="1966" on="1"/>
        <pt x="827" y="1966" on="1"/>
        <pt x="1003" y="1882" on="1"/>
        <pt x="782" y="1566" on="1"/>
        <pt x="772" y="1566" on="1"/>
        <pt x="655" y="1621" on="1"/>
      </contour>
    </TTGlyph>
    <TTGlyph name="Ycircumflex" xMin="150" yMin="-40" xMax="1160" yMax="1966">
      <contour>
        <pt x="555" y="-40" on="1"/>
        <pt x="555" y="482" on="1"/>
        <pt x="500" y="482" on="1"/>
        <pt x="150" y="482" on="0"/>
        <pt x="150" y="832" on="1"/>
        <pt x="150" y="1460" on="1"/>
        <pt x="340" y="1550" on="1"/>
        <pt x="350" y="1550" on="1"/>
        <pt x="350" y="832" on="1"/>
        <pt x="350" y="662" on="0"/>
        <pt x="500" y="662" on="1"/>
        <pt x="810" y="662" on="1"/>
        <pt x="960" y="662" on="0"/>
        <pt x="960" y="832" on="1"/>
        <pt x="960" y="1460" on="1"/>
        <pt x="1150" y="1550" on="1"/>
        <pt x="1160" y="1550" on="1"/>
        <pt x="1160" y="832" on="1"/>
        <pt x="1160" y="482" on="0"/>
        <pt x="810" y="482" on="1"/>
        <pt x="755" y="482" on="1"/>
        <pt x="755" y="50" on="1"/>
        <pt x="565" y="-40" on="1"/>
      </contour>
      <contour>
        <pt x="390" y="1621" on="1"/>
        <pt x="543" y="1882" on="1"/>
        <pt x="719" y="1966" on="1"/>
        <pt x="729" y="1966" on="1"/>
        <pt x="942" y="1621" on="1"/>
        <pt x="826" y="1566" on="1"/>
        <pt x="816" y="1566" on="1"/>
        <pt x="666" y="1774" on="1"/>
        <pt x="518" y="1566" on="1"/>
        <pt x="508" y="1566" on="1"/>
      </contour>
    </TTGlyph>
    <TTGlyph name="Ydieresis" xMin="150" yMin="-40" xMax="1160" yMax="1925">
      <contour>
        <pt x="555" y="-40" on="1"/>
        <pt x="555" y="482" on="1"/>
        <pt x="500" y="482" on="1"/>
        <pt x="150" y="482" on="0"/>
        <pt x="150" y="832" on="1"/>
        <pt x="150" y="1460" on="1"/>
        <pt x="340" y="1550" on="1"/>
        <pt x="350" y="1550" on="1"/>
        <pt x="350" y="832" on="1"/>
        <pt x="350" y="662" on="0"/>
        <pt x="500" y="662" on="1"/>
        <pt x="810" y="662" on="1"/>
        <pt x="960" y="662" on="0"/>
        <pt x="960" y="832" on="1"/>
        <pt x="960" y="1460" on="1"/>
        <pt x="1150" y="1550" on="1"/>
        <pt x="1160" y="1550" on="1"/>
        <pt x="1160" y="832" on="1"/>
        <pt x="1160" y="482" on="0"/>
        <pt x="810" y="482" on="1"/>
        <pt x="755" y="482" on="1"/>
        <pt x="755" y="50" on="1"/>
        <pt x="565" y="-40" on="1"/>
      </contour>
      <contour>
        <pt x="688" y="1752" on="0"/>
        <pt x="688" y="1853" on="0"/>
        <pt x="758" y="1925" on="0"/>
        <pt x="858" y="1925" on="0"/>
        <pt x="928" y="1853" on="0"/>
        <pt x="928" y="1752" on="0"/>
        <pt x="858" y="1680" on="0"/>
        <pt x="758" y="1680" on="0"/>
      </contour>
      <contour>
        <pt x="388" y="1752" on="0"/>
        <pt x="388" y="1853" on="0"/>
        <pt x="458" y="1925" on="0"/>
        <pt x="558" y="1925" on="0"/>
        <pt x="628" y="1853" on="0"/>
        <pt x="628" y="1752" on="0"/>
        <pt x="558" y="1680" on="0"/>
        <pt x="458" y="1680" on="0"/>
      </contour>
    </TTGlyph>
    <TTGlyph name="Ygrave" xMin="150" yMin="-40" xMax="1160" yMax="1966">
      <contour>
        <pt x="555" y="-40" on="1"/>
        <pt x="555" y="482" on="1"/>
        <pt x="500" y="482" on="1"/>
        <pt x="150" y="482" on="0"/>
        <pt x="150" y="832" on="1"/>
        <pt x="150" y="1460" on="1"/>
        <pt x="340" y="1550" on="1"/>
        <pt x="350" y="1550" on="1"/>
        <pt x="350" y="832" on="1"/>
        <pt x="350" y="662" on="0"/>
        <pt x="500" y="662" on="1"/>
        <pt x="810" y="662" on="1"/>
        <pt x="960" y="662" on="0"/>
        <pt x="960" y="832" on="1"/>
        <pt x="960" y="1460" on="1"/>
        <pt x="1150" y="1550" on="1"/>
        <pt x="1160" y="1550" on="1"/>
        <pt x="1160" y="832" on="1"/>
        <pt x="1160" y="482" on="0"/>
        <pt x="810" y="482" on="1"/>
        <pt x="755" y="482" on="1"/>
        <pt x="755" y="50" on="1"/>
        <pt x="565" y="-40" on="1"/>
      </contour>
      <contour>
        <pt x="596" y="1966" on="1"/>
        <pt x="606" y="1966" on="1"/>
        <pt x="768" y="1621" on="1"/>
        <pt x="651" y="1566" on="1"/>
        <pt x="641" y="1566" on="1"/>
        <pt x="420" y="1882" on="1"/>
      </contour>
    </TTGlyph>
    <TTGlyph name="Z" xMin="150" yMin="0" xMax="1117" yMax="1510">
      <contour>
        <pt x="150" y="0" on="1"/>
        <pt x="150" y="10" on="1"/>
        <pt x="797" y="1328" on="1"/>
        <pt x="160" y="1328" on="1"/>
        <pt x="160" y="1338" on="1"/>
        <pt x="241" y="1510" on="1"/>
        <pt x="1107" y="1510" on="1"/>
        <pt x="1107" y="1500" on="1"/>
        <pt x="457" y="182" on="1"/>
        <pt x="1117" y="182" on="1"/>
        <pt x="1117" y="172" on="1"/>
        <pt x="1036" y="0" on="1"/>
      </contour>
    </TTGlyph>
    <TTGlyph name="Zacute" xMin="150" yMin="0" xMax="1117" yMax="1966">
      <contour>
        <pt x="699" y="1966" on="1"/>
        <pt x="709" y="1966" on="1"/>
        <pt x="885" y="1882" on="1"/>
        <pt x="664" y="1566" on="1"/>
        <pt x="654" y="1566" on="1"/>
        <pt x="537" y="1621" on="1"/>
      </contour>
      <contour>
        <pt x="150" y="0" on="1"/>
        <pt x="150" y="10" on="1"/>
        <pt x="797" y="1328" on="1"/>
        <pt x="160" y="1328" on="1"/>
        <pt x="160" y="1338" on="1"/>
        <pt x="241" y="1510" on="1"/>
        <pt x="1107" y="1510" on="1"/>
        <pt x="1107" y="1500" on="1"/>
        <pt x="457" y="182" on="1"/>
        <pt x="1117" y="182" on="1"/>
        <pt x="1117" y="172" on="1"/>
        <pt x="1036" y="0" on="1"/>
      </contour>
    </TTGlyph>
    <TTGlyph name="Zcaron" xMin="150" yMin="0" xMax="1117" yMax="1966">
      <contour>
        <pt x="569" y="1566" on="1"/>
        <pt x="356" y="1911" on="1"/>
        <pt x="472" y="1966" on="1"/>
        <pt x="482" y="1966" on="1"/>
        <pt x="632" y="1758" on="1"/>
        <pt x="780" y="1966" on="1"/>
        <pt x="790" y="1966" on="1"/>
        <pt x="908" y="1911" on="1"/>
        <pt x="755" y="1650" on="1"/>
        <pt x="579" y="1566" on="1"/>
      </contour>
      <contour>
        <pt x="150" y="0" on="1"/>
        <pt x="150" y="10" on="1"/>
        <pt x="797" y="1328" on="1"/>
        <pt x="160" y="1328" on="1"/>
        <pt x="160" y="1338" on="1"/>
        <pt x="241" y="1510" on="1"/>
        <pt x="1107" y="1510" on="1"/>
        <pt x="1107" y="1500" on="1"/>
        <pt x="457" y="182" on="1"/>
        <pt x="1117" y="182" on="1"/>
        <pt x="1117" y="172" on="1"/>
        <pt x="1036" y="0" on="1"/>
      </contour>
    </TTGlyph>
    <TTGlyph name="Zdotaccent" xMin="150" yMin="0" xMax="1117" yMax="1925">
      <contour>
        <pt x="527" y="1752" on="0"/>
        <pt x="527" y="1853" on="0"/>
        <pt x="597" y="1925" on="0"/>
        <pt x="697" y="1925" on="0"/>
        <pt x="767" y="1853" on="0"/>
        <pt x="767" y="1752" on="0"/>
        <pt x="697" y="1680" on="0"/>
        <pt x="597" y="1680" on="0"/>
      </contour>
      <contour>
        <pt x="150" y="0" on="1"/>
        <pt x="150" y="10" on="1"/>
        <pt x="797" y="1328" on="1"/>
        <pt x="160" y="1328" on="1"/>
        <pt x="160" y="1338" on="1"/>
        <pt x="241" y="1510" on="1"/>
        <pt x="1107" y="1510" on="1"/>
        <pt x="1107" y="1500" on="1"/>
        <pt x="457" y="182" on="1"/>
        <pt x="1117" y="182" on="1"/>
        <pt x="1117" y="172" on="1"/>
        <pt x="1036" y="0" on="1"/>
      </contour>
    </TTGlyph>
    <TTGlyph name="a" xMin="100" yMin="-40" xMax="910" yMax="1100">
      <contour>
        <pt x="400" y="180" on="1"/>
        <pt x="610" y="180" on="1"/>
        <pt x="710" y="180" on="0"/>
        <pt x="710" y="300" on="1"/>
        <pt x="710" y="437" on="1"/>
        <pt x="710" y="557" on="0"/>
        <pt x="610" y="557" on="1"/>
        <pt x="400" y="557" on="1"/>
        <pt x="300" y="557" on="0"/>
        <pt x="300" y="437" on="1"/>
        <pt x="300" y="300" on="1"/>
        <pt x="300" y="180" on="0"/>
      </contour>
      <contour>
        <pt x="400" y="0" on="1"/>
        <pt x="100" y="0" on="0"/>
        <pt x="100" y="300" on="1"/>
        <pt x="100" y="437" on="1"/>
        <pt x="100" y="737" on="0"/>
        <pt x="400" y="737" on="1"/>
        <pt x="610" y="737" on="1"/>
        <pt x="662" y="737" on="0"/>
        <pt x="710" y="707" on="1"/>
        <pt x="710" y="800" on="1"/>
        <pt x="710" y="920" on="0"/>
        <pt x="610" y="920" on="1"/>
        <pt x="252" y="920" on="1"/>
        <pt x="252" y="930" on="1"/>
        <pt x="332" y="1100" on="1"/>
        <pt x="610" y="1100" on="1"/>
        <pt x="910" y="1100" on="0"/>
        <pt x="910" y="800" on="1"/>
        <pt x="910" y="50" on="1"/>
        <pt x="720" y="-40" on="1"/>
        <pt x="710" y="-40" on="1"/>
        <pt x="710" y="30" on="1"/>
        <pt x="672" y="0" on="0"/>
        <pt x="610" y="0" on="1"/>
      </contour>
    </TTGlyph>
    <TTGlyph name="aacute" xMin="100" yMin="-40" xMax="910" yMax="1566">
      <contour>
        <pt x="400" y="180" on="1"/>
        <pt x="610" y="180" on="1"/>
        <pt x="710" y="180" on="0"/>
        <pt x="710" y="300" on="1"/>
        <pt x="710" y="437" on="1"/>
        <pt x="710" y="557" on="0"/>
        <pt x="610" y="557" on="1"/>
        <pt x="400" y="557" on="1"/>
        <pt x="300" y="557" on="0"/>
        <pt x="300" y="437" on="1"/>
        <pt x="300" y="300" on="1"/>
        <pt x="300" y="180" on="0"/>
      </contour>
      <contour>
        <pt x="400" y="0" on="1"/>
        <pt x="100" y="0" on="0"/>
        <pt x="100" y="300" on="1"/>
        <pt x="100" y="437" on="1"/>
        <pt x="100" y="737" on="0"/>
        <pt x="400" y="737" on="1"/>
        <pt x="610" y="737" on="1"/>
        <pt x="662" y="737" on="0"/>
        <pt x="710" y="707" on="1"/>
        <pt x="710" y="800" on="1"/>
        <pt x="710" y="920" on="0"/>
        <pt x="610" y="920" on="1"/>
        <pt x="252" y="920" on="1"/>
        <pt x="252" y="930" on="1"/>
        <pt x="332" y="1100" on="1"/>
        <pt x="610" y="1100" on="1"/>
        <pt x="910" y="1100" on="0"/>
        <pt x="910" y="800" on="1"/>
        <pt x="910" y="50" on="1"/>
        <pt x="720" y="-40" on="1"/>
        <pt x="710" y="-40" on="1"/>
        <pt x="710" y="30" on="1"/>
        <pt x="672" y="0" on="0"/>
        <pt x="610" y="0" on="1"/>
      </contour>
      <contour>
        <pt x="663" y="1566" on="1"/>
        <pt x="673" y="1566" on="1"/>
        <pt x="849" y="1482" on="1"/>
        <pt x="628" y="1166" on="1"/>
        <pt x="618" y="1166" on="1"/>
        <pt x="501" y="1221" on="1"/>
      </contour>
    </TTGlyph>
    <TTGlyph name="abreve" xMin="100" yMin="-40" xMax="910" yMax="1541">
      <contour>
        <pt x="400" y="180" on="1"/>
        <pt x="610" y="180" on="1"/>
        <pt x="710" y="180" on="0"/>
        <pt x="710" y="300" on="1"/>
        <pt x="710" y="437" on="1"/>
        <pt x="710" y="557" on="0"/>
        <pt x="610" y="557" on="1"/>
        <pt x="400" y="557" on="1"/>
        <pt x="300" y="557" on="0"/>
        <pt x="300" y="437" on="1"/>
        <pt x="300" y="300" on="1"/>
        <pt x="300" y="180" on="0"/>
      </contour>
      <contour>
        <pt x="400" y="0" on="1"/>
        <pt x="100" y="0" on="0"/>
        <pt x="100" y="300" on="1"/>
        <pt x="100" y="437" on="1"/>
        <pt x="100" y="737" on="0"/>
        <pt x="400" y="737" on="1"/>
        <pt x="610" y="737" on="1"/>
        <pt x="662" y="737" on="0"/>
        <pt x="710" y="707" on="1"/>
        <pt x="710" y="800" on="1"/>
        <pt x="710" y="920" on="0"/>
        <pt x="610" y="920" on="1"/>
        <pt x="252" y="920" on="1"/>
        <pt x="252" y="930" on="1"/>
        <pt x="332" y="1100" on="1"/>
        <pt x="610" y="1100" on="1"/>
        <pt x="910" y="1100" on="0"/>
        <pt x="910" y="800" on="1"/>
        <pt x="910" y="50" on="1"/>
        <pt x="720" y="-40" on="1"/>
        <pt x="710" y="-40" on="1"/>
        <pt x="710" y="30" on="1"/>
        <pt x="672" y="0" on="0"/>
        <pt x="610" y="0" on="1"/>
      </contour>
      <contour>
        <pt x="300" y="1382" on="1"/>
        <pt x="300" y="1392" on="1"/>
        <pt x="374" y="1541" on="1"/>
        <pt x="446" y="1407" on="0"/>
        <pt x="646" y="1407" on="0"/>
        <pt x="718" y="1541" on="1"/>
        <pt x="794" y="1392" on="1"/>
        <pt x="794" y="1382" on="1"/>
        <pt x="692" y="1232" on="0"/>
        <pt x="544" y="1232" on="1"/>
        <pt x="390" y="1232" on="0"/>
      </contour>
    </TTGlyph>
    <TTGlyph name="acircumflex" xMin="100" yMin="-40" xMax="910" yMax="1566">
      <contour>
        <pt x="400" y="180" on="1"/>
        <pt x="610" y="180" on="1"/>
        <pt x="710" y="180" on="0"/>
        <pt x="710" y="300" on="1"/>
        <pt x="710" y="437" on="1"/>
        <pt x="710" y="557" on="0"/>
        <pt x="610" y="557" on="1"/>
        <pt x="400" y="557" on="1"/>
        <pt x="300" y="557" on="0"/>
        <pt x="300" y="437" on="1"/>
        <pt x="300" y="300" on="1"/>
        <pt x="300" y="180" on="0"/>
      </contour>
      <contour>
        <pt x="400" y="0" on="1"/>
        <pt x="100" y="0" on="0"/>
        <pt x="100" y="300" on="1"/>
        <pt x="100" y="437" on="1"/>
        <pt x="100" y="737" on="0"/>
        <pt x="400" y="737" on="1"/>
        <pt x="610" y="737" on="1"/>
        <pt x="662" y="737" on="0"/>
        <pt x="710" y="707" on="1"/>
        <pt x="710" y="800" on="1"/>
        <pt x="710" y="920" on="0"/>
        <pt x="610" y="920" on="1"/>
        <pt x="252" y="920" on="1"/>
        <pt x="252" y="930" on="1"/>
        <pt x="332" y="1100" on="1"/>
        <pt x="610" y="1100" on="1"/>
        <pt x="910" y="1100" on="0"/>
        <pt x="910" y="800" on="1"/>
        <pt x="910" y="50" on="1"/>
        <pt x="720" y="-40" on="1"/>
        <pt x="710" y="-40" on="1"/>
        <pt x="710" y="30" on="1"/>
        <pt x="672" y="0" on="0"/>
        <pt x="610" y="0" on="1"/>
      </contour>
      <contour>
        <pt x="274" y="1221" on="1"/>
        <pt x="427" y="1482" on="1"/>
        <pt x="603" y="1566" on="1"/>
        <pt x="613" y="1566" on="1"/>
        <pt x="826" y="1221" on="1"/>
        <pt x="710" y="1166" on="1"/>
        <pt x="700" y="1166" on="1"/>
        <pt x="550" y="1374" on="1"/>
        <pt x="402" y="1166" on="1"/>
        <pt x="392" y="1166" on="1"/>
      </contour>
    </TTGlyph>
    <TTGlyph name="acute" xMin="150" yMin="1150" xMax="498" yMax="1550">
      <contour>
        <pt x="312" y="1550" on="1"/>
        <pt x="322" y="1550" on="1"/>
        <pt x="498" y="1466" on="1"/>
        <pt x="277" y="1150" on="1"/>
        <pt x="267" y="1150" on="1"/>
        <pt x="150" y="1205" on="1"/>
      </contour>
    </TTGlyph>
    <TTGlyph name="adieresis" xMin="100" yMin="-40" xMax="910" yMax="1530">
      <contour>
        <pt x="400" y="180" on="1"/>
        <pt x="610" y="180" on="1"/>
        <pt x="710" y="180" on="0"/>
        <pt x="710" y="300" on="1"/>
        <pt x="710" y="437" on="1"/>
        <pt x="710" y="557" on="0"/>
        <pt x="610" y="557" on="1"/>
        <pt x="400" y="557" on="1"/>
        <pt x="300" y="557" on="0"/>
        <pt x="300" y="437" on="1"/>
        <pt x="300" y="300" on="1"/>
        <pt x="300" y="180" on="0"/>
      </contour>
      <contour>
        <pt x="400" y="0" on="1"/>
        <pt x="100" y="0" on="0"/>
        <pt x="100" y="300" on="1"/>
        <pt x="100" y="437" on="1"/>
        <pt x="100" y="737" on="0"/>
        <pt x="400" y="737" on="1"/>
        <pt x="610" y="737" on="1"/>
        <pt x="662" y="737" on="0"/>
        <pt x="710" y="707" on="1"/>
        <pt x="710" y="800" on="1"/>
        <pt x="710" y="920" on="0"/>
        <pt x="610" y="920" on="1"/>
        <pt x="252" y="920" on="1"/>
        <pt x="252" y="930" on="1"/>
        <pt x="332" y="1100" on="1"/>
        <pt x="610" y="1100" on="1"/>
        <pt x="910" y="1100" on="0"/>
        <pt x="910" y="800" on="1"/>
        <pt x="910" y="50" on="1"/>
        <pt x="720" y="-40" on="1"/>
        <pt x="710" y="-40" on="1"/>
        <pt x="710" y="30" on="1"/>
        <pt x="672" y="0" on="0"/>
        <pt x="610" y="0" on="1"/>
      </contour>
      <contour>
        <pt x="577" y="1357" on="0"/>
        <pt x="577" y="1458" on="0"/>
        <pt x="647" y="1530" on="0"/>
        <pt x="747" y="1530" on="0"/>
        <pt x="817" y="1458" on="0"/>
        <pt x="817" y="1357" on="0"/>
        <pt x="747" y="1285" on="0"/>
        <pt x="647" y="1285" on="0"/>
      </contour>
      <contour>
        <pt x="277" y="1357" on="0"/>
        <pt x="277" y="1458" on="0"/>
        <pt x="347" y="1530" on="0"/>
        <pt x="447" y="1530" on="0"/>
        <pt x="517" y="1458" on="0"/>
        <pt x="517" y="1357" on="0"/>
        <pt x="447" y="1285" on="0"/>
        <pt x="347" y="1285" on="0"/>
      </contour>
    </TTGlyph>
    <TTGlyph name="ae" xMin="100" yMin="-40" xMax="1540" yMax="1100">
      <contour>
        <pt x="400" y="180" on="1"/>
        <pt x="610" y="180" on="1"/>
        <pt x="710" y="180" on="0"/>
        <pt x="710" y="300" on="1"/>
        <pt x="710" y="437" on="1"/>
        <pt x="710" y="557" on="0"/>
        <pt x="610" y="557" on="1"/>
        <pt x="400" y="557" on="1"/>
        <pt x="300" y="557" on="0"/>
        <pt x="300" y="437" on="1"/>
        <pt x="300" y="300" on="1"/>
        <pt x="300" y="180" on="0"/>
      </contour>
      <contour>
        <pt x="400" y="0" on="1"/>
        <pt x="100" y="0" on="0"/>
        <pt x="100" y="300" on="1"/>
        <pt x="100" y="437" on="1"/>
        <pt x="100" y="737" on="0"/>
        <pt x="400" y="737" on="1"/>
        <pt x="610" y="737" on="1"/>
        <pt x="662" y="737" on="0"/>
        <pt x="710" y="707" on="1"/>
        <pt x="710" y="800" on="1"/>
        <pt x="710" y="920" on="0"/>
        <pt x="610" y="920" on="1"/>
        <pt x="252" y="920" on="1"/>
        <pt x="252" y="930" on="1"/>
        <pt x="332" y="1100" on="1"/>
        <pt x="610" y="1100" on="1"/>
        <pt x="742" y="1100" on="0"/>
        <pt x="810" y="1026" on="1"/>
        <pt x="878" y="1100" on="0"/>
        <pt x="1010" y="1100" on="1"/>
        <pt x="1240" y="1100" on="1"/>
        <pt x="1540" y="1100" on="0"/>
        <pt x="1540" y="800" on="1"/>
        <pt x="1540" y="747" on="1"/>
        <pt x="913" y="262" on="1"/>
        <pt x="927" y="180" on="0"/>
        <pt x="1010" y="180" on="1"/>
        <pt x="1240" y="180" on="1"/>
        <pt x="1340" y="180" on="0"/>
        <pt x="1340" y="300" on="1"/>
        <pt x="1340" y="353" on="1"/>
        <pt x="1530" y="443" on="1"/>
        <pt x="1540" y="443" on="1"/>
        <pt x="1540" y="300" on="1"/>
        <pt x="1540" y="0" on="0"/>
        <pt x="1240" y="0" on="1"/>
        <pt x="1010" y="0" on="1"/>
        <pt x="948" y="0" on="0"/>
        <pt x="869" y="34" on="1"/>
        <pt x="720" y="-40" on="1"/>
        <pt x="710" y="-40" on="1"/>
        <pt x="710" y="30" on="1"/>
        <pt x="672" y="0" on="0"/>
        <pt x="610" y="0" on="1"/>
      </contour>
      <contour>
        <pt x="910" y="471" on="1"/>
        <pt x="1339" y="817" on="1"/>
        <pt x="1333" y="920" on="0"/>
        <pt x="1240" y="920" on="1"/>
        <pt x="1010" y="920" on="1"/>
        <pt x="910" y="920" on="0"/>
        <pt x="910" y="800" on="1"/>
      </contour>
    </TTGlyph>
    <TTGlyph name="aeacute" xMin="100" yMin="-40" xMax="1540" yMax="1566">
      <contour>
        <pt x="400" y="180" on="1"/>
        <pt x="610" y="180" on="1"/>
        <pt x="710" y="180" on="0"/>
        <pt x="710" y="300" on="1"/>
        <pt x="710" y="437" on="1"/>
        <pt x="710" y="557" on="0"/>
        <pt x="610" y="557" on="1"/>
        <pt x="400" y="557" on="1"/>
        <pt x="300" y="557" on="0"/>
        <pt x="300" y="437" on="1"/>
        <pt x="300" y="300" on="1"/>
        <pt x="300" y="180" on="0"/>
      </contour>
      <contour>
        <pt x="400" y="0" on="1"/>
        <pt x="100" y="0" on="0"/>
        <pt x="100" y="300" on="1"/>
        <pt x="100" y="437" on="1"/>
        <pt x="100" y="737" on="0"/>
        <pt x="400" y="737" on="1"/>
        <pt x="610" y="737" on="1"/>
        <pt x="662" y="737" on="0"/>
        <pt x="710" y="707" on="1"/>
        <pt x="710" y="800" on="1"/>
        <pt x="710" y="920" on="0"/>
        <pt x="610" y="920" on="1"/>
        <pt x="252" y="920" on="1"/>
        <pt x="252" y="930" on="1"/>
        <pt x="332" y="1100" on="1"/>
        <pt x="610" y="1100" on="1"/>
        <pt x="742" y="1100" on="0"/>
        <pt x="810" y="1026" on="1"/>
        <pt x="878" y="1100" on="0"/>
        <pt x="1010" y="1100" on="1"/>
        <pt x="1240" y="1100" on="1"/>
        <pt x="1540" y="1100" on="0"/>
        <pt x="1540" y="800" on="1"/>
        <pt x="1540" y="747" on="1"/>
        <pt x="913" y="262" on="1"/>
        <pt x="927" y="180" on="0"/>
        <pt x="1010" y="180" on="1"/>
        <pt x="1240" y="180" on="1"/>
        <pt x="1340" y="180" on="0"/>
        <pt x="1340" y="300" on="1"/>
        <pt x="1340" y="353" on="1"/>
        <pt x="1530" y="443" on="1"/>
        <pt x="1540" y="443" on="1"/>
        <pt x="1540" y="300" on="1"/>
        <pt x="1540" y="0" on="0"/>
        <pt x="1240" y="0" on="1"/>
        <pt x="1010" y="0" on="1"/>
        <pt x="948" y="0" on="0"/>
        <pt x="869" y="34" on="1"/>
        <pt x="720" y="-40" on="1"/>
        <pt x="710" y="-40" on="1"/>
        <pt x="710" y="30" on="1"/>
        <pt x="672" y="0" on="0"/>
        <pt x="610" y="0" on="1"/>
      </contour>
      <contour>
        <pt x="910" y="471" on="1"/>
        <pt x="1339" y="817" on="1"/>
        <pt x="1333" y="920" on="0"/>
        <pt x="1240" y="920" on="1"/>
        <pt x="1010" y="920" on="1"/>
        <pt x="910" y="920" on="0"/>
        <pt x="910" y="800" on="1"/>
      </contour>
      <contour>
        <pt x="910" y="1566" on="1"/>
        <pt x="920" y="1566" on="1"/>
        <pt x="1096" y="1482" on="1"/>
        <pt x="875" y="1166" on="1"/>
        <pt x="865" y="1166" on="1"/>
        <pt x="748" y="1221" on="1"/>
      </contour>
    </TTGlyph>
    <TTGlyph name="afii00208" xMin="25" yMin="664" xMax="1189" yMax="846">
      <contour>
        <pt x="25" y="664" on="1"/>
        <pt x="25" y="674" on="1"/>
        <pt x="106" y="846" on="1"/>
        <pt x="1189" y="846" on="1"/>
        <pt x="1189" y="836" on="1"/>
        <pt x="1108" y="664" on="1"/>
      </contour>
    </TTGlyph>
    <TTGlyph name="afii61248" xMin="150" yMin="-40" xMax="1508" yMax="1550">
      <contour>
        <pt x="1154" y="0" on="1"/>
        <pt x="954" y="0" on="0"/>
        <pt x="954" y="194" on="1"/>
        <pt x="954" y="585" on="1"/>
        <pt x="954" y="780" on="0"/>
        <pt x="1154" y="780" on="1"/>
        <pt x="1308" y="780" on="1"/>
        <pt x="1508" y="780" on="0"/>
        <pt x="1508" y="585" on="1"/>
        <pt x="1508" y="194" on="1"/>
        <pt x="1508" y="0" on="0"/>
        <pt x="1308" y="0" on="1"/>
      </contour>
      <contour>
        <pt x="1154" y="140" on="1"/>
        <pt x="1154" y="140" on="0"/>
        <pt x="1308" y="140" on="1"/>
        <pt x="1358" y="140" on="0"/>
        <pt x="1358" y="198" on="1"/>
        <pt x="1358" y="583" on="1"/>
        <pt x="1358" y="640" on="0"/>
        <pt x="1308" y="640" on="1"/>
        <pt x="1154" y="640" on="1"/>
        <pt x="1104" y="640" on="0"/>
        <pt x="1104" y="583" on="1"/>
        <pt x="1104" y="198" on="1"/>
        <pt x="1104" y="140" on="0"/>
      </contour>
      <contour>
        <pt x="704" y="1056" on="1"/>
        <pt x="704" y="930" on="1"/>
        <pt x="704" y="730" on="0"/>
        <pt x="504" y="730" on="1"/>
        <pt x="350" y="730" on="1"/>
        <pt x="150" y="730" on="0"/>
        <pt x="150" y="924" on="1"/>
        <pt x="150" y="1315" on="1"/>
        <pt x="150" y="1510" on="0"/>
        <pt x="350" y="1510" on="1"/>
        <pt x="504" y="1510" on="1"/>
        <pt x="704" y="1510" on="0"/>
        <pt x="704" y="1310" on="1"/>
        <pt x="704" y="1240" on="1"/>
        <pt x="590" y="1186" on="1"/>
        <pt x="554" y="1186" on="1"/>
        <pt x="554" y="1310" on="1"/>
        <pt x="554" y="1370" on="0"/>
        <pt x="504" y="1370" on="1"/>
        <pt x="350" y="1370" on="1"/>
        <pt x="300" y="1370" on="0"/>
        <pt x="300" y="1313" on="1"/>
        <pt x="300" y="928" on="1"/>
        <pt x="300" y="870" on="0"/>
        <pt x="350" y="870" on="1"/>
        <pt x="504" y="870" on="1"/>
        <pt x="554" y="870" on="0"/>
        <pt x="554" y="930" on="1"/>
        <pt x="554" y="1001" on="1"/>
        <pt x="669" y="1056" on="1"/>
      </contour>
      <contour>
        <pt x="546" y="-40" on="1"/>
        <pt x="405" y="28" on="1"/>
        <pt x="1114" y="1550" on="1"/>
        <pt x="1124" y="1550" on="1"/>
        <pt x="1265" y="1482" on="1"/>
        <pt x="556" y="-40" on="1"/>
      </contour>
    </TTGlyph>
    <TTGlyph name="afii61289" xMin="150" yMin="-20" xMax="908" yMax="1531">
      <contour>
        <pt x="540" y="672" on="1"/>
        <pt x="600" y="796" on="0"/>
        <pt x="656" y="982" on="1"/>
        <pt x="729" y="1224" on="0"/>
        <pt x="729" y="1389" on="1"/>
        <pt x="677" y="1305" on="0"/>
        <pt x="614" y="1098" on="1"/>
        <pt x="540" y="857" on="0"/>
      </contour>
      <contour>
        <pt x="150" y="0" on="1"/>
        <pt x="250" y="146" on="0"/>
        <pt x="340" y="296" on="1"/>
        <pt x="332" y="366" on="0"/>
        <pt x="332" y="444" on="1"/>
        <pt x="332" y="592" on="0"/>
        <pt x="361" y="733" on="1"/>
        <pt x="481" y="1333" on="0"/>
        <pt x="576" y="1443" on="1"/>
        <pt x="652" y="1531" on="0"/>
        <pt x="770" y="1531" on="1"/>
        <pt x="821" y="1531" on="0"/>
        <pt x="860" y="1498" on="1"/>
        <pt x="908" y="1459" on="0"/>
        <pt x="908" y="1338" on="1"/>
        <pt x="908" y="1246" on="0"/>
        <pt x="878" y="1092" on="1"/>
        <pt x="808" y="742" on="0"/>
        <pt x="522" y="272" on="1"/>
        <pt x="555" y="116" on="0"/>
        <pt x="611" y="116" on="1"/>
        <pt x="630" y="116" on="0"/>
        <pt x="653" y="140" on="1"/>
        <pt x="684" y="172" on="0"/>
        <pt x="716" y="228" on="1"/>
        <pt x="892" y="228" on="1"/>
        <pt x="815" y="100" on="0"/>
        <pt x="686" y="-20" on="0"/>
        <pt x="602" y="-20" on="1"/>
        <pt x="474" y="-20" on="0"/>
        <pt x="403" y="81" on="1"/>
        <pt x="351" y="0" on="1"/>
      </contour>
    </TTGlyph>
    <TTGlyph name="agrave" xMin="100" yMin="-40" xMax="910" yMax="1566">
      <contour>
        <pt x="400" y="180" on="1"/>
        <pt x="610" y="180" on="1"/>
        <pt x="710" y="180" on="0"/>
        <pt x="710" y="300" on="1"/>
        <pt x="710" y="437" on="1"/>
        <pt x="710" y="557" on="0"/>
        <pt x="610" y="557" on="1"/>
        <pt x="400" y="557" on="1"/>
        <pt x="300" y="557" on="0"/>
        <pt x="300" y="437" on="1"/>
        <pt x="300" y="300" on="1"/>
        <pt x="300" y="180" on="0"/>
      </contour>
      <contour>
        <pt x="400" y="0" on="1"/>
        <pt x="100" y="0" on="0"/>
        <pt x="100" y="300" on="1"/>
        <pt x="100" y="437" on="1"/>
        <pt x="100" y="737" on="0"/>
        <pt x="400" y="737" on="1"/>
        <pt x="610" y="737" on="1"/>
        <pt x="662" y="737" on="0"/>
        <pt x="710" y="707" on="1"/>
        <pt x="710" y="800" on="1"/>
        <pt x="710" y="920" on="0"/>
        <pt x="610" y="920" on="1"/>
        <pt x="252" y="920" on="1"/>
        <pt x="252" y="930" on="1"/>
        <pt x="332" y="1100" on="1"/>
        <pt x="610" y="1100" on="1"/>
        <pt x="910" y="1100" on="0"/>
        <pt x="910" y="800" on="1"/>
        <pt x="910" y="50" on="1"/>
        <pt x="720" y="-40" on="1"/>
        <pt x="710" y="-40" on="1"/>
        <pt x="710" y="30" on="1"/>
        <pt x="672" y="0" on="0"/>
        <pt x="610" y="0" on="1"/>
      </contour>
      <contour>
        <pt x="431" y="1566" on="1"/>
        <pt x="441" y="1566" on="1"/>
        <pt x="603" y="1221" on="1"/>
        <pt x="486" y="1166" on="1"/>
        <pt x="476" y="1166" on="1"/>
        <pt x="255" y="1482" on="1"/>
      </contour>
    </TTGlyph>
    <TTGlyph name="amacron" xMin="100" yMin="-40" xMax="910" yMax="1414">
      <contour>
        <pt x="400" y="180" on="1"/>
        <pt x="610" y="180" on="1"/>
        <pt x="710" y="180" on="0"/>
        <pt x="710" y="300" on="1"/>
        <pt x="710" y="437" on="1"/>
        <pt x="710" y="557" on="0"/>
        <pt x="610" y="557" on="1"/>
        <pt x="400" y="557" on="1"/>
        <pt x="300" y="557" on="0"/>
        <pt x="300" y="437" on="1"/>
        <pt x="300" y="300" on="1"/>
        <pt x="300" y="180" on="0"/>
      </contour>
      <contour>
        <pt x="400" y="0" on="1"/>
        <pt x="100" y="0" on="0"/>
        <pt x="100" y="300" on="1"/>
        <pt x="100" y="437" on="1"/>
        <pt x="100" y="737" on="0"/>
        <pt x="400" y="737" on="1"/>
        <pt x="610" y="737" on="1"/>
        <pt x="662" y="737" on="0"/>
        <pt x="710" y="707" on="1"/>
        <pt x="710" y="800" on="1"/>
        <pt x="710" y="920" on="0"/>
        <pt x="610" y="920" on="1"/>
        <pt x="252" y="920" on="1"/>
        <pt x="252" y="930" on="1"/>
        <pt x="332" y="1100" on="1"/>
        <pt x="610" y="1100" on="1"/>
        <pt x="910" y="1100" on="0"/>
        <pt x="910" y="800" on="1"/>
        <pt x="910" y="50" on="1"/>
        <pt x="720" y="-40" on="1"/>
        <pt x="710" y="-40" on="1"/>
        <pt x="710" y="30" on="1"/>
        <pt x="672" y="0" on="0"/>
        <pt x="610" y="0" on="1"/>
      </contour>
      <contour>
        <pt x="300" y="1232" on="1"/>
        <pt x="300" y="1242" on="1"/>
        <pt x="381" y="1414" on="1"/>
        <pt x="839" y="1414" on="1"/>
        <pt x="839" y="1404" on="1"/>
        <pt x="758" y="1232" on="1"/>
      </contour>
    </TTGlyph>
    <TTGlyph name="ampersand" xMin="160" yMin="-40" xMax="1560" yMax="1510">
      <contour>
        <pt x="778" y="180" on="1"/>
        <pt x="934" y="342" on="0"/>
        <pt x="1006" y="416" on="1"/>
        <pt x="726" y="746" on="1"/>
        <pt x="510" y="746" on="1"/>
        <pt x="360" y="746" on="0"/>
        <pt x="360" y="576" on="1"/>
        <pt x="360" y="350" on="1"/>
        <pt x="360" y="180" on="0"/>
        <pt x="510" y="180" on="1"/>
      </contour>
      <contour>
        <pt x="858" y="0" on="1"/>
        <pt x="510" y="0" on="1"/>
        <pt x="160" y="0" on="0"/>
        <pt x="160" y="350" on="1"/>
        <pt x="160" y="576" on="1"/>
        <pt x="160" y="787" on="0"/>
        <pt x="308" y="871" on="1"/>
        <pt x="250" y="936" on="0"/>
        <pt x="250" y="1046" on="1"/>
        <pt x="250" y="1210" on="1"/>
        <pt x="250" y="1510" on="0"/>
        <pt x="550" y="1510" on="1"/>
        <pt x="780" y="1510" on="1"/>
        <pt x="1080" y="1510" on="0"/>
        <pt x="1080" y="1210" on="1"/>
        <pt x="1080" y="1137" on="1"/>
        <pt x="890" y="1047" on="1"/>
        <pt x="880" y="1047" on="1"/>
        <pt x="880" y="1210" on="1"/>
        <pt x="880" y="1330" on="0"/>
        <pt x="780" y="1330" on="1"/>
        <pt x="550" y="1330" on="1"/>
        <pt x="450" y="1330" on="0"/>
        <pt x="450" y="1210" on="1"/>
        <pt x="450" y="1046" on="1"/>
        <pt x="450" y="926" on="0"/>
        <pt x="550" y="926" on="1"/>
        <pt x="818" y="926" on="1"/>
        <pt x="1124" y="560" on="1"/>
        <pt x="1376" y="896" on="1"/>
        <pt x="1386" y="896" on="1"/>
        <pt x="1558" y="814" on="1"/>
        <pt x="1240" y="418" on="1"/>
        <pt x="1560" y="42" on="1"/>
        <pt x="1386" y="-40" on="1"/>
        <pt x="1376" y="-40" on="1"/>
        <pt x="1106" y="284" on="1"/>
      </contour>
    </TTGlyph>
    <TTGlyph name="aogonek" xMin="100" yMin="-450" xMax="928" yMax="1100">
      <contour>
        <pt x="400" y="0" on="1"/>
        <pt x="100" y="0" on="0"/>
        <pt x="100" y="300" on="1"/>
        <pt x="100" y="437" on="1"/>
        <pt x="100" y="737" on="0"/>
        <pt x="400" y="737" on="1"/>
        <pt x="610" y="737" on="1"/>
        <pt x="662" y="737" on="0"/>
        <pt x="710" y="707" on="1"/>
        <pt x="710" y="800" on="1"/>
        <pt x="710" y="920" on="0"/>
        <pt x="610" y="920" on="1"/>
        <pt x="252" y="920" on="1"/>
        <pt x="252" y="930" on="1"/>
        <pt x="332" y="1100" on="1"/>
        <pt x="610" y="1100" on="1"/>
        <pt x="910" y="1100" on="0"/>
        <pt x="910" y="800" on="1"/>
        <pt x="910" y="50" on="1"/>
        <pt x="880" y="36" on="1"/>
        <pt x="794" y="-62" on="0"/>
        <pt x="794" y="-152" on="1"/>
        <pt x="794" y="-273" on="0"/>
        <pt x="928" y="-360" on="1"/>
        <pt x="738" y="-450" on="1"/>
        <pt x="728" y="-450" on="1"/>
        <pt x="619" y="-343" on="0"/>
        <pt x="619" y="-206" on="1"/>
        <pt x="619" y="-90" on="0"/>
        <pt x="710" y="4" on="1"/>
        <pt x="710" y="30" on="1"/>
        <pt x="672" y="0" on="0"/>
        <pt x="610" y="0" on="1"/>
      </contour>
      <contour>
        <pt x="400" y="180" on="1"/>
        <pt x="610" y="180" on="1"/>
        <pt x="710" y="180" on="0"/>
        <pt x="710" y="300" on="1"/>
        <pt x="710" y="437" on="1"/>
        <pt x="710" y="557" on="0"/>
        <pt x="610" y="557" on="1"/>
        <pt x="400" y="557" on="1"/>
        <pt x="300" y="557" on="0"/>
        <pt x="300" y="437" on="1"/>
        <pt x="300" y="300" on="1"/>
        <pt x="300" y="180" on="0"/>
      </contour>
    </TTGlyph>
    <TTGlyph name="approxequal" xMin="150" yMin="397" xMax="988" yMax="1109">
      <contour>
        <pt x="150" y="397" on="1"/>
        <pt x="150" y="758" on="0"/>
        <pt x="387" y="758" on="1"/>
        <pt x="521" y="758" on="0"/>
        <pt x="610" y="657" on="1"/>
        <pt x="683" y="574" on="0"/>
        <pt x="738" y="574" on="1"/>
        <pt x="810" y="574" on="0"/>
        <pt x="810" y="677" on="1"/>
        <pt x="978" y="758" on="1"/>
        <pt x="988" y="758" on="1"/>
        <pt x="988" y="397" on="0"/>
        <pt x="751" y="397" on="1"/>
        <pt x="617" y="397" on="0"/>
        <pt x="528" y="498" on="1"/>
        <pt x="455" y="581" on="0"/>
        <pt x="400" y="581" on="1"/>
        <pt x="328" y="581" on="0"/>
        <pt x="328" y="478" on="1"/>
        <pt x="160" y="397" on="1"/>
      </contour>
      <contour>
        <pt x="150" y="748" on="1"/>
        <pt x="150" y="1109" on="0"/>
        <pt x="387" y="1109" on="1"/>
        <pt x="521" y="1109" on="0"/>
        <pt x="610" y="1008" on="1"/>
        <pt x="683" y="925" on="0"/>
        <pt x="738" y="925" on="1"/>
        <pt x="810" y="925" on="0"/>
        <pt x="810" y="1028" on="1"/>
        <pt x="978" y="1109" on="1"/>
        <pt x="988" y="1109" on="1"/>
        <pt x="988" y="748" on="0"/>
        <pt x="751" y="748" on="1"/>
        <pt x="617" y="748" on="0"/>
        <pt x="528" y="849" on="1"/>
        <pt x="455" y="932" on="0"/>
        <pt x="400" y="932" on="1"/>
        <pt x="328" y="932" on="0"/>
        <pt x="328" y="829" on="1"/>
        <pt x="160" y="748" on="1"/>
      </contour>
    </TTGlyph>
    <TTGlyph name="aring" xMin="100" yMin="-40" xMax="910" yMax="1566">
      <contour>
        <pt x="400" y="180" on="1"/>
        <pt x="610" y="180" on="1"/>
        <pt x="710" y="180" on="0"/>
        <pt x="710" y="300" on="1"/>
        <pt x="710" y="437" on="1"/>
        <pt x="710" y="557" on="0"/>
        <pt x="610" y="557" on="1"/>
        <pt x="400" y="557" on="1"/>
        <pt x="300" y="557" on="0"/>
        <pt x="300" y="437" on="1"/>
        <pt x="300" y="300" on="1"/>
        <pt x="300" y="180" on="0"/>
      </contour>
      <contour>
        <pt x="400" y="0" on="1"/>
        <pt x="100" y="0" on="0"/>
        <pt x="100" y="300" on="1"/>
        <pt x="100" y="437" on="1"/>
        <pt x="100" y="737" on="0"/>
        <pt x="400" y="737" on="1"/>
        <pt x="610" y="737" on="1"/>
        <pt x="662" y="737" on="0"/>
        <pt x="710" y="707" on="1"/>
        <pt x="710" y="800" on="1"/>
        <pt x="710" y="920" on="0"/>
        <pt x="610" y="920" on="1"/>
        <pt x="252" y="920" on="1"/>
        <pt x="252" y="930" on="1"/>
        <pt x="332" y="1100" on="1"/>
        <pt x="610" y="1100" on="1"/>
        <pt x="910" y="1100" on="0"/>
        <pt x="910" y="800" on="1"/>
        <pt x="910" y="50" on="1"/>
        <pt x="720" y="-40" on="1"/>
        <pt x="710" y="-40" on="1"/>
        <pt x="710" y="30" on="1"/>
        <pt x="672" y="0" on="0"/>
        <pt x="610" y="0" on="1"/>
      </contour>
      <contour>
        <pt x="630" y="1188" on="0"/>
        <pt x="470" y="1188" on="0"/>
        <pt x="415" y="1237" on="1"/>
        <pt x="353" y="1292" on="0"/>
        <pt x="353" y="1377" on="1"/>
        <pt x="353" y="1460" on="0"/>
        <pt x="415" y="1517" on="1"/>
        <pt x="468" y="1566" on="0"/>
        <pt x="550" y="1566" on="1"/>
        <pt x="630" y="1566" on="0"/>
        <pt x="685" y="1517" on="1"/>
        <pt x="747" y="1462" on="0"/>
        <pt x="747" y="1292" on="0"/>
        <pt x="685" y="1237" on="1"/>
      </contour>
      <contour>
        <pt x="550" y="1462" on="1"/>
        <pt x="516" y="1462" on="0"/>
        <pt x="476" y="1420" on="0"/>
        <pt x="476" y="1377" on="1"/>
        <pt x="476" y="1331" on="0"/>
        <pt x="497" y="1312" on="1"/>
        <pt x="519" y="1292" on="0"/>
        <pt x="549" y="1292" on="1"/>
        <pt x="580" y="1292" on="0"/>
        <pt x="602" y="1314" on="1"/>
        <pt x="622" y="1333" on="0"/>
        <pt x="622" y="1377" on="1"/>
        <pt x="622" y="1422" on="0"/>
        <pt x="600" y="1443" on="1"/>
        <pt x="580" y="1462" on="0"/>
      </contour>
    </TTGlyph>
    <TTGlyph name="asciicircum" xMin="150" yMin="1006" xMax="1171" yMax="1550">
      <contour>
        <pt x="150" y="1088" on="1"/>
        <pt x="528" y="1468" on="1"/>
        <pt x="701" y="1550" on="1"/>
        <pt x="711" y="1550" on="1"/>
        <pt x="1171" y="1088" on="1"/>
        <pt x="998" y="1006" on="1"/>
        <pt x="988" y="1006" on="1"/>
        <pt x="659" y="1328" on="1"/>
        <pt x="333" y="1006" on="1"/>
        <pt x="323" y="1006" on="1"/>
      </contour>
    </TTGlyph>
    <TTGlyph name="asciitilde" xMin="150" yMin="583" xMax="988" yMax="944">
      <contour>
        <pt x="150" y="583" on="1"/>
        <pt x="150" y="944" on="0"/>
        <pt x="387" y="944" on="1"/>
        <pt x="521" y="944" on="0"/>
        <pt x="610" y="843" on="1"/>
        <pt x="683" y="760" on="0"/>
        <pt x="738" y="760" on="1"/>
        <pt x="810" y="760" on="0"/>
        <pt x="810" y="863" on="1"/>
        <pt x="978" y="944" on="1"/>
        <pt x="988" y="944" on="1"/>
        <pt x="988" y="583" on="0"/>
        <pt x="751" y="583" on="1"/>
        <pt x="617" y="583" on="0"/>
        <pt x="528" y="684" on="1"/>
        <pt x="455" y="767" on="0"/>
        <pt x="400" y="767" on="1"/>
        <pt x="328" y="767" on="0"/>
        <pt x="328" y="664" on="1"/>
        <pt x="160" y="583" on="1"/>
      </contour>
    </TTGlyph>
    <TTGlyph name="asterisk" xMin="150" yMin="636" xMax="1033" yMax="1550">
      <contour>
        <pt x="682" y="1550" on="1"/>
        <pt x="682" y="1231" on="1"/>
        <pt x="871" y="1360" on="1"/>
        <pt x="1028" y="1251" on="1"/>
        <pt x="1033" y="1243" on="1"/>
        <pt x="753" y="1093" on="1"/>
        <pt x="1033" y="943" on="1"/>
        <pt x="1028" y="935" on="1"/>
        <pt x="871" y="826" on="1"/>
        <pt x="682" y="955" on="1"/>
        <pt x="682" y="717" on="1"/>
        <pt x="510" y="636" on="1"/>
        <pt x="500" y="636" on="1"/>
        <pt x="500" y="955" on="1"/>
        <pt x="311" y="826" on="1"/>
        <pt x="155" y="935" on="1"/>
        <pt x="150" y="943" on="1"/>
        <pt x="429" y="1093" on="1"/>
        <pt x="150" y="1243" on="1"/>
        <pt x="155" y="1251" on="1"/>
        <pt x="311" y="1360" on="1"/>
        <pt x="500" y="1231" on="1"/>
        <pt x="500" y="1469" on="1"/>
        <pt x="672" y="1550" on="1"/>
      </contour>
    </TTGlyph>
    <TTGlyph name="asteriskmath" xMin="150" yMin="306" xMax="1033" yMax="1220">
      <contour>
        <pt x="682" y="1220" on="1"/>
        <pt x="682" y="921" on="1"/>
        <pt x="871" y="1030" on="1"/>
        <pt x="1028" y="921" on="1"/>
        <pt x="1033" y="913" on="1"/>
        <pt x="773" y="763" on="1"/>
        <pt x="1033" y="613" on="1"/>
        <pt x="1028" y="605" on="1"/>
        <pt x="871" y="496" on="1"/>
        <pt x="682" y="605" on="1"/>
        <pt x="682" y="387" on="1"/>
        <pt x="510" y="306" on="1"/>
        <pt x="500" y="306" on="1"/>
        <pt x="500" y="605" on="1"/>
        <pt x="311" y="496" on="1"/>
        <pt x="155" y="605" on="1"/>
        <pt x="150" y="613" on="1"/>
        <pt x="409" y="763" on="1"/>
        <pt x="150" y="913" on="1"/>
        <pt x="155" y="921" on="1"/>
        <pt x="311" y="1030" on="1"/>
        <pt x="500" y="921" on="1"/>
        <pt x="500" y="1139" on="1"/>
        <pt x="672" y="1220" on="1"/>
      </contour>
    </TTGlyph>
    <TTGlyph name="at" xMin="180" yMin="-410" xMax="1190" yMax="1100">
      <contour>
        <pt x="789" y="0" on="1"/>
        <pt x="489" y="0" on="0"/>
        <pt x="489" y="300" on="1"/>
        <pt x="489" y="374" on="1"/>
        <pt x="489" y="674" on="0"/>
        <pt x="789" y="674" on="1"/>
        <pt x="890" y="674" on="1"/>
        <pt x="945" y="674" on="0"/>
        <pt x="990" y="664" on="1"/>
        <pt x="990" y="800" on="1"/>
        <pt x="990" y="920" on="0"/>
        <pt x="890" y="920" on="1"/>
        <pt x="530" y="920" on="1"/>
        <pt x="380" y="920" on="0"/>
        <pt x="380" y="750" on="1"/>
        <pt x="380" y="-60" on="1"/>
        <pt x="380" y="-230" on="0"/>
        <pt x="530" y="-230" on="1"/>
        <pt x="800" y="-230" on="1"/>
        <pt x="800" y="-410" on="1"/>
        <pt x="530" y="-410" on="1"/>
        <pt x="180" y="-410" on="0"/>
        <pt x="180" y="-60" on="1"/>
        <pt x="180" y="750" on="1"/>
        <pt x="180" y="1100" on="0"/>
        <pt x="530" y="1100" on="1"/>
        <pt x="890" y="1100" on="1"/>
        <pt x="1190" y="1100" on="0"/>
        <pt x="1190" y="800" on="1"/>
        <pt x="1190" y="50" on="1"/>
        <pt x="1000" y="-40" on="1"/>
        <pt x="990" y="-40" on="1"/>
        <pt x="990" y="10" on="1"/>
        <pt x="945" y="0" on="0"/>
        <pt x="890" y="0" on="1"/>
      </contour>
      <contour>
        <pt x="789" y="180" on="1"/>
        <pt x="890" y="180" on="1"/>
        <pt x="990" y="180" on="0"/>
        <pt x="990" y="300" on="1"/>
        <pt x="990" y="374" on="1"/>
        <pt x="990" y="494" on="0"/>
        <pt x="890" y="494" on="1"/>
        <pt x="789" y="494" on="1"/>
        <pt x="689" y="494" on="0"/>
        <pt x="689" y="374" on="1"/>
        <pt x="689" y="300" on="1"/>
        <pt x="689" y="180" on="0"/>
      </contour>
    </TTGlyph>
    <TTGlyph name="atilde" xMin="100" yMin="-40" xMax="910" yMax="1518">
      <contour>
        <pt x="400" y="180" on="1"/>
        <pt x="610" y="180" on="1"/>
        <pt x="710" y="180" on="0"/>
        <pt x="710" y="300" on="1"/>
        <pt x="710" y="437" on="1"/>
        <pt x="710" y="557" on="0"/>
        <pt x="610" y="557" on="1"/>
        <pt x="400" y="557" on="1"/>
        <pt x="300" y="557" on="0"/>
        <pt x="300" y="437" on="1"/>
        <pt x="300" y="300" on="1"/>
        <pt x="300" y="180" on="0"/>
      </contour>
      <contour>
        <pt x="400" y="0" on="1"/>
        <pt x="100" y="0" on="0"/>
        <pt x="100" y="300" on="1"/>
        <pt x="100" y="437" on="1"/>
        <pt x="100" y="737" on="0"/>
        <pt x="400" y="737" on="1"/>
        <pt x="610" y="737" on="1"/>
        <pt x="662" y="737" on="0"/>
        <pt x="710" y="707" on="1"/>
        <pt x="710" y="800" on="1"/>
        <pt x="710" y="920" on="0"/>
        <pt x="610" y="920" on="1"/>
        <pt x="252" y="920" on="1"/>
        <pt x="252" y="930" on="1"/>
        <pt x="332" y="1100" on="1"/>
        <pt x="610" y="1100" on="1"/>
        <pt x="910" y="1100" on="0"/>
        <pt x="910" y="800" on="1"/>
        <pt x="910" y="50" on="1"/>
        <pt x="720" y="-40" on="1"/>
        <pt x="710" y="-40" on="1"/>
        <pt x="710" y="30" on="1"/>
        <pt x="672" y="0" on="0"/>
        <pt x="610" y="0" on="1"/>
      </contour>
      <contour>
        <pt x="322" y="1232" on="1"/>
        <pt x="322" y="1518" on="0"/>
        <pt x="463" y="1518" on="1"/>
        <pt x="527" y="1518" on="0"/>
        <pt x="600" y="1448" on="1"/>
        <pt x="651" y="1399" on="0"/>
        <pt x="675" y="1399" on="1"/>
        <pt x="709" y="1399" on="0"/>
        <pt x="709" y="1471" on="1"/>
        <pt x="819" y="1518" on="1"/>
        <pt x="825" y="1518" on="1"/>
        <pt x="825" y="1232" on="0"/>
        <pt x="684" y="1232" on="1"/>
        <pt x="620" y="1232" on="0"/>
        <pt x="547" y="1302" on="1"/>
        <pt x="496" y="1351" on="0"/>
        <pt x="472" y="1351" on="1"/>
        <pt x="438" y="1351" on="0"/>
        <pt x="438" y="1279" on="1"/>
        <pt x="328" y="1232" on="1"/>
      </contour>
    </TTGlyph>
</ttFont>
